Music_AKSW_Round4:
	channel_count 4
	channel 1, Music_AKSW_Round4_Ch1
	channel 2, Music_AKSW_Round4_Ch2
	channel 3, Music_AKSW_Round4_Ch3
	channel 4, Music_AKSW_Round4_Ch4

Music_AKSW_Round4_Ch1:
	volume 7, 7
	duty_cycle 1
	note_type 12, 10, 7
	tempo 128
	octave 2
	rest 1
Music_AKSW_Round4_Ch1_loop:
	octave 2
	note A_, 6
	octave 3
	note E_, 4
	note F#, 2
	octave 2
	note B_, 2
	note A_, 2
	note A_, 6
	octave 3
	note E_, 4
	note F#, 2
	octave 2
	note B_, 2
	note A_, 2
	note A_, 6
	octave 3
	note E_, 4
	note F#, 2
	octave 2
	note B_, 2
	note A_, 2
	note A_, 6
	octave 3
	note E_, 4
	note F#, 2
	octave 2
	note B_, 2
	note A_, 2
	note A_, 6
	octave 3
	note E_, 4
	note F#, 2
	octave 2
	note B_, 2
	note A_, 2
	note A_, 6
	octave 3
	note E_, 4
	note F#, 2
	octave 2
	note B_, 2
	note A_, 2
	note A_, 6
	octave 3
	note E_, 4
	note F#, 2
	octave 2
	note B_, 2
	note A_, 2
	note A_, 6
	octave 3
	note E_, 4
	note F#, 2
	octave 2
	note B_, 2
	note A_, 2
	note B_, 6
	octave 3
	note F#, 4
	note G#, 2
	note C#, 2
	octave 2
	note B_, 2
	note B_, 6
	octave 3
	note F#, 4
	note G#, 2
	note C#, 2
	octave 2
	note B_, 2
	note B_, 6
	octave 3
	note F#, 4
	note G#, 2
	note C#, 2
	octave 2
	note B_, 2
	note B_, 6
	octave 3
	note F#, 4
	note G#, 2
	note C#, 2
	octave 2
	note B_, 2
	note F#, 2
	note F#, 2
	note F#, 2
	note F#, 2
	note F#, 2
	note F#, 2
	note F#, 2
	note F#, 2
	note F#, 2
	note F#, 2
	note F#, 2
	note F#, 2
	note F#, 2
	note F#, 2
	note F#, 2
	note F#, 2
	note E_, 2
	note E_, 2
	note E_, 2
	note E_, 2
	note E_, 2
	note E_, 2
	note E_, 2
	note E_, 2
	note E_, 2
	note E_, 2
	note E_, 2
	note E_, 2
	note E_, 2
	note E_, 2
	note E_, 2
	note E_, 2
	note C#, 2
	note C#, 2
	note C#, 2
	note C#, 2
	note C#, 2
	note C#, 2
	note C#, 2
	note C#, 2
	note C#, 2
	note C#, 2
	note C#, 2
	note C#, 2
	note C#, 2
	note C#, 2
	note C#, 2
	note C#, 2
	note D#, 2
	note D#, 2
	note D#, 2
	note D#, 2
	note D#, 2
	note D#, 2
	note D#, 2
	note D#, 2
	note D#, 2
	note D#, 2
	note D#, 2
	note D#, 2
	note D#, 2
	note D#, 2
	note D#, 2
	note D#, 2
	note F#, 2
	note F#, 2
	note F#, 2
	note F#, 2
	note F#, 2
	note F#, 2
	note F#, 2
	note F#, 2
	note F#, 2
	note F#, 2
	note F#, 2
	note F#, 2
	note F#, 2
	note F#, 2
	note F#, 2
	note F#, 2
	note E_, 2
	note E_, 2
	note E_, 2
	note E_, 2
	note E_, 2
	note E_, 2
	note E_, 2
	note E_, 2
	note E_, 2
	note E_, 2
	note E_, 2
	note E_, 2
	note E_, 2
	note E_, 2
	note E_, 2
	note E_, 2
	note C#, 2
	note C#, 2
	note C#, 2
	note C#, 2
	note C#, 2
	note C#, 2
	note C#, 2
	note C#, 2
	note C#, 2
	note C#, 2
	note C#, 2
	note C#, 2
	note C#, 2
	note C#, 2
	note C#, 2
	note C#, 2
	note D#, 2
	note D#, 2
	note D#, 2
	note D#, 2
	note D#, 2
	note D#, 2
	note D#, 2
	note D#, 2
	note D#, 2
	note D#, 2
	note D#, 2
	note D#, 2
	note D#, 2
	note D#, 2
	note D#, 2
	note D#, 2
	sound_jump Music_AKSW_Round4_Ch1_loop

Music_AKSW_Round4_Ch2:
	duty_cycle 2
	note_type 12, 10, 7
	rest 1
Music_AKSW_Round4_Ch2_loop:
	rest 2
	octave 3
	volume_envelope 10, 7
	note G#, 2
	note F#, 2
	note E_, 2
	note E_, 6
	note A_, 4
	note G#, 2
	note F#, 2
	note E_, 2
	note E_, 6
	note A_, 4
	note G#, 2
	note F#, 2
	note E_, 2
	note E_, 2
	note E_, 2
	note F#, 2
	note G#, 2
	note A_, 2
	note G#, 2
	note F#, 6
	note E_, 2
	note F#, 2
	note A_, 4
	note G#, 2
	note F#, 2
	note E_, 2
	note E_, 6
	note A_, 4
	note G#, 2
	note F#, 2
	note E_, 2
	note E_, 6
	note A_, 4
	note G#, 2
	note F#, 2
	note E_, 2
	note E_, 2
	note E_, 2
	note F#, 2
	note A_, 2
	note A_, 2
	octave 4
	note C#, 2
	octave 3
	note A_, 2
	note G#, 8
	note B_, 4
	note A#, 2
	note G#, 2
	note F#, 2
	note F#, 6
	note B_, 4
	note A#, 2
	note G#, 2
	note F#, 2
	note F#, 6
	note B_, 4
	note A#, 2
	note G#, 2
	note F#, 2
	note F#, 2
	note F#, 2
	note G#, 2
	note B_, 2
	octave 4
	note D#, 4
	octave 3
	note B_, 4
	octave 4
	note D#, 2
	octave 3
	note B_, 2
	note A#, 2
	note B_, 2
	octave 2
	note B_, 2
	octave 3
	note D#, 2
	note G#, 2
	note B_, 2
	octave 4
	note D#, 2
	note G#, 2
	note B_, 2
	note G#, 2
	octave 2
	note B_, 2
	octave 3
	note D#, 2
	note G#, 2
	note B_, 2
	octave 4
	note D#, 2
	note G#, 2
	note D#, 2
	note G#, 2
	octave 2
	note B_, 2
	octave 3
	note D#, 2
	note G#, 2
	note B_, 2
	octave 4
	note D#, 2
	note G#, 2
	note B_, 2
	note G#, 2
	octave 2
	note B_, 2
	octave 3
	note D#, 2
	note G#, 2
	note B_, 2
	octave 4
	note D#, 2
	note G#, 2
	note D#, 2
	octave 3
	note B_, 2
	octave 2
	note B_, 2
	octave 3
	note D#, 2
	note G#, 2
	note B_, 2
	octave 4
	note D#, 2
	note G#, 2
	note B_, 2
	note G#, 2
	octave 2
	note B_, 2
	octave 3
	note D#, 2
	note G#, 2
	note B_, 2
	octave 4
	note D#, 2
	note G#, 2
	note D#, 2
	note G#, 2
	octave 2
	note B_, 2
	octave 3
	note D#, 2
	note G#, 2
	note B_, 2
	octave 4
	note D#, 2
	note G#, 2
	note B_, 2
	note G#, 2
	octave 2
	note B_, 2
	octave 3
	note D#, 2
	note G#, 2
	note B_, 2
	octave 4
	note D#, 2
	note G#, 2
	note D#, 2
	octave 3
	note B_, 2
	octave 2
	note B_, 2
	octave 3
	note D#, 2
	note G#, 2
	note B_, 2
	octave 4
	note D#, 2
	note G#, 2
	note B_, 2
	note G#, 2
	octave 2
	note B_, 2
	octave 3
	note D#, 2
	note G#, 2
	note B_, 2
	octave 4
	note D#, 2
	note G#, 2
	note D#, 2
	note G#, 2
	octave 2
	note B_, 2
	octave 3
	note D#, 2
	note G#, 2
	note B_, 2
	octave 4
	note D#, 2
	note G#, 2
	note B_, 2
	note G#, 2
	octave 2
	note B_, 2
	octave 3
	note D#, 2
	note G#, 2
	note B_, 2
	octave 4
	note D#, 2
	note G#, 2
	note D#, 2
	octave 3
	note B_, 2
	octave 2
	note B_, 2
	octave 3
	note D#, 2
	note G#, 2
	note B_, 2
	octave 4
	note D#, 2
	note G#, 2
	note B_, 2
	note G#, 2
	octave 2
	note B_, 2
	octave 3
	note D#, 2
	note G#, 2
	note B_, 2
	octave 4
	note D#, 2
	note G#, 2
	note D#, 2
	note G#, 2
	octave 2
	note B_, 2
	octave 3
	note D#, 2
	note G#, 2
	note B_, 2
	octave 4
	note D#, 2
	note G#, 2
	note B_, 2
	note G#, 2
	octave 2
	note B_, 2
	octave 3
	note D#, 2
	note G#, 2
	note B_, 2
	octave 4
	note D#, 2
	note G#, 2
	note D#, 2
	octave 3
	note B_, 2
	sound_jump Music_AKSW_Round4_Ch2_loop

Music_AKSW_Round4_Ch3:
	note_type 12, 1, 0
	rest 1
Music_AKSW_Round4_Ch3_loop:
	octave 3
	volume_envelope 2, 0
	note E_, 2
	note F#, 2
	note A_, 6
	note E_, 6
	note E_, 2
	note F#, 2
	note A_, 6
	note E_, 6
	note E_, 2
	note F#, 2
	note A_, 6
	note E_, 6
	note E_, 2
	note F#, 2
	note A_, 6
	note E_, 6
	note E_, 2
	note F#, 2
	note A_, 6
	note E_, 6
	note E_, 2
	note F#, 2
	note A_, 6
	note E_, 6
	note E_, 2
	note F#, 2
	note A_, 6
	note E_, 6
	note E_, 2
	note F#, 2
	note A_, 6
	note E_, 6
	note F#, 2
	note G#, 2
	note B_, 6
	note F#, 6
	note F#, 2
	note G#, 2
	note B_, 6
	note F#, 6
	note F#, 2
	note G#, 2
	note B_, 6
	note F#, 6
	note F#, 2
	note G#, 2
	note B_, 6
	note F#, 6
	rest 16
	rest 12
	octave 5
	volume_envelope 1, 1
	note C#, 4
	octave 4
	note B_, 6
	note G#, 6
	rest 16
	octave 5
	note C#, 4
	octave 4
	note B_, 6
	note G#, 6
	note G#, 4
	note G#, 2
	rest 10
	octave 5
	note C#, 4
	octave 4
	note B_, 6
	note G#, 10
	note G#, 8
	note D#, 4
	note G#, 4
	octave 5
	note C#, 6
	octave 4
	note B_, 6
	octave 5
	note C#, 4
	note C#, 2
	octave 4
	note B_, 6
	note G#, 4
	note B_, 4
	note G#, 12
	note D#, 4
	note D#, 12
	octave 5
	note C#, 4
	octave 4
	note B_, 6
	note D#, 4
	note D#, 2
	note G#, 4
	note G#, 12
	octave 5
	note C#, 4
	octave 4
	note B_, 6
	note G#, 10
	note G#, 6
	note D#, 4
	note G#, 6
	sound_jump Music_AKSW_Round4_Ch3_loop

Music_AKSW_Round4_Ch4:
	toggle_noise 1
	drum_speed 12
	rest 1
Music_AKSW_Round4_Ch4_loop:
	drum_note 12, 2
	drum_note 10, 4
	drum_note 12, 4
	drum_note 10, 2
	drum_note 3, 4
	drum_note 12, 2
	drum_note 10, 4
	drum_note 12, 4
	drum_note 10, 2
	drum_note 3, 2
	drum_note 3, 2
	drum_note 12, 2
	drum_note 10, 4
	drum_note 12, 2
	drum_note 11, 2
	drum_note 10, 2
	drum_note 12, 2
	drum_note 12, 2
	drum_note 12, 2
	drum_note 10, 4
	drum_note 12, 2
	drum_note 10, 2
	drum_note 12, 2
	drum_note 3, 2
	drum_note 3, 2
	drum_note 12, 2
	drum_note 10, 4
	drum_note 12, 4
	drum_note 10, 2
	drum_note 3, 4
	drum_note 12, 2
	drum_note 10, 4
	drum_note 12, 4
	drum_note 10, 2
	drum_note 3, 2
	drum_note 3, 2
	drum_note 12, 2
	drum_note 10, 4
	drum_note 12, 2
	drum_note 11, 2
	drum_note 10, 2
	drum_note 12, 2
	drum_note 12, 2
	drum_note 12, 2
	drum_note 10, 4
	drum_note 12, 2
	drum_note 10, 2
	drum_note 12, 2
	drum_note 3, 2
	drum_note 3, 2
	drum_note 12, 2
	drum_note 10, 4
	drum_note 12, 4
	drum_note 10, 2
	drum_note 3, 4
	drum_note 12, 2
	drum_note 10, 4
	drum_note 12, 4
	drum_note 10, 2
	drum_note 3, 2
	drum_note 3, 2
	drum_note 12, 2
	drum_note 10, 4
	drum_note 12, 2
	drum_note 11, 2
	drum_note 10, 2
	drum_note 12, 2
	drum_note 12, 2
	drum_note 12, 2
	drum_note 10, 4
	drum_note 12, 2
	drum_note 10, 2
	drum_note 12, 2
	drum_note 3, 2
	drum_note 3, 2
	drum_note 12, 2
	drum_note 10, 4
	drum_note 12, 4
	drum_note 10, 2
	drum_note 3, 4
	drum_note 12, 2
	drum_note 10, 4
	drum_note 12, 4
	drum_note 10, 2
	drum_note 3, 2
	drum_note 3, 2
	drum_note 12, 2
	drum_note 10, 4
	drum_note 12, 2
	drum_note 11, 2
	drum_note 10, 2
	drum_note 12, 2
	drum_note 12, 2
	drum_note 12, 2
	drum_note 10, 4
	drum_note 12, 2
	drum_note 10, 2
	drum_note 12, 2
	drum_note 3, 2
	drum_note 3, 2
	drum_note 12, 2
	drum_note 10, 4
	drum_note 12, 4
	drum_note 10, 2
	drum_note 3, 4
	drum_note 12, 2
	drum_note 10, 4
	drum_note 12, 4
	drum_note 10, 2
	drum_note 3, 2
	drum_note 3, 2
	drum_note 12, 2
	drum_note 10, 4
	drum_note 12, 2
	drum_note 11, 2
	drum_note 10, 2
	drum_note 12, 2
	drum_note 12, 2
	drum_note 12, 2
	drum_note 10, 4
	drum_note 12, 2
	drum_note 10, 2
	drum_note 12, 2
	drum_note 3, 2
	drum_note 3, 2
	drum_note 12, 2
	drum_note 10, 4
	drum_note 12, 4
	drum_note 10, 2
	drum_note 3, 4
	drum_note 12, 2
	drum_note 10, 4
	drum_note 12, 4
	drum_note 10, 2
	drum_note 3, 2
	drum_note 3, 2
	drum_note 12, 2
	drum_note 10, 4
	drum_note 12, 2
	drum_note 11, 2
	drum_note 10, 2
	drum_note 12, 2
	drum_note 12, 2
	drum_note 12, 2
	drum_note 10, 4
	drum_note 12, 2
	drum_note 10, 2
	drum_note 12, 2
	drum_note 3, 2
	drum_note 3, 2
	drum_note 12, 2
	drum_note 10, 4
	drum_note 12, 4
	drum_note 10, 2
	drum_note 3, 4
	drum_note 12, 2
	drum_note 10, 4
	drum_note 12, 4
	drum_note 10, 2
	drum_note 3, 2
	drum_note 3, 2
	drum_note 12, 2
	drum_note 10, 4
	drum_note 12, 2
	drum_note 11, 2
	drum_note 10, 2
	drum_note 12, 2
	drum_note 12, 2
	drum_note 12, 2
	drum_note 10, 4
	drum_note 12, 2
	drum_note 10, 2
	drum_note 12, 2
	drum_note 3, 2
	drum_note 3, 2
	sound_jump Music_AKSW_Round4_Ch4_loop
