Music_AKSW_Round1:
	channel_count 4
	channel 1, Music_AKSW_Round1_Ch1
	channel 2, Music_AKSW_Round1_Ch2
	channel 3, Music_AKSW_Round1_Ch3
	channel 4, Music_AKSW_Round1_Ch4

Music_AKSW_Round1_Ch1:
	volume 7, 7
	duty_cycle 1
	note_type 12, 10, 7
	tempo 138
	rest 1
	octave 2
	note G_, 1
	rest 1
	octave 3
	note G_, 1
	note G_, 1
	note G_, 1
	octave 2
	note G_, 1
	rest 1
	note G_, 1
	note G_, 1
	octave 3
	note E_, 1
	rest 1
	note E_, 1
	note E_, 1
	rest 1
	octave 2
	note E_, 1
	rest 1
Music_AKSW_Round1_Ch1_loop:
	octave 2
	note F#, 1
	rest 1
	octave 3
	note F#, 1
	note F#, 1
	note F#, 1
	octave 2
	note F#, 1
	rest 1
	note F#, 1
	note F#, 1
	octave 3
	note F#, 1
	rest 1
	note F#, 1
	note F#, 1
	rest 1
	octave 2
	note F#, 1
	rest 1
	octave 3
	note C#, 1
	rest 1
	octave 4
	note C#, 1
	note C#, 1
	note C#, 1
	octave 3
	note C#, 1
	rest 1
	note C#, 1
	note C#, 1
	octave 4
	note C#, 1
	rest 1
	note C#, 1
	note C#, 1
	rest 1
	octave 3
	note C#, 1
	rest 1
	octave 2
	note B_, 1
	rest 1
	octave 3
	note B_, 1
	note B_, 1
	note B_, 1
	octave 2
	note B_, 1
	rest 1
	note B_, 1
	note B_, 1
	octave 3
	note B_, 1
	rest 1
	note B_, 1
	note B_, 1
	rest 1
	octave 2
	note B_, 1
	rest 1
	note E_, 1
	rest 1
	octave 3
	note E_, 1
	note E_, 1
	note E_, 1
	octave 2
	note E_, 1
	rest 1
	note E_, 1
	note E_, 1
	octave 3
	note E_, 1
	rest 1
	note E_, 1
	note E_, 1
	rest 1
	octave 2
	note E_, 1
	rest 1
	note A_, 1
	rest 1
	octave 3
	note A_, 1
	note A_, 1
	note A_, 1
	octave 2
	note A_, 1
	rest 1
	note A_, 1
	note A_, 1
	octave 3
	note A_, 1
	rest 1
	note A_, 1
	note A_, 1
	rest 1
	octave 2
	note A_, 1
	rest 1
	note B_, 1
	rest 1
	octave 3
	note B_, 1
	note B_, 1
	note B_, 1
	octave 2
	note B_, 1
	rest 1
	note B_, 1
	note B_, 1
	octave 3
	note B_, 1
	rest 1
	note B_, 1
	note B_, 1
	rest 1
	octave 2
	note B_, 1
	rest 1
	octave 3
	note C#, 1
	rest 1
	octave 4
	note C#, 1
	note C#, 1
	note C#, 1
	octave 3
	note C#, 1
	rest 1
	note C#, 1
	note C#, 1
	octave 4
	note C#, 1
	rest 1
	note C#, 1
	note C#, 1
	rest 1
	octave 3
	note C#, 1
	rest 1
	octave 2
	note E_, 1
	rest 1
	octave 3
	note E_, 1
	note E_, 1
	note E_, 1
	octave 2
	note E_, 1
	rest 1
	note E_, 1
	note E_, 1
	octave 3
	note E_, 1
	rest 1
	note E_, 1
	note E_, 1
	rest 1
	octave 2
	note E_, 1
	rest 1
	note F#, 1
	rest 1
	octave 3
	note F#, 1
	note F#, 1
	note F#, 1
	octave 2
	note F#, 1
	rest 1
	note F#, 1
	note F#, 1
	octave 3
	note F#, 1
	rest 1
	note F#, 1
	note F#, 1
	rest 1
	octave 2
	note F#, 1
	rest 1
	octave 3
	note C#, 1
	rest 1
	octave 4
	note C#, 1
	note C#, 1
	note C#, 1
	octave 3
	note C#, 1
	rest 1
	note C#, 1
	note C#, 1
	octave 4
	note C#, 1
	rest 1
	note C#, 1
	note C#, 1
	rest 1
	octave 3
	note C#, 1
	rest 1
	octave 2
	note B_, 1
	rest 1
	octave 3
	note B_, 1
	note B_, 1
	note B_, 1
	octave 2
	note B_, 1
	rest 1
	note B_, 1
	note B_, 1
	octave 3
	note B_, 1
	rest 1
	note B_, 1
	note B_, 1
	rest 1
	octave 2
	note B_, 1
	rest 1
	note E_, 1
	rest 1
	octave 3
	note E_, 1
	note E_, 1
	note E_, 1
	octave 2
	note E_, 1
	rest 1
	note E_, 1
	note E_, 1
	octave 3
	note E_, 1
	rest 1
	note E_, 1
	note E_, 1
	rest 1
	octave 2
	note E_, 1
	rest 1
	note A_, 1
	rest 1
	octave 3
	note A_, 1
	note A_, 1
	note A_, 1
	octave 2
	note A_, 1
	rest 1
	note A_, 1
	note A_, 1
	octave 3
	note A_, 1
	rest 1
	note A_, 1
	note A_, 1
	rest 1
	octave 2
	note A_, 1
	rest 1
	note B_, 1
	rest 1
	octave 3
	note B_, 1
	note B_, 1
	note B_, 1
	octave 2
	note B_, 1
	rest 1
	note B_, 1
	note B_, 1
	octave 3
	note B_, 1
	rest 1
	note B_, 1
	note B_, 1
	rest 1
	octave 2
	note B_, 1
	rest 1
	octave 3
	note C#, 1
	rest 1
	octave 4
	note C#, 1
	note C#, 1
	note C#, 1
	octave 3
	note C#, 1
	rest 1
	note C#, 1
	note C#, 1
	octave 4
	note C#, 1
	rest 1
	note C#, 1
	note C#, 1
	rest 1
	octave 3
	note C#, 1
	rest 1
	octave 2
	note E_, 1
	rest 1
	octave 3
	note E_, 1
	note E_, 1
	note E_, 1
	octave 2
	note E_, 1
	rest 1
	note E_, 1
	note E_, 1
	octave 3
	note E_, 1
	rest 1
	note E_, 1
	note E_, 1
	rest 1
	octave 2
	note E_, 1
	rest 1
	note F#, 1
	rest 1
	octave 3
	note F#, 1
	rest 1
	octave 2
	note F#, 1
	rest 1
	octave 3
	note F#, 1
	note F#, 1
	octave 2
	note F#, 1
	rest 1
	octave 3
	note F#, 1
	rest 1
	octave 2
	note F#, 1
	rest 1
	octave 3
	note F#, 1
	rest 1
	octave 2
	note D_, 1
	rest 1
	octave 3
	note D_, 1
	rest 1
	octave 2
	note D_, 1
	rest 1
	octave 3
	note D_, 1
	note D_, 1
	octave 2
	note D_, 1
	rest 1
	octave 3
	note D_, 1
	rest 1
	octave 2
	note D_, 1
	rest 1
	octave 3
	note D_, 1
	rest 1
	octave 2
	note E_, 1
	rest 1
	octave 3
	note E_, 1
	rest 1
	octave 2
	note E_, 1
	rest 1
	octave 3
	note E_, 1
	note E_, 1
	octave 2
	note E_, 1
	rest 1
	octave 3
	note E_, 1
	rest 1
	octave 2
	note E_, 1
	rest 1
	octave 3
	note E_, 1
	rest 1
	octave 2
	note D_, 1
	rest 1
	octave 3
	note D_, 1
	rest 1
	octave 2
	note D_, 1
	rest 1
	octave 3
	note D_, 1
	rest 1
	octave 2
	note D#, 1
	rest 1
	octave 3
	note D#, 1
	rest 1
	octave 2
	note E_, 1
	rest 1
	octave 3
	note E_, 1
	rest 1
	octave 2
	note F#, 1
	rest 1
	octave 3
	note F#, 1
	rest 1
	octave 2
	note F#, 1
	rest 1
	octave 3
	note F#, 1
	note F#, 1
	octave 2
	note F#, 1
	rest 1
	octave 3
	note F#, 1
	rest 1
	octave 2
	note F#, 1
	rest 1
	octave 3
	note F#, 1
	rest 1
	octave 2
	note D_, 1
	rest 1
	octave 3
	note D_, 1
	rest 1
	octave 2
	note D_, 1
	rest 1
	octave 3
	note D_, 1
	note D_, 1
	octave 2
	note D_, 1
	rest 1
	octave 3
	note D_, 1
	rest 1
	octave 2
	note D_, 1
	rest 1
	octave 3
	note D_, 1
	rest 1
	octave 2
	note F#, 1
	rest 1
	octave 3
	note F#, 1
	rest 1
	octave 2
	note F#, 1
	rest 1
	octave 3
	note F#, 1
	note F#, 1
	octave 2
	note F#, 1
	rest 1
	octave 3
	note F#, 1
	rest 1
	octave 2
	note F#, 1
	rest 1
	octave 3
	note F#, 1
	rest 1
	octave 2
	note E_, 1
	rest 1
	octave 3
	note E_, 1
	rest 1
	octave 2
	note E_, 1
	rest 1
	octave 3
	note E_, 1
	octave 2
	note E_, 1
	octave 3
	note E_, 1
	rest 1
	note E_, 1
	rest 1
	note E_, 1
	note C#, 1
	rest 2
	octave 2
	note A_, 1
	rest 1
	octave 3
	note A_, 1
	rest 1
	octave 2
	note A_, 1
	rest 1
	octave 3
	note A_, 1
	note A_, 1
	octave 2
	note A_, 1
	rest 1
	octave 3
	note A_, 1
	rest 1
	octave 2
	note A_, 1
	rest 1
	octave 3
	note A_, 1
	rest 1
	octave 2
	note A_, 1
	rest 1
	octave 3
	note A_, 1
	rest 1
	octave 2
	note A_, 1
	rest 1
	octave 3
	note A_, 1
	note A_, 1
	octave 2
	note A_, 1
	rest 1
	octave 3
	note A_, 1
	rest 1
	octave 2
	note A_, 1
	rest 1
	octave 3
	note A_, 1
	rest 1
	octave 2
	note F#, 1
	rest 1
	octave 3
	note F#, 1
	rest 1
	octave 2
	note F#, 1
	rest 1
	octave 3
	note F#, 1
	note F#, 1
	octave 2
	note F#, 1
	rest 1
	octave 3
	note F#, 1
	rest 1
	octave 2
	note F#, 1
	rest 1
	octave 3
	note F#, 1
	rest 1
	octave 2
	note F#, 1
	rest 1
	octave 3
	note F#, 1
	rest 1
	octave 2
	note F#, 1
	rest 1
	octave 3
	note F#, 1
	note F#, 1
	octave 2
	note F#, 1
	rest 1
	octave 3
	note F#, 1
	rest 1
	octave 2
	note F#, 1
	rest 1
	octave 3
	note F#, 1
	rest 1
	octave 2
	note A_, 1
	rest 1
	octave 3
	note A_, 1
	rest 1
	octave 2
	note A_, 1
	rest 1
	octave 3
	note A_, 1
	note A_, 1
	octave 2
	note A_, 1
	rest 1
	octave 3
	note A_, 1
	rest 1
	octave 2
	note A_, 1
	rest 1
	octave 3
	note A_, 1
	rest 1
	octave 2
	note A_, 1
	rest 1
	octave 3
	note A_, 1
	rest 1
	octave 2
	note A_, 1
	rest 1
	octave 3
	note A_, 1
	note A_, 1
	octave 2
	note A_, 1
	rest 1
	octave 3
	note A_, 1
	rest 1
	octave 2
	note A_, 1
	rest 1
	octave 3
	note A_, 1
	rest 1
	octave 2
	note G_, 1
	rest 1
	octave 3
	note G_, 1
	rest 1
	octave 2
	note G_, 1
	rest 1
	octave 3
	note G_, 1
	note G_, 1
	octave 2
	note G_, 1
	rest 1
	octave 3
	note G_, 1
	rest 1
	octave 2
	note G_, 1
	rest 1
	octave 3
	note G_, 1
	rest 1
	octave 2
	note G_, 1
	rest 1
	octave 3
	note G_, 1
	rest 1
	octave 2
	note G_, 1
	rest 1
	octave 3
	note G_, 1
	note G_, 1
	octave 2
	note G_, 1
	rest 1
	octave 3
	note G_, 1
	rest 1
	octave 2
	note G_, 1
	rest 1
	octave 3
	note G_, 1
	rest 1
	sound_jump Music_AKSW_Round1_Ch1_loop

Music_AKSW_Round1_Ch2:
	duty_cycle 2
	note_type 12, 11, 7
	rest 1
	octave 3
	volume_envelope 10, 7
	note F#, 1
	note G#, 1
	note B_, 1
	octave 4
	note E_, 1
	octave 3
	note E_, 1
	note A_, 1
	note B_, 1
	octave 4
	note D_, 1
	octave 3
	note C#, 1
	note D_, 1
	note F#, 1
	note A_, 1
	note D_, 1
	note E_, 1
	note A_, 1
	octave 4
	note C#, 1
Music_AKSW_Round1_Ch2_loop:
	octave 5
	volume_envelope 10, 7
	note C#, 1
	octave 4
	note B_, 1
	note A_, 1
	note F#, 1
	note E_, 1
	note F#, 1
	note A_, 1
	note F#, 1
	note A_, 1
	note A_, 1
	note B_, 1
	note A_, 1
	note B_, 1
	note B_, 1
	octave 5
	note C#, 1
	note C#, 1
	rest 16
	note C#, 1
	note C#, 1
	note C#, 1
	note C#, 1
	note C#, 1
	octave 4
	note B_, 1
	note A_, 1
	note F#, 1
	note E_, 1
	note F#, 1
	note E_, 1
	note F#, 1
	note A_, 1
	note F#, 1
	note E_, 1
	note F#, 1
	rest 16
	octave 5
	note C#, 1
	octave 4
	note B_, 1
	note A_, 1
	note F#, 1
	note E_, 1
	note F#, 1
	note A_, 1
	note F#, 1
	note A_, 1
	note A_, 1
	note B_, 1
	note A_, 1
	note B_, 1
	note B_, 1
	octave 5
	note C#, 1
	note C#, 1
	rest 16
	note C#, 1
	note C#, 1
	note C#, 1
	note C#, 1
	note C#, 1
	octave 4
	note B_, 1
	note A_, 1
	note F#, 1
	note E_, 1
	note F#, 1
	note E_, 1
	note F#, 1
	note A_, 1
	note F#, 1
	note E_, 1
	note F#, 1
	rest 16
	octave 5
	note C#, 1
	octave 4
	note B_, 1
	note A_, 1
	note F#, 1
	note E_, 1
	note F#, 1
	note A_, 1
	note F#, 1
	note A_, 1
	note A_, 1
	note B_, 1
	note A_, 1
	note B_, 1
	note B_, 1
	octave 5
	note C#, 1
	note C#, 1
	rest 16
	note C#, 1
	note C#, 1
	note C#, 1
	note C#, 1
	note C#, 1
	octave 4
	note B_, 1
	note A_, 1
	note F#, 1
	note E_, 1
	note F#, 1
	note E_, 1
	note F#, 1
	note A_, 1
	note F#, 1
	note E_, 1
	note F#, 1
	rest 16
	octave 5
	note C#, 1
	octave 4
	note B_, 1
	note A_, 1
	note F#, 1
	note E_, 1
	note F#, 1
	note A_, 1
	note F#, 1
	note A_, 1
	note A_, 1
	note B_, 1
	note A_, 1
	note B_, 1
	note B_, 1
	octave 5
	note C#, 1
	note C#, 1
	rest 16
	note C#, 1
	note C#, 1
	note C#, 1
	note C#, 1
	note C#, 1
	octave 4
	note B_, 1
	note A_, 1
	note F#, 1
	note E_, 1
	note F#, 1
	note E_, 1
	note F#, 1
	note A_, 1
	note F#, 1
	note E_, 1
	note F#, 1
	rest 16
	octave 5
	note F#, 1
	note E_, 1
	note C#, 1
	rest 1
	octave 4
	note B_, 1
	rest 1
	note A_, 1
	rest 1
	note E_, 3
	note F#, 1
	rest 4
	octave 5
	note F#, 1
	note E_, 1
	note C#, 1
	rest 1
	octave 4
	note B_, 1
	rest 1
	note A_, 1
	octave 5
	note C#, 1
	rest 8
	note F#, 1
	note E_, 1
	note C#, 1
	rest 1
	octave 4
	note B_, 1
	rest 1
	note A_, 1
	rest 1
	note E_, 3
	note F#, 1
	rest 4
	octave 5
	note F#, 1
	note E_, 1
	note C#, 1
	rest 1
	note E_, 1
	rest 1
	note F#, 1
	note F#, 1
	rest 8
	note F#, 1
	note E_, 1
	note C#, 1
	rest 1
	octave 4
	note B_, 1
	rest 1
	note A_, 1
	rest 1
	note E_, 3
	note F#, 1
	rest 4
	octave 5
	note F#, 1
	note E_, 1
	note C#, 1
	rest 1
	octave 4
	note B_, 1
	rest 1
	note A_, 1
	octave 5
	note C#, 1
	rest 8
	note F#, 1
	note E_, 1
	note C#, 1
	rest 1
	octave 4
	note B_, 1
	rest 1
	note A_, 1
	rest 1
	note E_, 3
	note F#, 1
	rest 4
	octave 5
	note F#, 1
	note E_, 1
	note C#, 1
	rest 1
	note E_, 1
	rest 1
	note F#, 1
	note F#, 1
	rest 8
	octave 4
	note G#, 16
	note G#, 10
	note G#, 1
	note A_, 1
	note G#, 1
	note F#, 1
	note E_, 1
	note C#, 1
	note F#, 16
	note F#, 6
	note C#, 1
	note E_, 1
	note F#, 1
	note G#, 1
	note E_, 1
	note B_, 1
	octave 5
	note G#, 1
	note E_, 1
	note C#, 1
	octave 4
	note A_, 1
	note G#, 16
	note G#, 10
	octave 5
	note C#, 1
	octave 4
	note A_, 1
	note G#, 1
	note A_, 1
	octave 5
	note C#, 1
	note E_, 1
	note F#, 16
	note F#, 4
	octave 4
	note G#, 1
	note A_, 1
	octave 5
	note C#, 1
	note E_, 1
	note G#, 1
	note E_, 1
	note C#, 1
	octave 4
	note A_, 1
	note G#, 1
	note A_, 1
	octave 5
	note C#, 1
	note E_, 1
	sound_jump Music_AKSW_Round1_Ch2_loop

Music_AKSW_Round1_Ch3:
	note_type 12, 2, 6
	rest 1
	octave 4
	note F#, 1
	note G#, 1
	note B_, 1
	octave 5
	note E_, 1
	octave 4
	note E_, 1
	note A_, 1
	note B_, 1
	octave 5
	note D_, 1
	octave 4
	note C#, 1
	note D_, 1
	note F_, 1
	note A_, 1
	note D_, 1
	note E_, 1
	note A_, 1
	octave 5
	note C#, 1
Music_AKSW_Round1_Ch3_loop:
	octave 3
	note F#, 1
	octave 4
	note F#, 1
	note A_, 1
	octave 5
	note C#, 1
	octave 3
	note F#, 1
	octave 4
	note F#, 1
	note A_, 1
	octave 5
	note C#, 1
	octave 3
	note F#, 1
	octave 4
	note F#, 1
	note A_, 1
	octave 5
	note C#, 1
	octave 3
	note F#, 1
	octave 4
	note F#, 1
	note A_, 1
	octave 5
	note C#, 1
	octave 3
	note E_, 1
	octave 4
	note B_, 1
	note G#, 1
	note E_, 1
	octave 3
	note E_, 1
	octave 4
	note B_, 1
	note G#, 1
	note E_, 1
	octave 3
	note E_, 1
	octave 4
	note B_, 1
	note G#, 1
	note E_, 1
	octave 3
	note E_, 1
	octave 4
	note B_, 1
	note G#, 1
	note E_, 1
	octave 2
	note B_, 1
	octave 4
	note F#, 1
	note A_, 1
	octave 5
	note C#, 1
	octave 2
	note B_, 1
	octave 4
	note F#, 1
	note A_, 1
	octave 5
	note C#, 1
	octave 2
	note B_, 1
	octave 4
	note F#, 1
	note A_, 1
	octave 5
	note C#, 1
	octave 2
	note B_, 1
	octave 4
	note F#, 1
	note A_, 1
	octave 5
	note C#, 1
	octave 3
	note E_, 1
	octave 4
	note A_, 1
	note F#, 1
	octave 5
	note D_, 1
	octave 3
	note E_, 1
	octave 4
	note A_, 1
	note F#, 1
	octave 5
	note D_, 1
	octave 3
	note E_, 1
	octave 4
	note A_, 1
	note F#, 1
	octave 5
	note D_, 1
	octave 3
	note E_, 1
	octave 4
	note A_, 1
	note F#, 1
	octave 5
	note D_, 1
	octave 2
	note A_, 1
	octave 4
	note E_, 1
	note A_, 1
	octave 5
	note C#, 1
	octave 2
	note A_, 1
	octave 4
	note E_, 1
	note A_, 1
	octave 5
	note C#, 1
	octave 2
	note A_, 1
	octave 4
	note E_, 1
	note A_, 1
	octave 5
	note C#, 1
	octave 2
	note A_, 1
	octave 4
	note E_, 1
	note A_, 1
	octave 5
	note C#, 1
	octave 2
	note B_, 1
	octave 4
	note A_, 1
	note F#, 1
	octave 5
	note D_, 1
	octave 2
	note B_, 1
	octave 4
	note A_, 1
	note F#, 1
	octave 5
	note D_, 1
	octave 2
	note B_, 1
	octave 4
	note A_, 1
	note F#, 1
	octave 5
	note D_, 1
	octave 2
	note B_, 1
	octave 4
	note A_, 1
	note F#, 1
	octave 5
	note D_, 1
	octave 3
	note C#, 1
	octave 4
	note B_, 1
	note G#, 1
	octave 5
	note E_, 1
	octave 3
	note C#, 1
	octave 4
	note B_, 1
	note G#, 1
	octave 5
	note E_, 1
	octave 3
	note C#, 1
	octave 4
	note B_, 1
	note G#, 1
	octave 5
	note E_, 1
	octave 3
	note C#, 1
	octave 4
	note B_, 1
	note G#, 1
	octave 5
	note E_, 1
	octave 3
	note F#, 1
	octave 4
	note G#, 1
	octave 5
	note D_, 1
	note F#, 1
	octave 3
	note F#, 1
	octave 5
	note D_, 1
	note E_, 1
	note G#, 1
	octave 3
	note F#, 1
	octave 5
	note C#, 1
	note E_, 1
	note G#, 1
	octave 3
	note F#, 1
	octave 4
	note G#, 1
	octave 5
	note C#, 1
	note E_, 1
	octave 3
	note F#, 1
	octave 4
	note F#, 1
	note A_, 1
	octave 5
	note C#, 1
	octave 3
	note F#, 1
	octave 4
	note F#, 1
	note A_, 1
	octave 5
	note C#, 1
	octave 3
	note F#, 1
	octave 4
	note F#, 1
	note A_, 1
	octave 5
	note C#, 1
	octave 3
	note F#, 1
	octave 4
	note F#, 1
	note A_, 1
	octave 5
	note C#, 1
	octave 3
	note E_, 1
	octave 4
	note B_, 1
	note G#, 1
	note E_, 1
	octave 3
	note E_, 1
	octave 4
	note B_, 1
	note G#, 1
	note E_, 1
	octave 3
	note E_, 1
	octave 4
	note B_, 1
	note G#, 1
	note E_, 1
	octave 3
	note E_, 1
	octave 4
	note B_, 1
	note G#, 1
	note E_, 1
	octave 2
	note B_, 1
	octave 4
	note F#, 1
	note A_, 1
	octave 5
	note C#, 1
	octave 2
	note B_, 1
	octave 4
	note F#, 1
	note A_, 1
	octave 5
	note C#, 1
	octave 2
	note B_, 1
	octave 4
	note F#, 1
	note A_, 1
	octave 5
	note C#, 1
	octave 2
	note B_, 1
	octave 4
	note F#, 1
	note A_, 1
	octave 5
	note C#, 1
	octave 3
	note E_, 1
	octave 4
	note A_, 1
	note F#, 1
	octave 5
	note D_, 1
	octave 3
	note E_, 1
	octave 4
	note A_, 1
	note F#, 1
	octave 5
	note D_, 1
	octave 3
	note E_, 1
	octave 4
	note A_, 1
	note F#, 1
	octave 5
	note D_, 1
	octave 3
	note E_, 1
	octave 4
	note A_, 1
	note F#, 1
	octave 5
	note D_, 1
	octave 2
	note A_, 1
	octave 4
	note E_, 1
	note A_, 1
	octave 5
	note C#, 1
	octave 2
	note A_, 1
	octave 4
	note E_, 1
	note A_, 1
	octave 5
	note C#, 1
	octave 2
	note A_, 1
	octave 4
	note E_, 1
	note A_, 1
	octave 5
	note C#, 1
	octave 2
	note A_, 1
	octave 4
	note E_, 1
	note A_, 1
	octave 5
	note C#, 1
	octave 2
	note B_, 1
	octave 4
	note A_, 1
	note F#, 1
	octave 5
	note D_, 1
	octave 2
	note B_, 1
	octave 4
	note A_, 1
	note F#, 1
	octave 5
	note D_, 1
	octave 2
	note B_, 1
	octave 4
	note A_, 1
	note F#, 1
	octave 5
	note D_, 1
	octave 2
	note B_, 1
	octave 4
	note A_, 1
	note F#, 1
	octave 5
	note D_, 1
	octave 3
	note C#, 1
	octave 4
	note B_, 1
	note G#, 1
	octave 5
	note E_, 1
	octave 3
	note C#, 1
	octave 4
	note B_, 1
	note G#, 1
	octave 5
	note E_, 1
	octave 3
	note C#, 1
	octave 4
	note B_, 1
	note G#, 1
	octave 5
	note E_, 1
	octave 3
	note C#, 1
	octave 4
	note B_, 1
	note G#, 1
	octave 5
	note E_, 1
	octave 3
	note F#, 1
	octave 4
	note G#, 1
	octave 5
	note D_, 1
	note F#, 1
	octave 3
	note F#, 1
	octave 5
	note D_, 1
	note E_, 1
	note G#, 1
	octave 3
	note F#, 1
	octave 5
	note C#, 1
	note E_, 1
	note G#, 1
	octave 3
	note F#, 1
	octave 4
	note G#, 1
	octave 5
	note C#, 1
	note E_, 1
	note F#, 1
	note E_, 1
	note C#, 1
	octave 4
	note A_, 1
	octave 5
	note F#, 1
	note E_, 1
	note C#, 1
	octave 4
	note A_, 1
	octave 5
	note F#, 1
	note E_, 1
	note C#, 1
	octave 4
	note A_, 1
	octave 5
	note F#, 1
	note E_, 1
	note C#, 1
	octave 4
	note A_, 1
	octave 6
	note C#, 1
	octave 5
	note A_, 1
	note F#, 1
	note D_, 1
	octave 6
	note C#, 1
	octave 5
	note A_, 1
	note F#, 1
	note D_, 1
	octave 6
	note C#, 1
	octave 5
	note A_, 1
	note F#, 1
	note D_, 1
	octave 6
	note C#, 1
	octave 5
	note A_, 1
	note F#, 1
	note D_, 1
	note E_, 1
	note C#, 1
	octave 4
	note A_, 1
	note F#, 1
	octave 5
	note E_, 1
	note C#, 1
	octave 4
	note A_, 1
	note F#, 1
	octave 5
	note E_, 1
	note C#, 1
	octave 4
	note A_, 1
	note F#, 1
	octave 5
	note E_, 1
	note C#, 1
	octave 4
	note A_, 1
	note F#, 1
	octave 5
	note E_, 1
	octave 4
	note D_, 1
	note B_, 1
	note G#, 1
	octave 5
	note E_, 1
	octave 4
	note D_, 1
	note B_, 1
	note G#, 1
	octave 5
	note D#, 1
	octave 4
	note D_, 1
	note B_, 1
	note G#, 1
	octave 5
	note E_, 1
	octave 4
	note D#, 1
	note B_, 1
	note_type 3, 2, 6
	note G#, 4
	note_type 12, 2, 6
	octave 5
	note E_, 1
	note C#, 1
	octave 4
	note A_, 1
	note F#, 1
	octave 5
	note E_, 1
	note C#, 1
	octave 4
	note A_, 1
	note F#, 1
	octave 5
	note E_, 1
	note C#, 1
	octave 4
	note A_, 1
	note F#, 1
	octave 5
	note E_, 1
	note C#, 1
	octave 4
	note A_, 1
	note F#, 1
	octave 5
	note C#, 1
	octave 4
	note A_, 1
	note F#, 1
	note D_, 1
	octave 5
	note C#, 1
	octave 4
	note A_, 1
	note F#, 1
	note D_, 1
	octave 5
	note C#, 1
	octave 4
	note A_, 1
	note F#, 1
	note D_, 1
	octave 5
	note C#, 1
	octave 4
	note A_, 1
	note F#, 1
	note D_, 1
	note C#, 1
	note E_, 1
	note G#, 1
	note B_, 1
	note C#, 1
	note E_, 1
	note G#, 1
	note B_, 1
	note C#, 1
	note E_, 1
	note G#, 1
	note B_, 1
	note C#, 1
	note E_, 1
	note G#, 1
	note B_, 1
	octave 5
	note E_, 1
	note G_, 1
	note D_, 1
	octave 4
	note B_, 1
	octave 5
	note E_, 1
	note G_, 1
	note D_, 1
	octave 4
	note B_, 1
	octave 5
	note E_, 1
	note G_, 1
	octave 4
	note B_, 1
	octave 5
	note E_, 1
	note G_, 1
	octave 4
	note B_, 1
	note G#, 1
	note C#, 1
	octave 5
	note G#, 1
	note E_, 1
	note C#, 1
	octave 4
	note A_, 1
	octave 5
	note G#, 1
	note E_, 1
	note C#, 1
	octave 4
	note A_, 1
	octave 5
	note G#, 1
	note E_, 1
	note C#, 1
	octave 4
	note A_, 1
	octave 5
	note G#, 1
	note E_, 1
	note C#, 1
	octave 4
	note A_, 1
	octave 5
	note G#, 1
	note E_, 1
	note C#, 1
	octave 4
	note A_, 1
	octave 5
	note G#, 1
	note E_, 1
	note C#, 1
	octave 4
	note A_, 1
	octave 5
	note G#, 1
	note E_, 1
	note C#, 1
	octave 4
	note A_, 1
	octave 5
	note G#, 1
	note E_, 1
	note C#, 1
	octave 4
	note A_, 1
	octave 5
	note A_, 1
	note E_, 1
	note C#, 1
	octave 4
	note A_, 1
	octave 5
	note A_, 1
	note E_, 1
	note C#, 1
	octave 4
	note A_, 1
	octave 5
	note A_, 1
	note E_, 1
	note C#, 1
	octave 4
	note A_, 1
	octave 5
	note A_, 1
	note E_, 1
	note C#, 1
	octave 4
	note A_, 1
	octave 5
	note A_, 1
	note E_, 1
	note C#, 1
	octave 4
	note A_, 1
	octave 5
	note A_, 1
	note E_, 1
	note C#, 1
	octave 4
	note A_, 1
	octave 5
	note A_, 1
	note E_, 1
	note C#, 1
	octave 4
	note A_, 1
	octave 5
	note A_, 1
	note E_, 1
	note C#, 1
	octave 4
	note A_, 1
	octave 5
	note G#, 1
	note E_, 1
	note C#, 1
	octave 4
	note A_, 1
	octave 5
	note G#, 1
	note E_, 1
	note C#, 1
	octave 4
	note A_, 1
	octave 5
	note G#, 1
	note E_, 1
	note C#, 1
	octave 4
	note A_, 1
	octave 5
	note G#, 1
	note E_, 1
	note C#, 1
	octave 4
	note A_, 1
	octave 5
	note G#, 1
	note E_, 1
	note C#, 1
	octave 4
	note A_, 1
	octave 5
	note G#, 1
	note E_, 1
	note C#, 1
	octave 4
	note A_, 1
	octave 5
	note G#, 1
	note E_, 1
	note C#, 1
	octave 4
	note A_, 1
	octave 5
	note G#, 1
	note E_, 1
	note C#, 1
	octave 4
	note A_, 1
	octave 5
	note G_, 1
	note F#, 1
	note D_, 1
	octave 4
	note B_, 1
	octave 5
	note G_, 1
	note F#, 1
	note D_, 1
	octave 4
	note B_, 1
	octave 5
	note G_, 1
	note F#, 1
	note D_, 1
	octave 4
	note B_, 1
	octave 5
	note G_, 1
	note F#, 1
	note D_, 1
	octave 4
	note B_, 1
	octave 5
	note G_, 1
	note F#, 1
	note D_, 1
	octave 4
	note B_, 1
	octave 5
	note G_, 1
	note F#, 1
	note D_, 1
	octave 4
	note B_, 1
	octave 5
	note G_, 1
	note F#, 1
	note D_, 1
	octave 4
	note B_, 1
	octave 5
	note G_, 1
	note F#, 1
	note D_, 1
	octave 4
	note B_, 1
	sound_jump Music_AKSW_Round1_Ch3_loop

Music_AKSW_Round1_Ch4:
	toggle_noise 1
	drum_speed 12
	rest 1
	drum_note 12, 1
	drum_note 3, 1
	drum_note 3, 1
	drum_note 3, 1
	drum_note 12, 1
	drum_note 3, 1
	drum_note 3, 1
	drum_note 3, 1
	drum_note 12, 1
	drum_note 3, 1
	drum_note 3, 1
	drum_note 3, 1
	drum_note 12, 1
	drum_note 3, 1
	drum_note 3, 1
	drum_note 3, 1
Music_AKSW_Round1_Ch4_loop:
	drum_note 12, 1
	drum_note 12, 1
	drum_note 11, 1
	drum_note 11, 1
	drum_note 3, 1
	drum_note 12, 1
	drum_note 11, 1
	drum_note 11, 1
	drum_note 12, 1
	drum_note 12, 1
	drum_note 11, 1
	drum_note 11, 1
	drum_note 3, 1
	drum_note 11, 1
	drum_note 12, 1
	drum_note 11, 1
	drum_note 12, 1
	drum_note 12, 1
	drum_note 11, 1
	drum_note 11, 1
	drum_note 3, 1
	drum_note 12, 1
	drum_note 11, 1
	drum_note 11, 1
	drum_note 12, 1
	drum_note 12, 1
	drum_note 11, 1
	drum_note 11, 1
	drum_note 3, 1
	drum_note 11, 1
	drum_note 12, 1
	drum_note 11, 1
	drum_note 12, 1
	drum_note 12, 1
	drum_note 11, 1
	drum_note 11, 1
	drum_note 3, 1
	drum_note 12, 1
	drum_note 11, 1
	drum_note 11, 1
	drum_note 12, 1
	drum_note 12, 1
	drum_note 11, 1
	drum_note 11, 1
	drum_note 3, 1
	drum_note 11, 1
	drum_note 12, 1
	drum_note 11, 1
	drum_note 12, 1
	drum_note 12, 1
	drum_note 11, 1
	drum_note 11, 1
	drum_note 3, 1
	drum_note 12, 1
	drum_note 11, 1
	drum_note 11, 1
	drum_note 12, 1
	drum_note 12, 1
	drum_note 11, 1
	drum_note 11, 1
	drum_note 3, 1
	drum_note 11, 1
	drum_note 12, 1
	drum_note 11, 1
	drum_note 12, 1
	drum_note 12, 1
	drum_note 11, 1
	drum_note 11, 1
	drum_note 3, 1
	drum_note 12, 1
	drum_note 11, 1
	drum_note 11, 1
	drum_note 12, 1
	drum_note 12, 1
	drum_note 11, 1
	drum_note 11, 1
	drum_note 3, 1
	drum_note 11, 1
	drum_note 12, 1
	drum_note 11, 1
	drum_note 12, 1
	drum_note 12, 1
	drum_note 11, 1
	drum_note 11, 1
	drum_note 3, 1
	drum_note 12, 1
	drum_note 11, 1
	drum_note 11, 1
	drum_note 12, 1
	drum_note 12, 1
	drum_note 11, 1
	drum_note 11, 1
	drum_note 3, 1
	drum_note 11, 1
	drum_note 12, 1
	drum_note 11, 1
	drum_note 12, 1
	drum_note 12, 1
	drum_note 11, 1
	drum_note 11, 1
	drum_note 3, 1
	drum_note 12, 1
	drum_note 11, 1
	drum_note 11, 1
	drum_note 12, 1
	drum_note 12, 1
	drum_note 11, 1
	drum_note 11, 1
	drum_note 3, 1
	drum_note 11, 1
	drum_note 12, 1
	drum_note 11, 1
	drum_note 12, 1
	drum_note 12, 1
	drum_note 11, 1
	drum_note 11, 1
	drum_note 3, 1
	drum_note 3, 1
	drum_note 11, 1
	drum_note 12, 1
	drum_note 12, 1
	drum_note 12, 1
	drum_note 11, 1
	drum_note 12, 1
	drum_note 3, 1
	drum_note 3, 1
	drum_note 3, 1
	drum_note 3, 1
	drum_note 12, 1
	drum_note 11, 1
	drum_note 11, 1
	drum_note 11, 1
	drum_note 3, 1
	drum_note 12, 1
	drum_note 11, 1
	drum_note 11, 1
	drum_note 12, 1
	drum_note 12, 1
	drum_note 11, 1
	drum_note 11, 1
	drum_note 3, 1
	drum_note 11, 1
	drum_note 12, 1
	drum_note 11, 1
	drum_note 12, 1
	drum_note 11, 1
	drum_note 11, 1
	drum_note 11, 1
	drum_note 3, 1
	drum_note 12, 1
	drum_note 11, 1
	drum_note 11, 1
	drum_note 12, 1
	drum_note 12, 1
	drum_note 11, 1
	drum_note 11, 1
	drum_note 3, 1
	drum_note 11, 1
	drum_note 12, 1
	drum_note 11, 1
	drum_note 12, 1
	drum_note 11, 1
	drum_note 11, 1
	drum_note 11, 1
	drum_note 3, 1
	drum_note 12, 1
	drum_note 11, 1
	drum_note 11, 1
	drum_note 12, 1
	drum_note 12, 1
	drum_note 11, 1
	drum_note 11, 1
	drum_note 3, 1
	drum_note 11, 1
	drum_note 12, 1
	drum_note 11, 1
	drum_note 12, 1
	drum_note 11, 1
	drum_note 11, 1
	drum_note 11, 1
	drum_note 3, 1
	drum_note 12, 1
	drum_note 11, 1
	drum_note 11, 1
	drum_note 12, 1
	drum_note 12, 1
	drum_note 11, 1
	drum_note 11, 1
	drum_note 3, 1
	drum_note 11, 1
	drum_note 12, 1
	drum_note 11, 1
	drum_note 12, 1
	drum_note 11, 1
	drum_note 11, 1
	drum_note 11, 1
	drum_note 3, 1
	drum_note 12, 1
	drum_note 11, 1
	drum_note 11, 1
	drum_note 12, 1
	drum_note 12, 1
	drum_note 11, 1
	drum_note 11, 1
	drum_note 3, 1
	drum_note 11, 1
	drum_note 12, 1
	drum_note 11, 1
	drum_note 12, 1
	drum_note 11, 1
	drum_note 11, 1
	drum_note 11, 1
	drum_note 3, 1
	drum_note 12, 1
	drum_note 11, 1
	drum_note 11, 1
	drum_note 12, 1
	drum_note 12, 1
	drum_note 11, 1
	drum_note 11, 1
	drum_note 3, 1
	drum_note 11, 1
	drum_note 12, 1
	drum_note 11, 1
	drum_note 12, 1
	drum_note 11, 1
	drum_note 11, 1
	drum_note 11, 1
	drum_note 3, 1
	drum_note 12, 1
	drum_note 11, 1
	drum_note 11, 1
	drum_note 12, 1
	drum_note 12, 1
	drum_note 11, 1
	drum_note 11, 1
	drum_note 3, 1
	drum_note 11, 1
	drum_note 12, 1
	drum_note 11, 1
	drum_note 12, 1
	drum_note 12, 1
	drum_note 11, 1
	drum_note 11, 1
	drum_note 3, 1
	drum_note 3, 1
	drum_note 3, 1
	drum_note 11, 1
	drum_note 11, 1
	drum_note 12, 1
	drum_note 3, 1
	drum_note 11, 1
	drum_note 3, 1
	drum_note 3, 1
	drum_note 3, 1
	drum_note 3, 1
	drum_note 12, 1
	drum_note 12, 1
	drum_note 11, 1
	drum_note 11, 1
	drum_note 3, 1
	drum_note 12, 1
	drum_note 11, 1
	drum_note 11, 1
	drum_note 12, 1
	drum_note 12, 1
	drum_note 11, 1
	drum_note 11, 1
	drum_note 3, 1
	drum_note 11, 1
	drum_note 12, 1
	drum_note 11, 1
	drum_note 12, 1
	drum_note 12, 1
	drum_note 11, 1
	drum_note 11, 1
	drum_note 3, 1
	drum_note 12, 1
	drum_note 11, 1
	drum_note 11, 1
	drum_note 12, 1
	drum_note 12, 1
	drum_note 11, 1
	drum_note 11, 1
	drum_note 3, 1
	drum_note 11, 1
	drum_note 12, 1
	drum_note 11, 1
	drum_note 12, 1
	drum_note 12, 1
	drum_note 11, 1
	drum_note 11, 1
	drum_note 3, 1
	drum_note 12, 1
	drum_note 11, 1
	drum_note 11, 1
	drum_note 12, 1
	drum_note 12, 1
	drum_note 11, 1
	drum_note 11, 1
	drum_note 3, 1
	drum_note 11, 1
	drum_note 12, 1
	drum_note 11, 1
	drum_note 12, 1
	drum_note 12, 1
	drum_note 11, 1
	drum_note 11, 1
	drum_note 3, 1
	drum_note 12, 1
	drum_note 11, 1
	drum_note 11, 1
	drum_note 12, 1
	drum_note 12, 1
	drum_note 11, 1
	drum_note 11, 1
	drum_note 3, 1
	drum_note 11, 1
	drum_note 12, 1
	drum_note 11, 1
	drum_note 12, 1
	drum_note 12, 1
	drum_note 11, 1
	drum_note 11, 1
	drum_note 3, 1
	drum_note 12, 1
	drum_note 11, 1
	drum_note 11, 1
	drum_note 12, 1
	drum_note 12, 1
	drum_note 11, 1
	drum_note 11, 1
	drum_note 3, 1
	drum_note 11, 1
	drum_note 12, 1
	drum_note 11, 1
	drum_note 12, 1
	drum_note 12, 1
	drum_note 11, 1
	drum_note 11, 1
	drum_note 3, 1
	drum_note 12, 1
	drum_note 11, 1
	drum_note 11, 1
	drum_note 12, 1
	drum_note 12, 1
	drum_note 11, 1
	drum_note 11, 1
	drum_note 3, 1
	drum_note 11, 1
	drum_note 12, 1
	drum_note 11, 1
	drum_note 12, 1
	drum_note 12, 1
	drum_note 11, 1
	drum_note 11, 1
	drum_note 3, 1
	drum_note 12, 1
	drum_note 11, 1
	drum_note 11, 1
	drum_note 12, 1
	drum_note 12, 1
	drum_note 11, 1
	drum_note 11, 1
	drum_note 3, 1
	drum_note 11, 1
	drum_note 12, 1
	drum_note 11, 1
	drum_note 12, 1
	drum_note 12, 1
	drum_note 11, 1
	drum_note 11, 1
	drum_note 3, 1
	drum_note 3, 1
	drum_note 11, 1
	drum_note 11, 1
	drum_note 12, 1
	drum_note 12, 1
	drum_note 11, 1
	drum_note 12, 1
	drum_note 3, 1
	drum_note 3, 1
	drum_note 3, 1
	drum_note 3, 1
	drum_note 12, 1
	drum_note 11, 1
	drum_note 11, 1
	drum_note 11, 1
	drum_note 3, 1
	drum_note 12, 1
	drum_note 11, 1
	drum_note 11, 1
	drum_note 12, 1
	drum_note 12, 1
	drum_note 11, 1
	drum_note 11, 1
	drum_note 3, 1
	drum_note 11, 1
	drum_note 12, 1
	drum_note 11, 1
	drum_note 12, 1
	drum_note 11, 1
	drum_note 11, 1
	drum_note 11, 1
	drum_note 3, 1
	drum_note 12, 1
	drum_note 11, 1
	drum_note 11, 1
	drum_note 12, 1
	drum_note 12, 1
	drum_note 11, 1
	drum_note 11, 1
	drum_note 3, 1
	drum_note 11, 1
	drum_note 12, 1
	drum_note 11, 1
	drum_note 12, 1
	drum_note 11, 1
	drum_note 11, 1
	drum_note 11, 1
	drum_note 3, 1
	drum_note 12, 1
	drum_note 11, 1
	drum_note 11, 1
	drum_note 12, 1
	drum_note 12, 1
	drum_note 11, 1
	drum_note 11, 1
	drum_note 3, 1
	drum_note 11, 1
	drum_note 12, 1
	drum_note 11, 1
	drum_note 12, 1
	drum_note 11, 1
	drum_note 11, 1
	drum_note 11, 1
	drum_note 3, 1
	drum_note 12, 1
	drum_note 11, 1
	drum_note 11, 1
	drum_note 12, 1
	drum_note 12, 1
	drum_note 11, 1
	drum_note 11, 1
	drum_note 3, 1
	drum_note 11, 1
	drum_note 12, 1
	drum_note 11, 1
	drum_note 12, 1
	drum_note 11, 1
	drum_note 11, 1
	drum_note 11, 1
	drum_note 3, 1
	drum_note 12, 1
	drum_note 11, 1
	drum_note 11, 1
	drum_note 12, 1
	drum_note 12, 1
	drum_note 11, 1
	drum_note 11, 1
	drum_note 3, 1
	drum_note 11, 1
	drum_note 12, 1
	drum_note 11, 1
	drum_note 12, 1
	drum_note 11, 1
	drum_note 11, 1
	drum_note 11, 1
	drum_note 3, 1
	drum_note 12, 1
	drum_note 11, 1
	drum_note 11, 1
	drum_note 12, 1
	drum_note 12, 1
	drum_note 11, 1
	drum_note 11, 1
	drum_note 3, 1
	drum_note 11, 1
	drum_note 12, 1
	drum_note 11, 1
	drum_note 12, 1
	drum_note 11, 1
	drum_note 11, 1
	drum_note 11, 1
	drum_note 3, 1
	drum_note 12, 1
	drum_note 11, 1
	drum_note 11, 1
	drum_note 12, 1
	drum_note 12, 1
	drum_note 11, 1
	drum_note 11, 1
	drum_note 3, 1
	drum_note 11, 1
	drum_note 12, 1
	drum_note 11, 1
	drum_note 12, 1
	drum_note 12, 1
	drum_note 11, 1
	drum_note 11, 1
	drum_note 3, 1
	drum_note 3, 1
	drum_note 3, 1
	drum_note 11, 1
	drum_note 11, 1
	drum_note 12, 1
	drum_note 3, 1
	drum_note 11, 1
	drum_note 3, 1
	drum_note 3, 1
	drum_note 3, 1
	drum_note 3, 1
	sound_jump Music_AKSW_Round1_Ch4_loop
