Music_ShaDanc_Airport:
	channel_count 4
	channel 1, Music_ShaDanc_Airport_Ch1
	channel 2, Music_ShaDanc_Airport_Ch2
	channel 3, Music_ShaDanc_Airport_Ch3
	channel 4, Music_ShaDanc_Airport_Ch4

Music_ShaDanc_Airport_Ch1:
	volume 7, 7
	duty_cycle 1
	note_type 12, 10, 7
	tempo 138
	octave 2
	note F#, 1
	note F#, 1
	note A_, 1
	note F#, 1
	note B_, 1
	note F#, 1
	octave 3
	note C#, 1
	note C#, 1
	note E_, 1
	octave 2
	note F#, 1
	note F#, 1
	octave 3
	note D#, 1
	octave 2
	note F#, 1
	note F#, 1
	octave 3
	note C#, 1
	octave 2
	note F#, 1
	note F#, 1
	note F#, 1
	note A_, 1
	note F#, 1
	note B_, 1
	note F#, 1
	note F#, 1
	note F#, 1
	note A_, 1
	note F#, 1
	note F#, 1
	note E_, 1
	rest 1
	note E_, 1
	note F#, 1
	note F#, 1
	note F#, 1
	note F#, 1
	note A_, 1
	note F#, 1
	note B_, 1
	note F#, 1
	octave 3
	note C#, 1
	note C#, 1
	note E_, 1
	octave 2
	note F#, 1
	note F#, 1
	octave 3
	note D#, 1
	octave 2
	note F#, 1
	note F#, 1
	octave 3
	note C#, 1
	octave 2
	note F#, 1
	note F#, 1
	note F#, 1
	note A_, 1
	note F#, 1
	note B_, 1
	note F#, 1
	note F#, 1
	note F#, 1
	note A_, 1
	note F#, 1
	note F#, 1
	note E_, 1
	rest 1
	note E_, 1
	note F#, 1
	note F#, 1
	note F#, 1
	note F#, 1
	note A_, 1
	note F#, 1
	note B_, 1
	note F#, 1
	octave 3
	note C#, 1
	note C#, 1
	note E_, 1
	octave 2
	note F#, 1
	note F#, 1
	octave 3
	note D#, 1
	octave 2
	note F#, 1
	note F#, 1
	octave 3
	note C#, 1
	octave 2
	note F#, 1
	note F#, 1
	note F#, 1
	note A_, 1
	note F#, 1
	note B_, 1
	note F#, 1
	note F#, 1
	note F#, 1
	note A_, 1
	note F#, 1
	note F#, 1
	note E_, 1
	rest 1
	note E_, 1
	note F#, 1
	note F#, 1
	note F#, 1
	note F#, 1
	note A_, 1
	note F#, 1
	note B_, 1
	note F#, 1
	octave 3
	note C#, 1
	note C#, 1
	note E_, 1
	octave 2
	note F#, 1
	note F#, 1
	octave 3
	note D#, 1
	octave 2
	note F#, 1
	note F#, 1
	octave 3
	note C#, 1
	octave 2
	note F#, 1
	note F#, 1
	note F#, 1
	note A_, 1
	note F#, 1
	note B_, 1
	note F#, 1
	note F#, 1
	note F#, 1
	note A_, 1
	note F#, 1
	note F#, 1
	note E_, 1
	rest 1
	note E_, 1
	note F#, 1
	note F#, 1
Music_ShaDanc_Airport_Ch1_loop:
	note F#, 1
	note F#, 1
	note A_, 1
	note F#, 1
	note B_, 1
	note F#, 1
	octave 3
	note C#, 1
	note C#, 1
	note E_, 1
	octave 2
	note F#, 1
	note F#, 1
	octave 3
	note D#, 1
	octave 2
	note F#, 1
	note F#, 1
	octave 3
	note C#, 1
	octave 2
	note F#, 1
	note F#, 1
	note F#, 1
	note A_, 1
	note F#, 1
	note B_, 1
	note F#, 1
	note F#, 1
	note F#, 1
	note A_, 1
	note F#, 1
	note F#, 1
	note E_, 1
	rest 1
	note E_, 1
	note F#, 1
	note F#, 1
	note F#, 1
	note F#, 1
	note A_, 1
	note F#, 1
	note B_, 1
	note F#, 1
	octave 3
	note C#, 1
	note C#, 1
	note E_, 1
	octave 2
	note F#, 1
	note F#, 1
	octave 3
	note D#, 1
	octave 2
	note F#, 1
	note F#, 1
	octave 3
	note C#, 1
	octave 2
	note F#, 1
	note F#, 1
	note F#, 1
	note A_, 1
	note F#, 1
	note B_, 1
	note F#, 1
	note F#, 1
	note F#, 1
	note A_, 1
	note F#, 1
	note F#, 1
	note E_, 1
	rest 1
	note E_, 1
	note F#, 1
	note F#, 1
	note F#, 1
	note F#, 1
	note A_, 1
	note F#, 1
	note B_, 1
	note F#, 1
	octave 3
	note C#, 1
	note C#, 1
	note E_, 1
	octave 2
	note F#, 1
	note F#, 1
	octave 3
	note D#, 1
	octave 2
	note F#, 1
	note F#, 1
	octave 3
	note C#, 1
	octave 2
	note F#, 1
	note F#, 1
	note F#, 1
	note A_, 1
	note F#, 1
	note B_, 1
	note F#, 1
	note F#, 1
	note F#, 1
	note A_, 1
	note F#, 1
	note F#, 1
	note E_, 1
	rest 1
	note E_, 1
	note F#, 1
	note F#, 1
	note F#, 1
	note F#, 1
	note A_, 1
	note F#, 1
	note B_, 1
	note F#, 1
	octave 3
	note C#, 1
	note C#, 1
	note E_, 1
	octave 2
	note F#, 1
	note F#, 1
	octave 3
	note D#, 1
	octave 2
	note F#, 1
	note F#, 1
	octave 3
	note C#, 1
	octave 2
	note F#, 1
	note F#, 1
	note F#, 1
	note A_, 1
	note F#, 1
	note B_, 1
	note F#, 1
	note F#, 1
	note F#, 1
	note A_, 1
	note F#, 1
	note F#, 1
	note E_, 1
	rest 1
	note E_, 1
	note F#, 1
	note F#, 1
	note F#, 1
	note F#, 1
	note A_, 1
	note F#, 1
	note B_, 1
	note F#, 1
	octave 3
	note C#, 1
	note C#, 1
	note E_, 1
	octave 2
	note F#, 1
	note F#, 1
	octave 3
	note D#, 1
	octave 2
	note F#, 1
	note F#, 1
	octave 3
	note C#, 1
	octave 2
	note F#, 1
	note F#, 1
	note F#, 1
	note A_, 1
	note F#, 1
	note B_, 1
	note F#, 1
	note F#, 1
	note F#, 1
	note A_, 1
	note F#, 1
	note F#, 1
	note E_, 1
	rest 1
	note E_, 1
	note F#, 1
	note F#, 1
	note F#, 1
	note F#, 1
	note A_, 1
	note F#, 1
	note B_, 1
	note F#, 1
	octave 3
	note C#, 1
	note C#, 1
	note E_, 1
	octave 2
	note F#, 1
	note F#, 1
	octave 3
	note D#, 1
	octave 2
	note F#, 1
	note F#, 1
	octave 3
	note C#, 1
	octave 2
	note F#, 1
	note F#, 1
	note F#, 1
	note A_, 1
	note F#, 1
	note B_, 1
	note F#, 1
	note F#, 1
	note F#, 1
	note A_, 1
	note F#, 1
	note F#, 1
	note E_, 1
	rest 1
	note E_, 1
	note F#, 1
	note F#, 1
	note F#, 1
	note F#, 1
	note A_, 1
	note F#, 1
	note B_, 1
	note F#, 1
	octave 3
	note C#, 1
	note C#, 1
	note E_, 1
	octave 2
	note F#, 1
	note F#, 1
	octave 3
	note D#, 1
	octave 2
	note F#, 1
	note F#, 1
	octave 3
	note C#, 1
	octave 2
	note F#, 1
	note F#, 1
	note F#, 1
	note A_, 1
	note F#, 1
	note B_, 1
	note F#, 1
	note F#, 1
	note F#, 1
	note A_, 1
	note F#, 1
	note F#, 1
	note E_, 1
	rest 1
	note E_, 1
	note F#, 1
	note F#, 1
	note F#, 1
	note F#, 1
	note A_, 1
	note F#, 1
	note B_, 1
	note F#, 1
	octave 3
	note C#, 1
	note C#, 1
	note E_, 1
	octave 2
	note F#, 1
	note F#, 1
	octave 3
	note D#, 1
	octave 2
	note F#, 1
	note F#, 1
	octave 3
	note C#, 1
	octave 2
	note F#, 1
	note F#, 1
	note F#, 1
	note A_, 1
	note F#, 1
	note B_, 1
	note F#, 1
	note F#, 1
	note F#, 1
	note A_, 1
	note F#, 1
	note F#, 1
	note E_, 1
	rest 1
	note E_, 1
	note F#, 1
	note F#, 1
	note E_, 1
	note E_, 1
	note G_, 1
	note E_, 1
	note A_, 1
	note E_, 1
	note B_, 1
	note B_, 1
	octave 3
	note D_, 1
	octave 2
	note E_, 1
	note E_, 1
	octave 3
	note C#, 1
	octave 2
	note E_, 1
	note E_, 1
	note B_, 1
	note E_, 1
	note E_, 1
	note E_, 1
	note G_, 1
	note E_, 1
	note A_, 1
	note E_, 1
	note B_, 1
	note B_, 1
	octave 3
	note D_, 1
	octave 2
	note E_, 1
	note E_, 1
	octave 3
	note C#, 1
	octave 2
	note E_, 1
	note E_, 1
	note B_, 1
	note E_, 1
	note F#, 1
	note F#, 1
	note A_, 1
	note F#, 1
	note B_, 1
	note F#, 1
	octave 3
	note C#, 1
	note C#, 1
	note E_, 1
	octave 2
	note F#, 1
	note F#, 1
	octave 3
	note D#, 1
	octave 2
	note F#, 1
	note F#, 1
	octave 3
	note C#, 1
	octave 2
	note F#, 1
	note F#, 1
	note F#, 1
	note A_, 1
	note F#, 1
	note B_, 1
	note F#, 1
	note F#, 1
	note F#, 1
	note A_, 1
	note F#, 1
	note F#, 1
	note E_, 1
	rest 1
	note E_, 1
	note F#, 1
	note F#, 1
	note E_, 1
	note E_, 1
	note G_, 1
	note E_, 1
	note A_, 1
	note E_, 1
	note B_, 1
	note B_, 1
	octave 3
	note D_, 1
	octave 2
	note E_, 1
	note E_, 1
	octave 3
	note C#, 1
	octave 2
	note E_, 1
	note E_, 1
	note B_, 1
	note E_, 1
	note E_, 1
	note E_, 1
	note G_, 1
	note E_, 1
	note A_, 1
	note E_, 1
	note B_, 1
	note B_, 1
	octave 3
	note D_, 1
	octave 2
	note E_, 1
	note E_, 1
	octave 3
	note C#, 1
	octave 2
	note E_, 1
	note E_, 1
	note B_, 1
	note E_, 1
	note F#, 1
	note F#, 1
	note A_, 1
	note F#, 1
	note B_, 1
	note F#, 1
	octave 3
	note C#, 1
	note C#, 1
	note E_, 1
	octave 2
	note F#, 1
	note F#, 1
	octave 3
	note D#, 1
	octave 2
	note F#, 1
	note F#, 1
	octave 3
	note C#, 1
	octave 2
	note F#, 1
	note F#, 1
	note F#, 1
	note A_, 1
	note F#, 1
	note B_, 1
	note F#, 1
	note F#, 1
	note F#, 1
	note A_, 1
	note F#, 1
	note F#, 1
	note E_, 1
	rest 1
	note E_, 1
	note F#, 1
	note F#, 1
	sound_jump Music_ShaDanc_Airport_Ch1_loop

Music_ShaDanc_Airport_Ch2:
	duty_cycle 2
	note_type 12, 11, 7
	octave 4
	note C#, 1
	rest 2
	note C#, 1
	rest 2
	note C#, 1
	rest 1
	note E_, 1
	rest 2
	note D#, 1
	rest 2
	note C#, 1
	rest 1
	note C#, 1
	rest 2
	note C#, 1
	rest 2
	note C#, 1
	rest 1
	octave 3
	note A_, 1
	rest 1
	note G#, 1
	note A_, 1
	rest 4
	octave 4
	note C#, 1
	rest 2
	note C#, 1
	rest 2
	note C#, 1
	rest 1
	note E_, 1
	rest 2
	note D#, 1
	rest 2
	note C#, 1
	rest 1
	note C#, 1
	rest 2
	note C#, 1
	rest 2
	note C#, 1
	rest 1
	octave 3
	note A_, 1
	rest 1
	octave 4
	note G#, 1
	note E_, 1
	rest 4
	note C#, 1
	rest 2
	note C#, 1
	rest 2
	note C#, 1
	rest 1
	note E_, 1
	rest 2
	note D#, 1
	rest 2
	note C#, 1
	rest 1
	note C#, 1
	rest 2
	note C#, 1
	rest 2
	note C#, 1
	rest 1
	octave 3
	note A_, 1
	rest 1
	note G#, 1
	note A_, 1
	rest 4
	octave 4
	note C#, 1
	rest 2
	note C#, 1
	rest 2
	note C#, 1
	rest 1
	note E_, 1
	rest 2
	note D#, 1
	rest 2
	note C#, 1
	rest 1
	note C#, 1
	rest 2
	note C#, 1
	rest 2
	note C#, 1
	rest 1
	octave 3
	note A_, 1
	rest 1
	octave 4
	note G#, 1
	note E_, 1
	rest 4
Music_ShaDanc_Airport_Ch2_loop:
	octave 3
	note F#, 2
	note F#, 2
	note A_, 1
	note F#, 2
	octave 4
	note C#, 4
	rest 3
	note E_, 2
	note D#, 2
	note C#, 2
	note D#, 1
	octave 3
	note B_, 2
	octave 4
	note C#, 4
	rest 5
	octave 3
	note F#, 2
	note F#, 2
	note A_, 1
	note F#, 2
	octave 4
	note C#, 4
	rest 3
	note C#, 2
	octave 3
	note B_, 2
	note A_, 2
	note B_, 1
	octave 4
	note C#, 2
	octave 3
	note A_, 4
	rest 5
	note F#, 2
	note F#, 2
	note A_, 1
	note F#, 2
	octave 4
	note C#, 4
	rest 3
	note E_, 2
	note D#, 2
	note C#, 2
	note D#, 1
	octave 3
	note B_, 2
	octave 4
	note C#, 4
	rest 2
	octave 3
	note A_, 1
	note G#, 1
	note G_, 1
	note F#, 1
	note A_, 1
	octave 4
	note C#, 1
	note E_, 2
	note D#, 1
	note C#, 2
	note D#, 2
	octave 3
	note B_, 1
	octave 4
	note C#, 2
	octave 3
	note F#, 1
	note A_, 1
	octave 4
	note C#, 1
	note E_, 2
	note D#, 2
	note C#, 1
	note D#, 2
	note F#, 4
	rest 5
	octave 3
	note F#, 2
	note F#, 2
	note A_, 1
	note F#, 2
	octave 4
	note C#, 4
	rest 3
	note E_, 2
	note D#, 2
	note C#, 2
	note D#, 1
	octave 3
	note B_, 2
	octave 4
	note C#, 4
	rest 5
	octave 3
	note F#, 2
	note F#, 2
	note A_, 1
	note F#, 2
	octave 4
	note C#, 4
	rest 3
	note C#, 2
	octave 3
	note B_, 2
	note A_, 2
	note B_, 1
	octave 4
	note C#, 2
	octave 3
	note A_, 4
	rest 5
	note F#, 2
	note F#, 2
	note A_, 1
	note F#, 2
	octave 4
	note C#, 4
	rest 3
	note E_, 2
	note D#, 2
	note C#, 2
	note D#, 1
	octave 3
	note B_, 2
	octave 4
	note C#, 4
	rest 2
	octave 3
	note A_, 1
	note G#, 1
	note G_, 1
	note F#, 1
	note A_, 1
	octave 4
	note C#, 1
	note E_, 2
	note D#, 1
	note C#, 2
	note D#, 2
	octave 3
	note B_, 1
	octave 4
	note C#, 2
	octave 3
	note F#, 1
	note A_, 1
	octave 4
	note C#, 1
	note E_, 2
	note D#, 2
	note C#, 1
	note D#, 2
	note F#, 4
	rest 5
	octave 3
	note B_, 1
	rest 2
	note B_, 1
	rest 2
	note B_, 1
	rest 1
	octave 4
	note D_, 1
	rest 2
	note C#, 1
	rest 2
	octave 3
	note B_, 1
	rest 1
	note B_, 1
	rest 2
	note B_, 1
	rest 2
	note B_, 1
	rest 1
	octave 4
	note D_, 1
	rest 2
	note C#, 1
	rest 2
	octave 3
	note B_, 1
	rest 1
	octave 4
	note C#, 1
	rest 2
	note C#, 1
	rest 2
	note C#, 1
	rest 1
	note E_, 1
	rest 2
	note D#, 1
	rest 2
	note C#, 1
	rest 1
	note C#, 1
	rest 2
	note C#, 1
	rest 2
	note C#, 1
	rest 1
	octave 3
	note A_, 1
	rest 1
	note G#, 1
	note A_, 1
	rest 4
	note B_, 1
	rest 2
	note B_, 1
	rest 2
	note B_, 1
	rest 1
	octave 4
	note D_, 1
	rest 2
	note C#, 1
	rest 2
	octave 3
	note B_, 1
	rest 1
	note B_, 1
	rest 2
	note B_, 1
	rest 2
	note B_, 1
	rest 1
	octave 4
	note D_, 1
	rest 2
	note C#, 1
	rest 2
	octave 3
	note B_, 1
	rest 1
	octave 4
	note C#, 1
	rest 2
	note C#, 1
	rest 2
	note C#, 1
	rest 1
	note E_, 1
	rest 2
	note D#, 1
	rest 2
	note C#, 1
	rest 1
	note C#, 1
	rest 2
	note C#, 1
	rest 2
	note C#, 1
	rest 1
	octave 3
	note A_, 1
	rest 1
	octave 4
	note G#, 1
	note E_, 1
	rest 4
	sound_jump Music_ShaDanc_Airport_Ch2_loop

Music_ShaDanc_Airport_Ch3:
	note_type 12, 2, 3
	octave 4
	note A_, 1
	note D#, 1
	octave 3
	note A_, 1
	octave 4
	note A_, 1
	rest 1
	octave 3
	note A_, 1
	octave 4
	note A_, 1
	rest 1
	note B_, 1
	rest 1
	octave 3
	note B_, 1
	octave 4
	note B_, 1
	rest 1
	octave 3
	note A_, 1
	octave 4
	note A_, 1
	rest 1
	note A_, 1
	note D#, 1
	octave 3
	note A_, 1
	octave 4
	note A_, 1
	rest 1
	octave 3
	note A_, 1
	octave 4
	note A_, 1
	rest 1
	note F#, 1
	rest 1
	note E_, 1
	note F#, 1
	rest 4
	note A_, 1
	note D#, 1
	octave 3
	note A_, 1
	octave 4
	note A_, 1
	rest 1
	octave 3
	note A_, 1
	octave 4
	note A_, 1
	rest 1
	note B_, 1
	rest 1
	octave 3
	note B_, 1
	octave 4
	note B_, 1
	rest 1
	octave 3
	note A_, 1
	octave 4
	note A_, 1
	rest 1
	note A_, 1
	note D#, 1
	octave 3
	note A_, 1
	octave 4
	note A_, 1
	rest 1
	octave 3
	note A_, 1
	octave 4
	note A_, 1
	rest 1
	note F#, 1
	rest 1
	octave 5
	note E_, 1
	note C#, 1
	rest 4
	octave 4
	note A_, 1
	note D#, 1
	octave 3
	note A_, 1
	octave 4
	note A_, 1
	rest 1
	octave 3
	note A_, 1
	octave 4
	note A_, 1
	rest 1
	note B_, 1
	rest 1
	octave 3
	note B_, 1
	octave 4
	note B_, 1
	rest 1
	octave 3
	note A_, 1
	octave 4
	note A_, 1
	rest 1
	note A_, 1
	note D#, 1
	octave 3
	note A_, 1
	octave 4
	note A_, 1
	rest 1
	octave 3
	note A_, 1
	octave 4
	note A_, 1
	rest 1
	note F#, 1
	rest 1
	note E_, 1
	note F#, 1
	rest 4
	note A_, 1
	note D#, 1
	octave 3
	note A_, 1
	octave 4
	note A_, 1
	rest 1
	octave 3
	note A_, 1
	octave 4
	note A_, 1
	rest 1
	note B_, 1
	rest 1
	octave 3
	note B_, 1
	octave 4
	note B_, 1
	rest 1
	octave 3
	note A_, 1
	octave 4
	note A_, 1
	rest 1
	note A_, 1
	note D#, 1
	octave 3
	note A_, 1
	octave 4
	note A_, 1
	rest 1
	octave 3
	note A_, 1
	octave 4
	note A_, 1
	rest 1
	note F#, 1
	rest 1
	octave 5
	note E_, 1
	note C#, 1
	rest 4
Music_ShaDanc_Airport_Ch3_loop:
	rest 4
	octave 4
	note F#, 2
	note F#, 2
	note A_, 1
	note F#, 2
	octave 5
	note C#, 4
	rest 3
	note E_, 2
	note D#, 2
	note C#, 2
	note D#, 1
	octave 4
	note B_, 2
	octave 5
	note C#, 4
	rest 5
	octave 4
	note F#, 2
	note F#, 2
	note A_, 1
	note F#, 2
	octave 5
	note C#, 4
	rest 3
	note C#, 2
	octave 4
	note B_, 2
	note A_, 2
	note B_, 1
	octave 5
	note C#, 2
	octave 4
	note A_, 4
	rest 5
	note F#, 2
	note F#, 2
	note A_, 1
	note F#, 2
	octave 5
	note C#, 4
	rest 3
	note E_, 2
	note D#, 2
	note C#, 2
	note D#, 1
	octave 4
	note B_, 2
	octave 5
	note C#, 4
	rest 2
	octave 4
	note A_, 1
	note G#, 1
	note G_, 1
	note F#, 1
	note A_, 1
	octave 5
	note C#, 1
	note E_, 2
	note D#, 1
	note C#, 2
	note D#, 2
	octave 4
	note B_, 1
	octave 5
	note C#, 2
	octave 4
	note F#, 1
	note A_, 1
	octave 5
	note C#, 1
	note E_, 2
	note D#, 2
	note C#, 1
	note D#, 2
	note F#, 4
	rest 5
	octave 4
	note F#, 2
	note F#, 2
	note A_, 1
	note F#, 2
	octave 5
	note C#, 4
	rest 3
	note E_, 2
	note D#, 2
	note C#, 2
	note D#, 1
	octave 4
	note B_, 2
	octave 5
	note C#, 4
	rest 5
	octave 4
	note F#, 2
	note F#, 2
	note A_, 1
	note F#, 2
	octave 5
	note C#, 4
	rest 3
	note C#, 2
	octave 4
	note B_, 2
	note A_, 2
	note B_, 1
	octave 5
	note C#, 2
	octave 4
	note A_, 4
	rest 5
	note F#, 2
	note F#, 2
	note A_, 1
	note F#, 2
	octave 5
	note C#, 4
	rest 3
	note E_, 2
	note D#, 2
	note C#, 2
	note D#, 1
	octave 4
	note B_, 2
	octave 5
	note C#, 4
	rest 2
	octave 4
	note A_, 1
	note G#, 1
	note G_, 1
	note F#, 1
	note A_, 1
	octave 5
	note C#, 1
	note E_, 2
	note D#, 1
	note C#, 2
	note D#, 2
	octave 4
	note B_, 1
	octave 5
	note C#, 2
	octave 4
	note F#, 1
	note A_, 1
	octave 5
	note C#, 1
	note E_, 2
	note D#, 2
	note C#, 1
	note D#, 2
	note F#, 4
	rest 1
	octave 4
	note G_, 1
	note C#, 1
	octave 3
	note G_, 1
	octave 4
	note G_, 1
	rest 1
	octave 3
	note G_, 1
	octave 4
	note G_, 1
	rest 1
	note A_, 1
	rest 1
	octave 3
	note A_, 1
	octave 4
	note A_, 1
	rest 1
	octave 3
	note G_, 1
	octave 4
	note G_, 1
	rest 1
	note G_, 1
	note C#, 1
	octave 3
	note G_, 1
	octave 4
	note G_, 1
	rest 1
	octave 3
	note G_, 1
	octave 4
	note G_, 1
	rest 1
	note A_, 1
	rest 1
	octave 3
	note A_, 1
	octave 4
	note A_, 1
	rest 1
	octave 3
	note G_, 1
	octave 4
	note G_, 1
	rest 1
	note A_, 1
	note D#, 1
	octave 3
	note A_, 1
	octave 4
	note A_, 1
	rest 1
	octave 3
	note A_, 1
	octave 4
	note A_, 1
	rest 1
	note B_, 1
	rest 1
	octave 3
	note B_, 1
	octave 4
	note B_, 1
	rest 1
	octave 3
	note A_, 1
	octave 4
	note A_, 1
	rest 1
	note A_, 1
	note D#, 1
	octave 3
	note A_, 1
	octave 4
	note A_, 1
	rest 1
	octave 3
	note A_, 1
	octave 4
	note A_, 1
	rest 1
	note F#, 1
	rest 1
	note E_, 1
	note F#, 1
	rest 4
	note G_, 1
	note C#, 1
	octave 3
	note G_, 1
	octave 4
	note G_, 1
	rest 1
	octave 3
	note G_, 1
	octave 4
	note G_, 1
	rest 1
	note A_, 1
	rest 1
	octave 3
	note A_, 1
	octave 4
	note A_, 1
	rest 1
	octave 3
	note G_, 1
	octave 4
	note G_, 1
	rest 1
	note G_, 1
	note C#, 1
	octave 3
	note G_, 1
	octave 4
	note G_, 1
	rest 1
	octave 3
	note G_, 1
	octave 4
	note G_, 1
	rest 1
	note A_, 1
	rest 1
	octave 3
	note A_, 1
	octave 4
	note A_, 1
	rest 1
	octave 3
	note G_, 1
	octave 4
	note G_, 1
	rest 1
	note A_, 1
	note D#, 1
	octave 3
	note A_, 1
	octave 4
	note A_, 1
	rest 1
	octave 3
	note A_, 1
	octave 4
	note A_, 1
	rest 1
	note B_, 1
	rest 1
	octave 3
	note B_, 1
	octave 4
	note B_, 1
	rest 1
	octave 3
	note A_, 1
	octave 4
	note A_, 1
	rest 1
	note A_, 1
	note D#, 1
	octave 3
	note A_, 1
	octave 4
	note A_, 1
	rest 1
	octave 3
	note A_, 1
	octave 4
	note A_, 1
	rest 1
	note F#, 1
	rest 1
	octave 5
	note E_, 1
	note C#, 1
	rest 4
	sound_jump Music_ShaDanc_Airport_Ch3_loop

Music_ShaDanc_Airport_Ch4:
	toggle_noise 1
	drum_speed 12
	drum_note 10, 2
	drum_note 10, 2
	drum_note 3, 2
	drum_note 10, 2
	drum_note 10, 1
	drum_note 10, 1
	drum_note 10, 2
	drum_note 3, 2
	drum_note 10, 1
	drum_note 10, 1
	drum_note 10, 2
	drum_note 10, 2
	drum_note 3, 2
	drum_note 10, 2
	drum_note 10, 1
	drum_note 3, 1
	drum_note 10, 1
	drum_note 10, 1
	drum_note 3, 2
	drum_note 10, 2
	drum_note 10, 2
	drum_note 10, 2
	drum_note 3, 2
	drum_note 10, 2
	drum_note 10, 1
	drum_note 10, 1
	drum_note 10, 2
	drum_note 3, 2
	drum_note 10, 1
	drum_note 10, 1
	drum_note 10, 2
	drum_note 10, 2
	drum_note 3, 2
	drum_note 10, 2
	drum_note 10, 1
	drum_note 3, 1
	drum_note 10, 1
	drum_note 10, 1
	drum_note 3, 2
	drum_note 10, 2
	drum_note 10, 2
	drum_note 10, 2
	drum_note 3, 2
	drum_note 10, 2
	drum_note 10, 1
	drum_note 10, 1
	drum_note 10, 2
	drum_note 3, 2
	drum_note 10, 1
	drum_note 10, 1
	drum_note 10, 2
	drum_note 10, 2
	drum_note 3, 2
	drum_note 10, 2
	drum_note 10, 1
	drum_note 3, 1
	drum_note 10, 1
	drum_note 10, 1
	drum_note 3, 2
	drum_note 10, 2
	drum_note 10, 2
	drum_note 10, 2
	drum_note 3, 2
	drum_note 10, 2
	drum_note 10, 1
	drum_note 10, 1
	drum_note 10, 2
	drum_note 3, 2
	drum_note 10, 1
	drum_note 10, 1
	drum_note 10, 2
	drum_note 10, 2
	drum_note 3, 2
	drum_note 10, 2
	drum_note 10, 1
	drum_note 3, 1
	drum_note 10, 1
	drum_note 10, 1
	drum_note 3, 2
	drum_note 10, 2
Music_ShaDanc_Airport_Ch4_loop:
	drum_note 10, 2
	drum_note 10, 2
	drum_note 3, 2
	drum_note 10, 2
	drum_note 10, 1
	drum_note 10, 1
	drum_note 10, 2
	drum_note 3, 2
	drum_note 10, 1
	drum_note 10, 1
	drum_note 10, 2
	drum_note 10, 2
	drum_note 3, 2
	drum_note 10, 2
	drum_note 10, 1
	drum_note 3, 1
	drum_note 10, 1
	drum_note 10, 1
	drum_note 3, 2
	drum_note 10, 2
	drum_note 10, 2
	drum_note 10, 2
	drum_note 3, 2
	drum_note 10, 2
	drum_note 10, 1
	drum_note 10, 1
	drum_note 10, 2
	drum_note 3, 2
	drum_note 10, 1
	drum_note 10, 1
	drum_note 10, 2
	drum_note 10, 2
	drum_note 3, 2
	drum_note 10, 2
	drum_note 10, 1
	drum_note 3, 1
	drum_note 10, 1
	drum_note 10, 1
	drum_note 3, 2
	drum_note 10, 2
	drum_note 10, 2
	drum_note 10, 2
	drum_note 3, 2
	drum_note 10, 2
	drum_note 10, 1
	drum_note 10, 1
	drum_note 10, 2
	drum_note 3, 2
	drum_note 10, 1
	drum_note 10, 1
	drum_note 10, 2
	drum_note 10, 2
	drum_note 3, 2
	drum_note 10, 2
	drum_note 10, 1
	drum_note 3, 1
	drum_note 10, 1
	drum_note 10, 1
	drum_note 3, 2
	drum_note 10, 2
	drum_note 10, 2
	drum_note 10, 2
	drum_note 3, 2
	drum_note 10, 2
	drum_note 10, 1
	drum_note 10, 1
	drum_note 10, 2
	drum_note 3, 2
	drum_note 10, 1
	drum_note 10, 1
	drum_note 10, 2
	drum_note 10, 2
	drum_note 3, 2
	drum_note 10, 2
	drum_note 10, 1
	drum_note 3, 1
	drum_note 10, 1
	drum_note 10, 1
	drum_note 3, 2
	drum_note 10, 2
	drum_note 10, 2
	drum_note 10, 2
	drum_note 3, 2
	drum_note 10, 2
	drum_note 10, 1
	drum_note 10, 1
	drum_note 10, 2
	drum_note 3, 2
	drum_note 10, 1
	drum_note 10, 1
	drum_note 10, 2
	drum_note 10, 2
	drum_note 3, 2
	drum_note 10, 2
	drum_note 10, 1
	drum_note 3, 1
	drum_note 10, 1
	drum_note 10, 1
	drum_note 3, 2
	drum_note 10, 2
	drum_note 10, 2
	drum_note 10, 2
	drum_note 3, 2
	drum_note 10, 2
	drum_note 10, 1
	drum_note 10, 1
	drum_note 10, 2
	drum_note 3, 2
	drum_note 10, 1
	drum_note 10, 1
	drum_note 10, 2
	drum_note 10, 2
	drum_note 3, 2
	drum_note 10, 2
	drum_note 10, 1
	drum_note 3, 1
	drum_note 10, 1
	drum_note 10, 1
	drum_note 3, 2
	drum_note 10, 2
	drum_note 10, 2
	drum_note 10, 2
	drum_note 3, 2
	drum_note 10, 2
	drum_note 10, 1
	drum_note 10, 1
	drum_note 10, 2
	drum_note 3, 2
	drum_note 10, 1
	drum_note 10, 1
	drum_note 10, 2
	drum_note 10, 2
	drum_note 3, 2
	drum_note 10, 2
	drum_note 10, 1
	drum_note 3, 1
	drum_note 10, 1
	drum_note 10, 1
	drum_note 3, 2
	drum_note 10, 2
	drum_note 10, 2
	drum_note 10, 2
	drum_note 3, 2
	drum_note 10, 2
	drum_note 10, 1
	drum_note 10, 1
	drum_note 10, 2
	drum_note 3, 2
	drum_note 10, 1
	drum_note 10, 1
	drum_note 10, 2
	drum_note 10, 2
	drum_note 3, 2
	drum_note 10, 2
	drum_note 10, 1
	drum_note 3, 1
	drum_note 10, 1
	drum_note 10, 1
	drum_note 3, 2
	drum_note 10, 2
	drum_note 10, 2
	drum_note 10, 2
	drum_note 3, 2
	drum_note 10, 2
	drum_note 10, 1
	drum_note 10, 1
	drum_note 10, 2
	drum_note 3, 2
	drum_note 10, 1
	drum_note 10, 1
	drum_note 10, 2
	drum_note 10, 2
	drum_note 3, 2
	drum_note 10, 2
	drum_note 10, 1
	drum_note 3, 1
	drum_note 10, 1
	drum_note 10, 1
	drum_note 3, 2
	drum_note 10, 2
	drum_note 10, 2
	drum_note 10, 2
	drum_note 3, 2
	drum_note 10, 2
	drum_note 10, 1
	drum_note 10, 1
	drum_note 10, 2
	drum_note 3, 2
	drum_note 10, 1
	drum_note 10, 1
	drum_note 10, 2
	drum_note 10, 2
	drum_note 3, 2
	drum_note 10, 2
	drum_note 10, 1
	drum_note 3, 1
	drum_note 10, 1
	drum_note 10, 1
	drum_note 3, 2
	drum_note 10, 2
	drum_note 10, 2
	drum_note 10, 2
	drum_note 3, 2
	drum_note 10, 2
	drum_note 10, 1
	drum_note 10, 1
	drum_note 10, 2
	drum_note 3, 2
	drum_note 10, 1
	drum_note 10, 1
	drum_note 10, 2
	drum_note 10, 2
	drum_note 3, 2
	drum_note 10, 2
	drum_note 10, 1
	drum_note 3, 1
	drum_note 10, 1
	drum_note 10, 1
	drum_note 3, 2
	drum_note 10, 2
	drum_note 10, 2
	drum_note 10, 2
	drum_note 3, 2
	drum_note 10, 2
	drum_note 10, 1
	drum_note 10, 1
	drum_note 10, 2
	drum_note 3, 2
	drum_note 10, 1
	drum_note 10, 1
	drum_note 10, 2
	drum_note 10, 2
	drum_note 3, 2
	drum_note 10, 2
	drum_note 10, 1
	drum_note 3, 1
	drum_note 10, 1
	drum_note 10, 1
	drum_note 3, 2
	drum_note 10, 2
	sound_jump Music_ShaDanc_Airport_Ch4_loop
