Music_ESwat_Boss2:
	channel_count 4
	channel 1, Music_ESwat_Boss2_Ch1
	channel 2, Music_ESwat_Boss2_Ch2
	channel 3, Music_ESwat_Boss2_Ch3
	channel 4, Music_ESwat_Boss2_Ch4

Music_ESwat_Boss2_Ch1:
	volume 7, 7
	duty_cycle 1
	tempo 157
	note_type 12, 10, 7
	rest 1
Music_ESwat_Boss2_Ch1_loop:
	note_type 12, 10, 7
	octave 2
	note D_, 1
	octave 3
	note D_, 1
	octave 2
	note D_, 1
	note D_, 1
	octave 3
	note C_, 1
	octave 2
	note D_, 1
	note D_, 1
	octave 3
	note F_, 1
	octave 2
	note D_, 1
	note D_, 1
	octave 3
	note D_, 1
	octave 2
	note D_, 1
	note D_, 1
	note D_, 1
	octave 3
	note C_, 1
	note D_, 1
	octave 2
	note D_, 1
	octave 3
	note D_, 1
	octave 2
	note D_, 1
	note D_, 1
	octave 3
	note C_, 1
	octave 2
	note D_, 1
	note D_, 1
	octave 3
	note F_, 1
	octave 2
	note D_, 1
	note D_, 1
	octave 3
	note D_, 1
	octave 2
	note D_, 1
	note D_, 1
	note D_, 1
	octave 3
	note C_, 1
	note D_, 1
	octave 2
	note D_, 1
	octave 3
	note D_, 1
	octave 2
	note D_, 1
	note D_, 1
	octave 3
	note C_, 1
	octave 2
	note D_, 1
	note D_, 1
	octave 3
	note F_, 1
	octave 2
	note D_, 1
	note D_, 1
	octave 3
	note D_, 1
	octave 2
	note D_, 1
	note D_, 1
	note D_, 1
	octave 3
	note C_, 1
	note D_, 1
	octave 2
	note D_, 1
	octave 3
	note D_, 1
	octave 2
	note D_, 1
	note D_, 1
	octave 3
	note C_, 1
	octave 2
	note D_, 1
	note D_, 1
	octave 3
	note F_, 1
	octave 2
	note D_, 1
	note D_, 1
	octave 3
	note D_, 1
	octave 2
	note D_, 1
	note D_, 1
	note D_, 1
	octave 3
	note C_, 1
	note D_, 1
	octave 2
	note D_, 1
	octave 3
	note D_, 1
	octave 2
	note D_, 1
	note D_, 1
	octave 3
	note C_, 1
	octave 2
	note D_, 1
	note D_, 1
	octave 3
	note F_, 1
	octave 2
	note D_, 1
	note D_, 1
	octave 3
	note D_, 1
	octave 2
	note D_, 1
	note D_, 1
	note D_, 1
	octave 3
	note C_, 1
	note D_, 1
	octave 2
	note D_, 1
	octave 3
	note D_, 1
	octave 2
	note D_, 1
	note D_, 1
	octave 3
	note C_, 1
	octave 2
	note D_, 1
	note D_, 1
	octave 3
	note F_, 1
	octave 2
	note D_, 1
	note D_, 1
	octave 3
	note D_, 1
	octave 2
	note D_, 1
	note D_, 1
	note D_, 1
	octave 3
	note C_, 1
	note D_, 1
	octave 2
	note D_, 1
	octave 3
	note D_, 1
	octave 2
	note D_, 1
	note D_, 1
	octave 3
	note C_, 1
	octave 2
	note D_, 1
	note D_, 1
	octave 3
	note F_, 1
	octave 2
	note D_, 1
	note D_, 1
	octave 3
	note D_, 1
	octave 2
	note D_, 1
	note D_, 1
	note D_, 1
	octave 3
	note C_, 1
	note D_, 1
	octave 2
	note D_, 1
	octave 3
	note D_, 1
	octave 2
	note D_, 1
	note D_, 1
	octave 3
	note C_, 1
	octave 2
	note D_, 1
	note D_, 1
	octave 3
	note F_, 1
	octave 2
	note D_, 1
	note D_, 1
	octave 3
	note D_, 1
	octave 2
	note D_, 1
	note D_, 1
	note D_, 1
	octave 3
	note C_, 1
	note D_, 1
	octave 2
	note D_, 1
	octave 3
	note D_, 1
	octave 2
	note D_, 1
	note D_, 1
	octave 3
	note D_, 1
	octave 2
	note D_, 1
	note D_, 1
	octave 3
	note D_, 1
	octave 2
	note D_, 1
	octave 3
	note D_, 1
	octave 2
	note D_, 1
	note D_, 1
	octave 3
	note D_, 1
	octave 2
	note D_, 1
	note D_, 1
	octave 3
	note D_, 1
	octave 1
	note A_, 1
	octave 2
	note A_, 1
	octave 1
	note A_, 1
	note A_, 1
	octave 2
	note A_, 1
	octave 1
	note A_, 1
	note A_, 1
	octave 2
	note A_, 1
	octave 1
	note A_, 1
	octave 2
	note A_, 1
	octave 1
	note A_, 1
	note A_, 1
	octave 2
	note A_, 1
	octave 1
	note A_, 1
	note A_, 1
	octave 2
	note A_, 1
	note D_, 1
	octave 3
	note D_, 1
	octave 2
	note D_, 1
	note D_, 1
	octave 3
	note D_, 1
	octave 2
	note D_, 1
	note D_, 1
	octave 3
	note D_, 1
	octave 2
	note D_, 1
	octave 3
	note D_, 1
	octave 2
	note D_, 1
	note D_, 1
	octave 3
	note D_, 1
	octave 2
	note D_, 1
	note D_, 1
	octave 3
	note D_, 1
	octave 1
	note A_, 1
	octave 2
	note A_, 1
	octave 1
	note A_, 1
	note A_, 1
	octave 2
	note A_, 1
	octave 1
	note A_, 1
	note A_, 1
	octave 2
	note A_, 1
	octave 1
	note A_, 1
	octave 2
	note A_, 1
	octave 1
	note A_, 1
	note A_, 1
	octave 2
	note A_, 1
	octave 1
	note A_, 1
	note A_, 1
	octave 2
	note A_, 1
	note D_, 1
	octave 3
	note D_, 1
	octave 2
	note D_, 1
	note D_, 1
	octave 3
	note D_, 1
	octave 2
	note D_, 1
	note D_, 1
	octave 3
	note D_, 1
	octave 2
	note D_, 1
	octave 3
	note D_, 1
	octave 2
	note D_, 1
	note D_, 1
	octave 3
	note D_, 1
	octave 2
	note D_, 1
	note D_, 1
	octave 3
	note D_, 1
	octave 1
	note A_, 1
	octave 2
	note A_, 1
	octave 1
	note A_, 1
	note A_, 1
	octave 2
	note A_, 1
	octave 1
	note A_, 1
	note A_, 1
	octave 2
	note A_, 1
	octave 1
	note A_, 1
	octave 2
	note A_, 1
	octave 1
	note A_, 1
	note A_, 1
	octave 2
	note A_, 1
	octave 1
	note A_, 1
	note A_, 1
	octave 2
	note A_, 1
	note D_, 1
	octave 3
	note D_, 1
	octave 2
	note D_, 1
	note D_, 1
	octave 3
	note D_, 1
	octave 2
	note D_, 1
	note D_, 1
	octave 3
	note D_, 1
	octave 2
	note D_, 1
	octave 3
	note D_, 1
	octave 2
	note D_, 1
	note D_, 1
	octave 3
	note D_, 1
	octave 2
	note D_, 1
	note D_, 1
	octave 3
	note D_, 1
	octave 1
	note A_, 1
	octave 2
	note A_, 1
	octave 1
	note A_, 1
	note A_, 1
	octave 2
	note A_, 1
	octave 1
	note A_, 1
	note A_, 1
	octave 2
	note A_, 1
	octave 1
	note A_, 1
	octave 2
	note A_, 1
	octave 1
	note A_, 1
	note A_, 1
	octave 2
	note A_, 1
	octave 1
	note A_, 1
	note A_, 1
	octave 2
	note A_, 1
	note D_, 8
	note A_, 4
	octave 3
	note D_, 4
	note C#, 8
	octave 2
	note A_, 4
	octave 3
	note C_, 4
	octave 2
	note B_, 8
	note G_, 4
	note B_, 4
	note A#, 8
	note A_, 4
	note C#, 4
	note D_, 8
	note A_, 4
	octave 3
	note D_, 4
	note C#, 8
	octave 2
	note A_, 4
	octave 3
	note C_, 4
	octave 2
	note B_, 8
	note G_, 4
	note B_, 4
	note A#, 8
	note A_, 4
	note C#, 4
	note D_, 1
	octave 3
	note D_, 1
	octave 2
	note D_, 1
	note D_, 1
	octave 3
	note D_, 1
	octave 2
	note D_, 1
	note D_, 1
	octave 3
	note D_, 1
	octave 2
	note D_, 1
	octave 3
	note D_, 1
	octave 2
	note D_, 1
	note D_, 1
	octave 3
	note D_, 1
	octave 2
	note D_, 1
	note D_, 1
	octave 3
	note D_, 1
	octave 1
	note A_, 1
	octave 2
	note A_, 1
	octave 1
	note A_, 1
	note A_, 1
	octave 2
	note A_, 1
	octave 1
	note A_, 1
	note A_, 1
	octave 2
	note A_, 1
	octave 1
	note A_, 1
	octave 2
	note A_, 1
	octave 1
	note A_, 1
	note A_, 1
	octave 2
	note A_, 1
	octave 1
	note A_, 1
	note A_, 1
	octave 2
	note A_, 1
	note D_, 1
	octave 3
	note D_, 1
	octave 2
	note D_, 1
	note D_, 1
	octave 3
	note D_, 1
	octave 2
	note D_, 1
	note D_, 1
	octave 3
	note D_, 1
	octave 2
	note D_, 1
	octave 3
	note D_, 1
	octave 2
	note D_, 1
	note D_, 1
	octave 3
	note D_, 1
	octave 2
	note D_, 1
	note D_, 1
	octave 3
	note D_, 1
	octave 1
	note A_, 1
	octave 2
	note A_, 1
	octave 1
	note A_, 1
	note A_, 1
	octave 2
	note A_, 1
	octave 1
	note A_, 1
	note A_, 1
	octave 2
	note A_, 1
	octave 1
	note A_, 1
	octave 2
	note A_, 1
	octave 1
	note A_, 1
	note A_, 1
	octave 2
	note A_, 1
	octave 1
	note A_, 1
	note A_, 1
	octave 2
	note A_, 1
	note D_, 1
	octave 3
	note D_, 1
	octave 2
	note D_, 1
	note D_, 1
	octave 3
	note D_, 1
	octave 2
	note D_, 1
	note D_, 1
	octave 3
	note D_, 1
	octave 2
	note D_, 1
	octave 3
	note D_, 1
	octave 2
	note D_, 1
	note D_, 1
	octave 3
	note D_, 1
	octave 2
	note D_, 1
	note D_, 1
	octave 3
	note D_, 1
	octave 1
	note A_, 1
	octave 2
	note A_, 1
	octave 1
	note A_, 1
	note A_, 1
	octave 2
	note A_, 1
	octave 1
	note A_, 1
	note A_, 1
	octave 2
	note A_, 1
	octave 1
	note A_, 1
	octave 2
	note A_, 1
	octave 1
	note A_, 1
	note A_, 1
	octave 2
	note A_, 1
	octave 1
	note A_, 1
	note A_, 1
	octave 2
	note A_, 1
	note D_, 1
	octave 3
	note D_, 1
	octave 2
	note D_, 1
	note D_, 1
	octave 3
	note D_, 1
	octave 2
	note D_, 1
	note D_, 1
	octave 3
	note D_, 1
	octave 2
	note D_, 1
	octave 3
	note D_, 1
	octave 2
	note D_, 1
	note D_, 1
	octave 3
	note D_, 1
	octave 2
	note D_, 1
	note D_, 1
	octave 3
	note D_, 1
	octave 1
	note A_, 1
	octave 2
	note A_, 1
	octave 1
	note A_, 1
	note A_, 1
	octave 2
	note A_, 1
	octave 1
	note A_, 1
	note A_, 1
	octave 2
	note A_, 1
	octave 1
	note A_, 1
	octave 2
	note A_, 1
	octave 1
	note A_, 1
	note A_, 1
	octave 2
	note A_, 1
	octave 1
	note A_, 1
	note A_, 1
	octave 2
	note A_, 1
	sound_jump Music_ESwat_Boss2_Ch1_loop

Music_ESwat_Boss2_Ch2:
	duty_cycle 2
	note_type 12, 11, 7
	rest 1
Music_ESwat_Boss2_Ch2_loop:
	note_type 12, 10, 7
	octave 4
	note A_, 16
	note A_, 4
	note A#, 4
	note_type 8, 10, 7
	octave 5
	note C#, 4
	octave 4
	note A#, 4
	note G_, 4
	note_type 12, 10, 7
	note A_, 16
	note G_, 16
	note A_, 16
	note A_, 4
	note A#, 4
	note_type 8, 10, 7
	octave 5
	note C#, 4
	note D_, 4
	note E_, 4
	note_type 12, 10, 7
	note D_, 16
	note E_, 16
	note F_, 8
	note_type 8, 10, 7
	note A_, 4
	octave 6
	note D_, 4
	note C#, 4
	note_type 12, 10, 7
	octave 5
	note A_, 8
	note_type 8, 10, 7
	note G_, 4
	note A_, 4
	note E_, 4
	note_type 12, 10, 7
	note F_, 8
	note_type 8, 10, 7
	note F_, 4
	note G_, 4
	note C#, 4
	note_type 12, 10, 7
	note E_, 8
	note_type 8, 10, 7
	note E_, 4
	note F_, 4
	note E_, 4
	note_type 12, 10, 7
	note D_, 4
	note F_, 4
	note_type 8, 10, 7
	note A_, 4
	octave 6
	note D_, 4
	note C#, 4
	note_type 12, 10, 7
	octave 5
	note A_, 8
	note_type 8, 10, 7
	note G_, 4
	note A_, 4
	note E_, 4
	note_type 12, 10, 7
	note F_, 8
	note_type 8, 10, 7
	note F_, 4
	note G_, 4
	note C#, 4
	note_type 12, 10, 7
	note E_, 8
	note_type 8, 10, 7
	note E_, 4
	note F_, 4
	note E_, 4
	note_type 12, 10, 7
	note D_, 1
	note C_, 1
	note D_, 1
	octave 4
	note A_, 1
	octave 5
	note F_, 1
	note E_, 1
	note D_, 1
	note F_, 1
	note E_, 1
	note C_, 1
	octave 4
	note A_, 1
	octave 5
	note E_, 1
	note D_, 1
	octave 4
	note A_, 1
	note F_, 1
	note A_, 1
	note A_, 1
	octave 5
	note C#, 1
	note D_, 1
	note C#, 1
	octave 4
	note A#, 1
	note A_, 1
	note F_, 1
	note G_, 1
	note F_, 1
	note E_, 1
	note D_, 1
	note C#, 1
	note F_, 1
	note A_, 1
	note A_, 1
	octave 5
	note D_, 1
	note E_, 1
	note F_, 1
	note E_, 1
	octave 4
	note B_, 1
	note A_, 1
	note E_, 1
	note F_, 1
	note B_, 1
	note A_, 1
	note E_, 1
	note F_, 1
	note B_, 1
	octave 5
	note E_, 1
	octave 4
	note B_, 1
	note A_, 1
	note F_, 1
	note F_, 1
	note E_, 1
	note D_, 1
	octave 3
	note A_, 1
	octave 4
	note D_, 1
	note E_, 1
	note F_, 1
	note A#, 1
	octave 5
	note D_, 1
	octave 4
	note F_, 1
	note A#, 1
	octave 5
	note D_, 1
	octave 4
	note F_, 1
	note A#, 1
	octave 5
	note D_, 1
	octave 4
	note F_, 1
	octave 5
	note D_, 1
	note C_, 1
	note D_, 1
	octave 4
	note A_, 1
	octave 5
	note F_, 1
	note E_, 1
	note D_, 1
	note F_, 1
	note E_, 1
	note C_, 1
	octave 4
	note A_, 1
	octave 5
	note E_, 1
	note D_, 1
	octave 4
	note A_, 1
	note F_, 1
	note A_, 1
	note A_, 1
	octave 5
	note C#, 1
	note D_, 1
	note C#, 1
	octave 4
	note A#, 1
	note A_, 1
	note F_, 1
	note G_, 1
	note F_, 1
	note E_, 1
	note D_, 1
	note C#, 1
	note F_, 1
	note A_, 1
	note A_, 1
	octave 5
	note D_, 1
	note E_, 1
	note F_, 1
	note E_, 1
	octave 4
	note B_, 1
	note A_, 1
	note E_, 1
	note F_, 1
	note B_, 1
	note A_, 1
	note E_, 1
	note F_, 1
	note B_, 1
	octave 5
	note E_, 1
	octave 4
	note B_, 1
	note A_, 1
	note F_, 1
	note F_, 1
	note E_, 1
	note D_, 1
	octave 3
	note A_, 1
	octave 4
	note D_, 1
	note E_, 1
	note F_, 1
	note A#, 1
	octave 5
	note D_, 1
	octave 4
	note F_, 1
	note A#, 1
	octave 5
	note D_, 1
	octave 4
	note F_, 1
	note A#, 1
	octave 5
	note D_, 1
	octave 4
	note F_, 1
	octave 5
	note F_, 8
	note_type 8, 10, 7
	note A_, 4
	octave 6
	note D_, 4
	note C#, 4
	note_type 12, 10, 7
	octave 5
	note A_, 8
	note_type 8, 10, 7
	note G_, 4
	note A_, 4
	note E_, 4
	note_type 12, 10, 7
	note F_, 8
	note_type 8, 10, 7
	note F_, 4
	note G_, 4
	note C#, 4
	note_type 12, 10, 7
	note E_, 8
	note_type 8, 10, 7
	note E_, 4
	note F_, 4
	note E_, 4
	note_type 12, 10, 7
	note D_, 4
	note F_, 4
	note_type 8, 10, 7
	note A_, 4
	octave 6
	note D_, 4
	note C#, 4
	note_type 12, 10, 7
	octave 5
	note A_, 8
	note_type 8, 10, 7
	note G_, 4
	note A_, 4
	note E_, 4
	note_type 12, 10, 7
	note F_, 8
	note_type 8, 10, 7
	note F_, 4
	note G_, 4
	note C#, 4
	note_type 12, 10, 7
	note E_, 8
	note_type 8, 10, 7
	note E_, 4
	note F_, 4
	note E_, 4
	sound_jump Music_ESwat_Boss2_Ch2_loop

Music_ESwat_Boss2_Ch3:
	note_type 12, 2, 3
	rest 1
Music_ESwat_Boss2_Ch3_loop:
	note_type 12, 2, 3
	octave 5
	note F_, 16
	note F_, 4
	note G_, 4
	note_type 8, 2, 3
	note A#, 4
	note G_, 4
	note E_, 4
	note_type 12, 2, 3
	note F_, 16
	note E_, 16
	note F_, 16
	note F_, 4
	note G_, 4
	note A_, 16
	note A_, 8
	octave 6
	note C#, 16
	octave 5
	volume_envelope 2, 5
	note D_, 1
	note E_, 1
	note F_, 1
	note G_, 1
	note A_, 1
	note G_, 1
	note F_, 1
	note E_, 1
	note D_, 1
	note E_, 1
	note F_, 1
	note G_, 1
	note A_, 1
	note G_, 1
	note F_, 1
	note E_, 1
	note C#, 1
	note E_, 1
	note G_, 1
	note A_, 1
	note A#, 1
	note A_, 1
	note G_, 1
	note E_, 1
	note C#, 1
	note E_, 1
	note G_, 1
	note A_, 1
	note A#, 1
	note A_, 1
	note G_, 1
	note E_, 1
	note D_, 1
	note E_, 1
	note F_, 1
	note G_, 1
	note A_, 1
	note G_, 1
	note F_, 1
	note E_, 1
	note D_, 1
	note E_, 1
	note F_, 1
	note G_, 1
	note A_, 1
	note G_, 1
	note F_, 1
	note E_, 1
	note C#, 1
	note E_, 1
	note G_, 1
	note A_, 1
	note A#, 1
	note A_, 1
	note G_, 1
	note E_, 1
	note C#, 1
	note E_, 1
	note G_, 1
	note A_, 1
	note A#, 1
	note A_, 1
	note G_, 1
	note E_, 1
	note D_, 1
	note E_, 1
	note F_, 1
	note G_, 1
	note A_, 1
	note G_, 1
	note F_, 1
	note E_, 1
	note D_, 1
	note E_, 1
	note F_, 1
	note G_, 1
	note A_, 1
	note G_, 1
	note F_, 1
	note E_, 1
	note C#, 1
	note E_, 1
	note G_, 1
	note A_, 1
	note A#, 1
	note A_, 1
	note G_, 1
	note E_, 1
	note C#, 1
	note E_, 1
	note G_, 1
	note A_, 1
	note A#, 1
	note A_, 1
	note G_, 1
	note E_, 1
	note D_, 1
	note E_, 1
	note F_, 1
	note G_, 1
	note A_, 1
	note G_, 1
	note F_, 1
	note E_, 1
	note D_, 1
	note E_, 1
	note F_, 1
	note G_, 1
	note A_, 1
	note G_, 1
	note F_, 1
	note E_, 1
	note C#, 1
	note E_, 1
	note G_, 1
	note A_, 1
	note A#, 1
	note A_, 1
	note G_, 1
	note E_, 1
	note C#, 1
	note E_, 1
	note G_, 1
	note A_, 1
	note A#, 1
	note A_, 1
	note G_, 1
	note E_, 1
	octave 6
	volume_envelope 2, 0
	note F_, 1
	note E_, 1
	octave 5
	note D_, 1
	octave 4
	note A_, 1
	octave 5
	note F_, 1
	note E_, 1
	note D_, 1
	note F_, 1
	note E_, 1
	note C_, 1
	octave 4
	note A_, 1
	octave 5
	note E_, 1
	note D_, 1
	octave 4
	note A_, 1
	note F_, 1
	note A_, 1
	octave 6
	note C#, 1
	note E_, 1
	note F_, 1
	note E_, 1
	note D_, 1
	note C#, 1
	octave 5
	note A_, 1
	octave 6
	note C_, 1
	octave 5
	note A_, 1
	note G_, 1
	note F_, 1
	note E_, 1
	note A_, 1
	octave 6
	note C#, 1
	note D_, 1
	note F_, 1
	note G_, 1
	note A_, 1
	note G_, 1
	note D_, 1
	octave 5
	note B_, 1
	note G_, 1
	note A_, 1
	octave 6
	note D_, 1
	octave 5
	note B_, 1
	note G_, 1
	note A_, 1
	octave 6
	note D_, 1
	note G_, 1
	note D_, 1
	octave 5
	note B_, 1
	note A_, 1
	note A#, 1
	note A_, 1
	note F_, 1
	note D_, 1
	note F_, 1
	note A_, 1
	note A#, 1
	octave 6
	note D_, 1
	note F_, 1
	octave 5
	note A#, 1
	octave 6
	note D_, 1
	note F_, 1
	octave 5
	note A#, 1
	octave 6
	note D_, 1
	note F_, 1
	octave 5
	note A#, 1
	octave 6
	note F_, 1
	note E_, 1
	octave 5
	note D_, 1
	octave 4
	note A_, 1
	octave 5
	note F_, 1
	note E_, 1
	note D_, 1
	note F_, 1
	note E_, 1
	note C_, 1
	octave 4
	note A_, 1
	octave 5
	note E_, 1
	note D_, 1
	octave 4
	note A_, 1
	note F_, 1
	note A_, 1
	octave 6
	note C#, 1
	note E_, 1
	note F_, 1
	note E_, 1
	note D_, 1
	note C#, 1
	octave 5
	note A_, 1
	octave 6
	note C_, 1
	octave 5
	note A_, 1
	note G_, 1
	note F_, 1
	note E_, 1
	note A_, 1
	octave 6
	note C#, 1
	note D_, 1
	note F_, 1
	note G_, 1
	note A_, 1
	note G_, 1
	note D_, 1
	octave 5
	note B_, 1
	note G_, 1
	note A_, 1
	octave 6
	note D_, 1
	octave 5
	note B_, 1
	note G_, 1
	note A_, 1
	octave 6
	note D_, 1
	note G_, 1
	note D_, 1
	octave 5
	note B_, 1
	note A_, 1
	note A#, 1
	note A_, 1
	note F_, 1
	note D_, 1
	note F_, 1
	note A_, 1
	note A#, 1
	octave 6
	note D_, 1
	note F_, 1
	octave 5
	note A#, 1
	octave 6
	note D_, 1
	note F_, 1
	octave 5
	note A#, 1
	octave 6
	note D_, 1
	note F_, 1
	octave 5
	note A#, 1
	volume_envelope 2, 5
	note D_, 1
	note E_, 1
	note F_, 1
	note G_, 1
	note A_, 1
	note G_, 1
	note F_, 1
	note E_, 1
	note D_, 1
	note E_, 1
	note F_, 1
	note G_, 1
	note A_, 1
	note G_, 1
	note F_, 1
	note E_, 1
	note C#, 1
	note E_, 1
	note G_, 1
	note A_, 1
	note A#, 1
	note A_, 1
	note G_, 1
	note E_, 1
	note C#, 1
	note E_, 1
	note G_, 1
	note A_, 1
	note A#, 1
	note A_, 1
	note G_, 1
	note E_, 1
	note D_, 1
	note E_, 1
	note F_, 1
	note G_, 1
	note A_, 1
	note G_, 1
	note F_, 1
	note E_, 1
	note D_, 1
	note E_, 1
	note F_, 1
	note G_, 1
	note A_, 1
	note G_, 1
	note F_, 1
	note E_, 1
	note C#, 1
	note E_, 1
	note G_, 1
	note A_, 1
	note A#, 1
	note A_, 1
	note G_, 1
	note E_, 1
	note C#, 1
	note E_, 1
	note G_, 1
	note A_, 1
	note A#, 1
	note A_, 1
	note G_, 1
	note E_, 1
	note D_, 1
	note E_, 1
	note F_, 1
	note G_, 1
	note A_, 1
	note G_, 1
	note F_, 1
	note E_, 1
	note D_, 1
	note E_, 1
	note F_, 1
	note G_, 1
	note A_, 1
	note G_, 1
	note F_, 1
	note E_, 1
	note C#, 1
	note E_, 1
	note G_, 1
	note A_, 1
	note A#, 1
	note A_, 1
	note G_, 1
	note E_, 1
	note C#, 1
	note E_, 1
	note G_, 1
	note A_, 1
	note A#, 1
	note A_, 1
	note G_, 1
	note E_, 1
	note D_, 1
	note E_, 1
	note F_, 1
	note G_, 1
	note A_, 1
	note G_, 1
	note F_, 1
	note E_, 1
	note D_, 1
	note E_, 1
	note F_, 1
	note G_, 1
	note A_, 1
	note G_, 1
	note F_, 1
	note E_, 1
	note C#, 1
	note E_, 1
	note G_, 1
	note A_, 1
	note A#, 1
	note A_, 1
	note G_, 1
	note E_, 1
	note C#, 1
	note E_, 1
	note G_, 1
	note A_, 1
	note A#, 1
	note A_, 1
	note G_, 1
	note E_, 1
	sound_jump Music_ESwat_Boss2_Ch3_loop

Music_ESwat_Boss2_Ch4:
	toggle_noise 1
	drum_speed 12
	rest 1
Music_ESwat_Boss2_Ch4_loop:
	drum_note 3, 1
	drum_note 11, 1
	drum_note 11, 1
	drum_note 11, 1
	drum_note 3, 1
	drum_note 11, 1
	drum_note 11, 1
	drum_note 11, 1
	drum_note 3, 1
	drum_note 11, 1
	drum_note 11, 1
	drum_note 11, 1
	drum_note 3, 1
	drum_note 11, 1
	drum_note 11, 1
	drum_note 11, 1
	drum_note 3, 1
	drum_note 11, 1
	drum_note 11, 1
	drum_note 11, 1
	drum_note 3, 1
	drum_note 11, 1
	drum_note 11, 1
	drum_note 11, 1
	drum_note 3, 1
	drum_note 11, 1
	drum_note 11, 1
	drum_note 11, 1
	drum_note 3, 1
	drum_note 11, 1
	drum_note 11, 1
	drum_note 11, 1
	drum_note 3, 1
	drum_note 11, 1
	drum_note 11, 1
	drum_note 11, 1
	drum_note 3, 1
	drum_note 11, 1
	drum_note 11, 1
	drum_note 11, 1
	drum_note 3, 1
	drum_note 11, 1
	drum_note 11, 1
	drum_note 11, 1
	drum_note 3, 1
	drum_note 11, 1
	drum_note 11, 1
	drum_note 11, 1
	drum_note 3, 1
	drum_note 11, 1
	drum_note 11, 1
	drum_note 11, 1
	drum_note 3, 1
	drum_note 11, 1
	drum_note 11, 1
	drum_note 11, 1
	drum_note 3, 1
	drum_note 11, 1
	drum_note 11, 1
	drum_note 11, 1
	drum_note 3, 1
	drum_note 11, 1
	drum_note 11, 1
	drum_note 11, 1
	drum_note 3, 1
	drum_note 11, 1
	drum_note 11, 1
	drum_note 11, 1
	drum_note 3, 1
	drum_note 11, 1
	drum_note 11, 1
	drum_note 11, 1
	drum_note 3, 1
	drum_note 11, 1
	drum_note 11, 1
	drum_note 11, 1
	drum_note 3, 1
	drum_note 11, 1
	drum_note 11, 1
	drum_note 11, 1
	drum_note 3, 1
	drum_note 11, 1
	drum_note 11, 1
	drum_note 11, 1
	drum_note 3, 1
	drum_note 11, 1
	drum_note 11, 1
	drum_note 11, 1
	drum_note 3, 1
	drum_note 11, 1
	drum_note 11, 1
	drum_note 11, 1
	drum_note 3, 1
	drum_note 11, 1
	drum_note 11, 1
	drum_note 11, 1
	drum_note 3, 1
	drum_note 11, 1
	drum_note 11, 1
	drum_note 11, 1
	drum_note 3, 1
	drum_note 11, 1
	drum_note 11, 1
	drum_note 11, 1
	drum_note 3, 1
	drum_note 11, 1
	drum_note 11, 1
	drum_note 11, 1
	drum_note 3, 1
	drum_note 11, 1
	drum_note 11, 1
	drum_note 11, 1
	drum_note 3, 1
	drum_note 11, 1
	drum_note 11, 1
	drum_note 11, 1
	drum_note 3, 1
	drum_note 11, 1
	drum_note 11, 1
	drum_note 11, 1
	drum_note 3, 1
	drum_note 11, 1
	drum_note 11, 1
	drum_note 11, 1
	drum_note 3, 1
	drum_note 11, 1
	drum_note 11, 1
	drum_note 11, 1
	drum_note 3, 1
	drum_note 11, 1
	drum_note 11, 1
	drum_note 11, 1
	drum_note 3, 1
	drum_note 11, 1
	drum_note 11, 1
	drum_note 11, 1
	drum_note 3, 1
	drum_note 11, 1
	drum_note 11, 1
	drum_note 11, 1
	drum_note 3, 1
	drum_note 11, 1
	drum_note 11, 1
	drum_note 11, 1
	drum_note 3, 1
	drum_note 11, 1
	drum_note 11, 1
	drum_note 11, 1
	drum_note 3, 1
	drum_note 11, 1
	drum_note 11, 1
	drum_note 11, 1
	drum_note 3, 1
	drum_note 11, 1
	drum_note 11, 1
	drum_note 11, 1
	drum_note 3, 1
	drum_note 11, 1
	drum_note 11, 1
	drum_note 11, 1
	drum_note 3, 1
	drum_note 11, 1
	drum_note 11, 1
	drum_note 11, 1
	drum_note 3, 1
	drum_note 11, 1
	drum_note 11, 1
	drum_note 11, 1
	drum_note 3, 1
	drum_note 11, 1
	drum_note 11, 1
	drum_note 11, 1
	drum_note 3, 1
	drum_note 11, 1
	drum_note 11, 1
	drum_note 11, 1
	drum_note 3, 1
	drum_note 11, 1
	drum_note 11, 1
	drum_note 11, 1
	drum_note 3, 1
	drum_note 11, 1
	drum_note 11, 1
	drum_note 11, 1
	drum_note 3, 1
	drum_note 11, 1
	drum_note 11, 1
	drum_note 11, 1
	drum_note 3, 1
	drum_note 11, 1
	drum_note 11, 1
	drum_note 11, 1
	drum_note 3, 1
	drum_note 11, 1
	drum_note 11, 1
	drum_note 11, 1
	drum_note 3, 1
	drum_note 11, 1
	drum_note 11, 1
	drum_note 11, 1
	drum_note 3, 1
	drum_note 11, 1
	drum_note 11, 1
	drum_note 11, 1
	drum_note 3, 1
	drum_note 11, 1
	drum_note 11, 1
	drum_note 11, 1
	drum_note 3, 1
	drum_note 11, 1
	drum_note 11, 1
	drum_note 11, 1
	drum_note 3, 1
	drum_note 11, 1
	drum_note 11, 1
	drum_note 11, 1
	drum_note 3, 1
	drum_note 11, 1
	drum_note 11, 1
	drum_note 11, 1
	drum_note 3, 1
	drum_note 11, 1
	drum_note 11, 1
	drum_note 11, 1
	drum_note 3, 1
	drum_note 11, 1
	drum_note 11, 1
	drum_note 11, 1
	drum_note 3, 1
	drum_note 11, 1
	drum_note 11, 1
	drum_note 11, 1
	drum_note 3, 1
	drum_note 11, 1
	drum_note 11, 1
	drum_note 11, 1
	drum_note 3, 1
	drum_note 11, 1
	drum_note 11, 1
	drum_note 11, 1
	drum_note 3, 1
	drum_note 11, 1
	drum_note 11, 1
	drum_note 11, 1
	drum_note 3, 1
	drum_note 11, 1
	drum_note 11, 1
	drum_note 11, 1
	drum_note 3, 1
	drum_note 11, 1
	drum_note 11, 1
	drum_note 11, 1
	drum_note 3, 1
	drum_note 11, 1
	drum_note 11, 1
	drum_note 11, 1
	drum_note 3, 1
	drum_note 11, 1
	drum_note 11, 1
	drum_note 11, 1
	drum_note 3, 1
	drum_note 11, 1
	drum_note 11, 1
	drum_note 11, 1
	drum_note 3, 1
	drum_note 11, 1
	drum_note 11, 1
	drum_note 11, 1
	drum_note 3, 1
	drum_note 11, 1
	drum_note 11, 1
	drum_note 11, 1
	drum_note 3, 1
	drum_note 11, 1
	drum_note 11, 1
	drum_note 11, 1
	drum_note 3, 1
	drum_note 11, 1
	drum_note 11, 1
	drum_note 11, 1
	drum_note 3, 1
	drum_note 11, 1
	drum_note 11, 1
	drum_note 11, 1
	drum_note 3, 1
	drum_note 11, 1
	drum_note 11, 1
	drum_note 11, 1
	drum_note 3, 1
	drum_note 11, 1
	drum_note 11, 1
	drum_note 11, 1
	drum_note 3, 1
	drum_note 11, 1
	drum_note 11, 1
	drum_note 11, 1
	drum_note 3, 1
	drum_note 11, 1
	drum_note 11, 1
	drum_note 11, 1
	drum_note 3, 1
	drum_note 11, 1
	drum_note 11, 1
	drum_note 11, 1
	drum_note 3, 1
	drum_note 11, 1
	drum_note 11, 1
	drum_note 11, 1
	drum_note 3, 1
	drum_note 11, 1
	drum_note 11, 1
	drum_note 11, 1
	drum_note 3, 1
	drum_note 11, 1
	drum_note 11, 1
	drum_note 11, 1
	drum_note 3, 1
	drum_note 11, 1
	drum_note 11, 1
	drum_note 11, 1
	drum_note 3, 1
	drum_note 11, 1
	drum_note 11, 1
	drum_note 11, 1
	drum_note 3, 1
	drum_note 11, 1
	drum_note 11, 1
	drum_note 11, 1
	drum_note 3, 1
	drum_note 11, 1
	drum_note 11, 1
	drum_note 11, 1
	drum_note 3, 1
	drum_note 11, 1
	drum_note 11, 1
	drum_note 11, 1
	drum_note 3, 1
	drum_note 11, 1
	drum_note 11, 1
	drum_note 11, 1
	drum_note 3, 1
	drum_note 11, 1
	drum_note 11, 1
	drum_note 11, 1
	drum_note 3, 1
	drum_note 11, 1
	drum_note 11, 1
	drum_note 11, 1
	drum_note 3, 1
	drum_note 11, 1
	drum_note 11, 1
	drum_note 11, 1
	drum_note 3, 1
	drum_note 11, 1
	drum_note 11, 1
	drum_note 11, 1
	drum_note 3, 1
	drum_note 11, 1
	drum_note 11, 1
	drum_note 11, 1
	drum_note 3, 1
	drum_note 11, 1
	drum_note 11, 1
	drum_note 11, 1
	drum_note 3, 1
	drum_note 11, 1
	drum_note 11, 1
	drum_note 11, 1
	drum_note 3, 1
	drum_note 11, 1
	drum_note 11, 1
	drum_note 11, 1
	drum_note 3, 1
	drum_note 11, 1
	drum_note 11, 1
	drum_note 11, 1
	drum_note 3, 1
	drum_note 11, 1
	drum_note 11, 1
	drum_note 11, 1
	drum_note 3, 1
	drum_note 11, 1
	drum_note 11, 1
	drum_note 11, 1
	drum_note 3, 1
	drum_note 11, 1
	drum_note 11, 1
	drum_note 11, 1
	drum_note 3, 1
	drum_note 11, 1
	drum_note 11, 1
	drum_note 11, 1
	drum_note 3, 1
	drum_note 11, 1
	drum_note 11, 1
	drum_note 11, 1
	drum_note 3, 1
	drum_note 11, 1
	drum_note 11, 1
	drum_note 11, 1
	drum_note 3, 1
	drum_note 11, 1
	drum_note 11, 1
	drum_note 11, 1
	drum_note 3, 1
	drum_note 11, 1
	drum_note 11, 1
	drum_note 11, 1
	drum_note 3, 1
	drum_note 11, 1
	drum_note 11, 1
	drum_note 11, 1
	drum_note 3, 1
	drum_note 11, 1
	drum_note 11, 1
	drum_note 11, 1
	drum_note 3, 1
	drum_note 11, 1
	drum_note 11, 1
	drum_note 11, 1
	drum_note 3, 1
	drum_note 11, 1
	drum_note 11, 1
	drum_note 11, 1
	drum_note 3, 1
	drum_note 11, 1
	drum_note 11, 1
	drum_note 11, 1
	drum_note 3, 1
	drum_note 11, 1
	drum_note 11, 1
	drum_note 11, 1
	drum_note 3, 1
	drum_note 11, 1
	drum_note 11, 1
	drum_note 11, 1
	drum_note 3, 1
	drum_note 11, 1
	drum_note 11, 1
	drum_note 11, 1
	drum_note 3, 1
	drum_note 11, 1
	drum_note 11, 1
	drum_note 11, 1
	drum_note 3, 1
	drum_note 11, 1
	drum_note 11, 1
	drum_note 11, 1
	drum_note 3, 1
	drum_note 11, 1
	drum_note 11, 1
	drum_note 11, 1
	drum_note 3, 1
	drum_note 11, 1
	drum_note 11, 1
	drum_note 11, 1
	drum_note 3, 1
	drum_note 11, 1
	drum_note 11, 1
	drum_note 11, 1
	drum_note 3, 1
	drum_note 11, 1
	drum_note 11, 1
	drum_note 11, 1
	drum_note 3, 1
	drum_note 11, 1
	drum_note 11, 1
	drum_note 11, 1
	drum_note 3, 1
	drum_note 11, 1
	drum_note 11, 1
	drum_note 11, 1
	drum_note 3, 1
	drum_note 11, 1
	drum_note 11, 1
	drum_note 11, 1
	drum_note 3, 1
	drum_note 11, 1
	drum_note 11, 1
	drum_note 11, 1
	drum_note 3, 1
	drum_note 11, 1
	drum_note 11, 1
	drum_note 11, 1
	drum_note 3, 1
	drum_note 11, 1
	drum_note 11, 1
	drum_note 11, 1
	drum_note 3, 1
	drum_note 11, 1
	drum_note 11, 1
	drum_note 11, 1
	drum_note 3, 1
	drum_note 11, 1
	drum_note 11, 1
	drum_note 11, 1
	drum_note 3, 1
	drum_note 11, 1
	drum_note 11, 1
	drum_note 11, 1
	drum_note 3, 1
	drum_note 11, 1
	drum_note 11, 1
	drum_note 11, 1
	drum_note 3, 1
	drum_note 11, 1
	drum_note 11, 1
	drum_note 11, 1
	drum_note 3, 1
	drum_note 11, 1
	drum_note 11, 1
	drum_note 11, 1
	sound_jump Music_ESwat_Boss2_Ch4_loop
