Music_ESwat_Round3:
	channel_count 4
	channel 1, Music_ESwat_Round3_Ch1
	channel 2, Music_ESwat_Round3_Ch2
	channel 3, Music_ESwat_Round3_Ch3
	channel 4, Music_ESwat_Round3_Ch4

Music_ESwat_Round3_Ch1:
	volume 7, 7
	duty_cycle 1
	note_type 12, 9, 7
	tempo 100
	rest 6
Music_ESwat_Round3_Ch1_loop:
	rest 2
	octave 2
	note F#, 2
	rest 2
	octave 3
	note F#, 1
	rest 1
	octave 2
	note F#, 2
	rest 2
	octave 3
	note F#, 2
	rest 2
	octave 2
	note F#, 2
	rest 2
	octave 3
	note F#, 2
	rest 2
	octave 2
	note F#, 1
	rest 1
	note F#, 1
	rest 1
	note F#, 1
	rest 1
	octave 3
	note F#, 2
	rest 2
	octave 2
	note F#, 2
	rest 2
	octave 3
	note F#, 1
	rest 1
	octave 2
	note F#, 2
	rest 2
	octave 3
	note F#, 2
	rest 2
	octave 2
	note F#, 2
	rest 2
	octave 3
	note F#, 2
	rest 2
	octave 2
	note F#, 1
	rest 1
	note F#, 1
	rest 1
	note F#, 1
	rest 1
	octave 3
	note F#, 2
	rest 2
	octave 2
	note F#, 2
	rest 2
	octave 3
	note F#, 1
	rest 1
	octave 2
	note F#, 2
	rest 2
	octave 3
	note F#, 2
	rest 2
	octave 2
	note F#, 2
	rest 2
	octave 3
	note F#, 2
	rest 2
	octave 2
	note F#, 1
	rest 1
	note F#, 1
	rest 1
	note F#, 1
	rest 1
	octave 3
	note F#, 2
	rest 2
	octave 2
	note F#, 2
	rest 2
	octave 3
	note F#, 1
	rest 1
	octave 2
	note F#, 2
	rest 2
	octave 3
	note F#, 2
	rest 2
	octave 2
	note F#, 2
	rest 2
	octave 3
	note F#, 2
	rest 2
	octave 2
	note F#, 1
	rest 1
	note F#, 1
	rest 1
	note F#, 1
	rest 1
	octave 3
	note F#, 2
	rest 2
	octave 2
	note F#, 2
	rest 2
	octave 3
	note F#, 1
	rest 1
	octave 2
	note F#, 2
	rest 2
	octave 3
	note F#, 2
	rest 2
	octave 2
	note F#, 2
	rest 2
	octave 3
	note F#, 2
	rest 2
	octave 2
	note F#, 1
	rest 1
	note F#, 1
	rest 1
	note F#, 1
	rest 1
	octave 3
	note F#, 2
	rest 2
	octave 2
	note F#, 2
	rest 2
	octave 3
	note F#, 1
	rest 1
	octave 2
	note F#, 2
	rest 2
	octave 3
	note F#, 2
	rest 2
	octave 2
	note F#, 2
	rest 2
	octave 3
	note F#, 2
	rest 2
	octave 2
	note F#, 1
	rest 1
	note F#, 1
	rest 1
	note F#, 1
	rest 1
	octave 3
	note F#, 2
	rest 2
	octave 2
	note F#, 2
	rest 2
	octave 3
	note F#, 1
	rest 1
	octave 2
	note F#, 2
	rest 2
	octave 3
	note F#, 2
	rest 2
	octave 2
	note F#, 2
	rest 2
	octave 3
	note F#, 2
	rest 2
	octave 2
	note F#, 1
	rest 1
	note F#, 1
	rest 1
	note F#, 1
	rest 1
	octave 3
	note F#, 2
	rest 2
	octave 2
	note F#, 2
	rest 2
	octave 3
	note F#, 1
	rest 1
	octave 2
	note F#, 2
	rest 2
	octave 3
	note F#, 2
	rest 2
	octave 2
	note F#, 2
	rest 2
	octave 3
	note F#, 2
	rest 2
	octave 2
	note F#, 1
	rest 1
	note F#, 1
	rest 1
	note F#, 1
	rest 1
	octave 3
	note F#, 2
	rest 2
	octave 2
	note F#, 2
	rest 2
	octave 3
	note F#, 1
	rest 1
	octave 2
	note F#, 2
	rest 2
	octave 3
	note F#, 2
	rest 2
	octave 2
	note F#, 2
	rest 2
	octave 3
	note F#, 2
	rest 2
	octave 2
	note F#, 1
	rest 1
	note F#, 1
	rest 1
	note F#, 1
	rest 1
	octave 3
	note E_, 2
	rest 2
	octave 2
	note D_, 2
	rest 2
	octave 3
	note D_, 1
	rest 1
	octave 2
	note D_, 2
	rest 2
	octave 3
	note D_, 2
	rest 2
	octave 2
	note D_, 2
	rest 2
	octave 3
	note D_, 2
	rest 2
	octave 2
	note D_, 1
	rest 1
	note D_, 1
	rest 1
	note D_, 1
	rest 1
	octave 3
	note C#, 2
	rest 2
	octave 1
	note B_, 2
	rest 2
	octave 2
	note B_, 1
	rest 1
	octave 1
	note B_, 2
	rest 2
	octave 2
	note B_, 2
	rest 2
	octave 1
	note B_, 2
	rest 2
	octave 2
	note B_, 2
	rest 2
	octave 1
	note B_, 1
	rest 1
	note B_, 1
	rest 1
	note B_, 1
	rest 1
	octave 2
	note A_, 2
	rest 2
	note G#, 2
	rest 2
	octave 3
	note G#, 1
	rest 1
	octave 2
	note G#, 2
	rest 2
	octave 3
	note G#, 2
	rest 2
	octave 2
	note C#, 2
	rest 2
	octave 3
	note C#, 2
	rest 2
	octave 2
	note C#, 1
	rest 1
	note C#, 1
	rest 1
	note C#, 1
	rest 1
	note F_, 2
	rest 2
	note F#, 2
	rest 2
	octave 3
	note F#, 1
	rest 1
	octave 2
	note F#, 2
	rest 2
	octave 3
	note F#, 2
	rest 2
	octave 2
	note F#, 2
	rest 2
	octave 3
	note F#, 2
	rest 2
	octave 2
	note F#, 1
	rest 1
	note F#, 1
	rest 1
	note F#, 1
	rest 1
	octave 3
	note E_, 2
	rest 2
	octave 2
	note D_, 2
	rest 2
	octave 3
	note D_, 1
	rest 1
	octave 2
	note D_, 2
	rest 2
	octave 3
	note D_, 2
	rest 2
	octave 2
	note D_, 2
	rest 2
	octave 3
	note D_, 2
	rest 2
	octave 2
	note D_, 1
	rest 1
	note D_, 1
	rest 1
	note D_, 1
	rest 1
	octave 3
	note C#, 2
	rest 2
	octave 1
	note B_, 2
	rest 2
	octave 2
	note B_, 1
	rest 1
	octave 1
	note B_, 2
	rest 2
	octave 2
	note B_, 2
	rest 2
	octave 1
	note B_, 2
	rest 2
	octave 2
	note B_, 2
	rest 2
	octave 1
	note B_, 1
	rest 1
	note B_, 1
	rest 1
	note B_, 1
	rest 1
	octave 2
	note A_, 2
	rest 2
	note G#, 2
	rest 2
	octave 3
	note G#, 1
	rest 1
	octave 2
	note G#, 2
	rest 2
	octave 3
	note G#, 2
	rest 2
	octave 2
	note C#, 2
	rest 2
	octave 3
	note C#, 2
	rest 2
	octave 2
	note C#, 1
	rest 1
	note C#, 1
	rest 1
	note C#, 1
	rest 1
	note F_, 2
	rest 2
	note F#, 2
	rest 2
	octave 3
	note F#, 1
	rest 1
	octave 2
	note F#, 2
	rest 2
	octave 3
	note F#, 2
	rest 2
	octave 2
	note F#, 2
	rest 2
	octave 3
	note F#, 2
	rest 2
	octave 2
	note F#, 1
	rest 1
	note F#, 1
	rest 1
	note F#, 1
	rest 1
	octave 3
	note F#, 2
	sound_jump Music_ESwat_Round3_Ch1_loop

Music_ESwat_Round3_Ch2:
	duty_cycle 2
	note_type 12, 10, 7
	rest 6
Music_ESwat_Round3_Ch2_loop:
	rest 2
	octave 3
	volume_envelope 10, 7
	note B_, 16
	note B_, 12
	note A_, 4
	note G#, 6
	note A_, 6
	note F#, 16
	note F#, 4
	note B_, 16
	note B_, 12
	note A_, 4
	note G#, 6
	note A_, 6
	note F#, 14
	note G#, 2
	note A_, 2
	note B_, 12
	octave 4
	note C#, 2
	note D_, 2
	note E_, 12
	note D_, 2
	note C#, 2
	octave 3
	note B_, 6
	octave 4
	note C#, 2
	octave 3
	note A_, 16
	note A_, 4
	note G#, 2
	note A_, 2
	note B_, 12
	octave 4
	note C#, 2
	note D_, 2
	note E_, 12
	note E_, 2
	note F#, 2
	note G#, 2
	note G#, 4
	note A_, 2
	note F#, 16
	note F#, 2
	rest 8
	note A_, 16
	note A_, 8
	note B_, 8
	octave 5
	note C#, 12
	note E_, 2
	octave 4
	note B_, 12
	note A_, 2
	note B_, 2
	octave 5
	note C#, 6
	note E_, 2
	octave 4
	note B_, 4
	note A_, 2
	note B_, 2
	octave 5
	note C#, 6
	note E_, 2
	octave 4
	note B_, 4
	note A_, 2
	note B_, 2
	octave 5
	note C#, 6
	octave 4
	note B_, 1
	rest 1
	note B_, 4
	note A_, 2
	note B_, 16
	rest 4
	note A_, 16
	note A_, 8
	note B_, 8
	octave 5
	note C#, 12
	note E_, 2
	octave 4
	note B_, 12
	note A_, 2
	note B_, 2
	octave 5
	note C#, 6
	note E_, 2
	octave 4
	note B_, 4
	note A_, 2
	note B_, 2
	octave 5
	note C#, 6
	note E_, 2
	octave 4
	note B_, 4
	note A_, 2
	note B_, 2
	octave 5
	note C#, 6
	octave 4
	note B_, 1
	rest 1
	note B_, 3
	rest 1
	note A_, 1
	rest 1
	note A_, 3
	rest 1
	note G#, 1
	rest 1
	note G#, 3
	rest 1
	note F#, 2
	note G#, 2
	note A_, 2
	octave 5
	note C#, 2
	note E_, 2
	note F#, 2
	rest 16
	rest 12
	sound_jump Music_ESwat_Round3_Ch2_loop

Music_ESwat_Round3_Ch3:
	note_type 12, 2, 0
	rest 6
Music_ESwat_Round3_Ch3_loop:
	rest 2
	octave 5
	volume_envelope 2, 4
	note E_, 16
	note E_, 16
	note D#, 16
	note D#, 16
	note E_, 16
	note E_, 16
	note D#, 16
	note D#, 16
	note F#, 14
	note G#, 16
	note A_, 16
	note A_, 16
	note A_, 2
	note F#, 14
	note G#, 16
	note G#, 2
	note A_, 16
	note A_, 8
	volume_envelope 2, 5
	note A_, 1
	rest 1
	note A_, 1
	rest 1
	note A_, 1
	rest 3
	octave 6
	note C#, 2
	rest 2
	octave 5
	note F#, 1
	rest 1
	octave 6
	note C#, 2
	rest 2
	octave 5
	note G#, 2
	rest 2
	octave 6
	note C#, 2
	rest 2
	octave 5
	note A_, 2
	rest 2
	note G#, 1
	rest 1
	note F#, 2
	rest 2
	note E_, 2
	rest 2
	note F#, 2
	rest 2
	note G#, 1
	rest 1
	note D_, 2
	rest 2
	note G#, 2
	rest 2
	note A_, 2
	rest 2
	note A_, 2
	rest 2
	note G#, 1
	rest 1
	note A_, 2
	rest 2
	note C#, 2
	rest 2
	note D_, 2
	rest 2
	note C#, 1
	rest 1
	note D_, 2
	rest 2
	octave 4
	note B_, 2
	rest 2
	note B_, 2
	rest 2
	octave 5
	note F#, 2
	rest 2
	note C#, 1
	rest 1
	octave 4
	note B_, 2
	rest 2
	octave 5
	note C#, 2
	rest 2
	octave 4
	note G#, 2
	rest 2
	note G#, 1
	rest 1
	octave 5
	note D_, 2
	rest 2
	note C#, 2
	rest 2
	octave 4
	note G#, 2
	rest 2
	note G#, 2
	rest 2
	octave 5
	note F_, 1
	rest 1
	note F#, 2
	rest 2
	note G#, 2
	rest 2
	octave 6
	note C#, 2
	rest 2
	octave 5
	note F#, 1
	rest 1
	octave 6
	note C#, 2
	rest 2
	octave 5
	note G#, 2
	rest 2
	octave 6
	note C#, 2
	rest 2
	octave 5
	note A_, 2
	rest 2
	note G#, 1
	rest 1
	note F#, 2
	rest 2
	note E_, 2
	rest 2
	note F#, 2
	rest 2
	note G#, 1
	rest 1
	note D_, 2
	rest 2
	note G#, 2
	rest 2
	note A_, 2
	rest 2
	note A_, 2
	rest 2
	note G#, 1
	rest 1
	note A_, 2
	rest 2
	note C#, 2
	rest 2
	note D_, 2
	rest 2
	note C#, 1
	rest 1
	note D_, 2
	rest 2
	octave 4
	note B_, 2
	rest 2
	note B_, 2
	rest 2
	octave 5
	note F#, 2
	rest 2
	note C#, 1
	rest 1
	octave 4
	note B_, 2
	rest 2
	octave 5
	note C#, 2
	rest 2
	octave 4
	note G#, 2
	rest 2
	note G#, 1
	rest 1
	octave 5
	note D_, 2
	rest 2
	note C#, 2
	rest 2
	octave 4
	note G#, 2
	rest 2
	note G#, 2
	rest 2
	octave 5
	note F_, 1
	rest 1
	note F#, 2
	rest 2
	note G#, 2
	rest 2
	note F#, 16
	rest 14
	sound_jump Music_ESwat_Round3_Ch3_loop

Music_ESwat_Round3_Ch4:
	toggle_noise 1
	drum_speed 12
	drum_note 3, 2
	drum_note 3, 2
	drum_note 3, 2
Music_ESwat_Round3_Ch4_loop:
	drum_note 3, 2
	drum_note 11, 2
	drum_note 11, 2
	drum_note 3, 2
	drum_note 11, 2
	drum_note 11, 2
	drum_note 11, 2
	drum_note 3, 2
	drum_note 11, 2
	drum_note 11, 2
	drum_note 11, 2
	drum_note 3, 2
	drum_note 11, 2
	drum_note 11, 2
	drum_note 11, 2
	drum_note 3, 2
	drum_note 11, 2
	drum_note 11, 2
	drum_note 11, 2
	drum_note 3, 2
	drum_note 11, 2
	drum_note 11, 2
	drum_note 11, 2
	drum_note 3, 2
	drum_note 11, 2
	drum_note 11, 2
	drum_note 11, 2
	drum_note 3, 2
	drum_note 11, 2
	drum_note 11, 2
	drum_note 11, 2
	drum_note 3, 2
	drum_note 11, 2
	drum_note 11, 2
	drum_note 11, 2
	drum_note 3, 2
	drum_note 11, 2
	drum_note 11, 2
	drum_note 11, 2
	drum_note 3, 2
	drum_note 11, 2
	drum_note 11, 2
	drum_note 11, 2
	drum_note 3, 2
	drum_note 11, 2
	drum_note 11, 2
	drum_note 11, 2
	drum_note 3, 2
	drum_note 11, 2
	drum_note 11, 2
	drum_note 11, 2
	drum_note 3, 2
	drum_note 11, 2
	drum_note 11, 2
	drum_note 11, 2
	drum_note 3, 2
	drum_note 11, 2
	drum_note 11, 2
	drum_note 11, 2
	drum_note 3, 2
	drum_note 11, 2
	drum_note 3, 2
	drum_note 3, 2
	drum_note 3, 2
	drum_note 11, 2
	drum_note 11, 2
	drum_note 11, 2
	drum_note 3, 2
	drum_note 11, 2
	drum_note 11, 2
	drum_note 11, 2
	drum_note 3, 2
	drum_note 11, 2
	drum_note 11, 2
	drum_note 11, 2
	drum_note 3, 2
	drum_note 11, 2
	drum_note 11, 2
	drum_note 11, 2
	drum_note 3, 2
	drum_note 11, 2
	drum_note 11, 2
	drum_note 11, 2
	drum_note 3, 2
	drum_note 11, 2
	drum_note 11, 2
	drum_note 11, 2
	drum_note 3, 2
	drum_note 11, 2
	drum_note 11, 2
	drum_note 11, 2
	drum_note 3, 2
	drum_note 11, 2
	drum_note 11, 2
	drum_note 11, 2
	drum_note 3, 2
	drum_note 11, 2
	drum_note 11, 2
	drum_note 11, 2
	drum_note 3, 2
	drum_note 11, 2
	drum_note 11, 2
	drum_note 11, 2
	drum_note 3, 2
	drum_note 11, 2
	drum_note 11, 2
	drum_note 11, 2
	drum_note 3, 2
	drum_note 11, 2
	drum_note 11, 2
	drum_note 11, 2
	drum_note 3, 2
	drum_note 11, 2
	drum_note 11, 2
	drum_note 11, 2
	drum_note 3, 2
	drum_note 11, 2
	drum_note 11, 2
	drum_note 11, 2
	drum_note 3, 2
	drum_note 11, 2
	drum_note 11, 2
	drum_note 11, 2
	drum_note 3, 2
	drum_note 11, 2
	drum_note 3, 2
	drum_note 3, 2
	drum_note 3, 2
	drum_note 3, 2
	drum_note 11, 2
	drum_note 11, 2
	drum_note 3, 2
	drum_note 11, 2
	drum_note 11, 2
	drum_note 11, 2
	drum_note 3, 2
	drum_note 11, 2
	drum_note 11, 2
	drum_note 11, 2
	drum_note 3, 2
	drum_note 11, 2
	drum_note 11, 2
	drum_note 11, 2
	drum_note 3, 2
	drum_note 11, 2
	drum_note 11, 2
	drum_note 11, 2
	drum_note 3, 2
	drum_note 11, 2
	drum_note 11, 2
	drum_note 11, 2
	drum_note 3, 2
	drum_note 11, 2
	drum_note 11, 2
	drum_note 11, 2
	drum_note 3, 2
	drum_note 11, 2
	drum_note 11, 2
	drum_note 11, 2
	drum_note 3, 2
	drum_note 11, 2
	drum_note 11, 2
	drum_note 11, 2
	drum_note 3, 2
	drum_note 11, 2
	drum_note 11, 2
	drum_note 11, 2
	drum_note 3, 2
	drum_note 11, 2
	drum_note 11, 2
	drum_note 11, 2
	drum_note 3, 2
	drum_note 11, 2
	drum_note 11, 2
	drum_note 11, 2
	drum_note 3, 2
	drum_note 11, 2
	drum_note 11, 2
	drum_note 11, 2
	drum_note 3, 2
	drum_note 11, 2
	drum_note 11, 2
	drum_note 11, 2
	drum_note 3, 2
	drum_note 11, 2
	drum_note 11, 2
	drum_note 11, 2
	drum_note 3, 2
	drum_note 11, 2
	drum_note 3, 2
	drum_note 3, 2
	drum_note 3, 2
	drum_note 11, 2
	drum_note 11, 2
	drum_note 11, 2
	drum_note 3, 2
	drum_note 11, 2
	drum_note 11, 2
	drum_note 11, 2
	drum_note 3, 2
	drum_note 11, 2
	drum_note 11, 2
	drum_note 11, 2
	drum_note 3, 2
	drum_note 11, 2
	drum_note 11, 2
	drum_note 11, 2
	drum_note 3, 2
	drum_note 11, 2
	drum_note 11, 2
	drum_note 11, 2
	drum_note 3, 2
	drum_note 11, 2
	drum_note 11, 2
	drum_note 11, 2
	drum_note 3, 2
	drum_note 11, 2
	drum_note 11, 2
	drum_note 11, 2
	drum_note 3, 2
	drum_note 11, 2
	drum_note 11, 2
	drum_note 11, 2
	drum_note 3, 2
	drum_note 11, 2
	drum_note 11, 2
	drum_note 11, 2
	drum_note 3, 2
	drum_note 11, 2
	drum_note 11, 2
	drum_note 11, 2
	drum_note 3, 2
	drum_note 11, 2
	drum_note 11, 2
	drum_note 11, 2
	drum_note 3, 2
	drum_note 11, 2
	drum_note 11, 2
	drum_note 11, 2
	drum_note 3, 2
	drum_note 11, 2
	drum_note 11, 2
	drum_note 11, 2
	drum_note 3, 2
	drum_note 11, 2
	drum_note 11, 2
	drum_note 11, 2
	drum_note 3, 2
	drum_note 11, 2
	drum_note 11, 2
	drum_note 11, 2
	drum_note 3, 2
	drum_note 11, 2
	drum_note 3, 2
	drum_note 3, 2
	drum_note 3, 2
	drum_speed 6
	drum_note 3, 1
	rest 16
	rest 16
	rest 16
	rest 3
	drum_speed 12
	drum_note 3, 2
	drum_note 3, 2
	drum_note 3, 2
	sound_jump Music_ESwat_Round3_Ch4_loop
