Music_ESwat_Round2:
	channel_count 4
	channel 1, Music_ESwat_Round2_Ch1
	channel 2, Music_ESwat_Round2_Ch2
	channel 3, Music_ESwat_Round2_Ch3
	channel 4, Music_ESwat_Round2_Ch4

Music_ESwat_Round2_Ch1:
	volume 7, 7
	duty_cycle 1
	note_type 12, 9, 7
	tempo 133
Music_ESwat_Round2_Ch1_loop:
	octave 3
	note C_, 1
	rest 1
	note C_, 1
	rest 1
	note C_, 1
	rest 1
	note C_, 1
	rest 1
	note C_, 1
	rest 1
	note C_, 1
	rest 1
	note C_, 1
	rest 1
	note C_, 1
	rest 1
	note C_, 1
	rest 1
	note C_, 1
	rest 1
	note C_, 1
	rest 1
	note C_, 1
	rest 1
	note C_, 1
	rest 1
	note C_, 1
	rest 1
	note C_, 1
	rest 1
	note C_, 1
	rest 1
	octave 2
	note A#, 1
	rest 1
	note A#, 1
	rest 1
	note A#, 1
	rest 1
	note A#, 1
	rest 1
	note A#, 1
	rest 1
	note A#, 1
	rest 1
	note A#, 1
	rest 1
	note A#, 1
	rest 1
	note A#, 1
	rest 1
	note A#, 1
	rest 1
	note A#, 1
	rest 1
	note A#, 1
	rest 1
	note A#, 1
	rest 1
	note A#, 1
	rest 1
	note A#, 1
	rest 1
	note A#, 1
	rest 1
	octave 3
	note C_, 1
	rest 1
	note C_, 1
	rest 1
	note C_, 1
	rest 1
	note C_, 1
	rest 1
	note C_, 1
	rest 1
	note C_, 1
	rest 1
	note C_, 1
	rest 1
	note C_, 1
	rest 1
	note C_, 1
	rest 1
	note C_, 1
	rest 1
	note C_, 1
	rest 1
	note C_, 1
	rest 1
	note C_, 1
	rest 1
	note C_, 1
	rest 1
	note C_, 1
	rest 1
	note C_, 1
	rest 1
	octave 2
	note A#, 1
	rest 1
	note A#, 1
	rest 1
	note A#, 1
	rest 1
	note A#, 1
	rest 1
	note A#, 1
	rest 1
	note A#, 1
	rest 1
	note A#, 1
	rest 1
	note A#, 1
	rest 1
	note A#, 1
	rest 1
	note A#, 1
	rest 1
	note A#, 1
	rest 1
	note A#, 1
	rest 1
	note A#, 1
	rest 1
	note A#, 1
	rest 1
	note A#, 1
	rest 1
	note A#, 1
	rest 1
	octave 3
	note C_, 1
	rest 1
	note C_, 1
	rest 1
	note C_, 1
	rest 1
	note C_, 1
	rest 1
	note C_, 1
	rest 1
	note C_, 1
	rest 1
	note C_, 1
	rest 1
	note C_, 1
	rest 1
	note C_, 1
	rest 1
	note C_, 1
	rest 1
	note C_, 1
	rest 1
	note C_, 1
	rest 1
	note C_, 1
	rest 1
	note C_, 1
	rest 1
	note C_, 1
	rest 1
	note C_, 1
	rest 1
	octave 2
	note A#, 1
	rest 1
	note A#, 1
	rest 1
	note A#, 1
	rest 1
	note A#, 1
	rest 1
	note A#, 1
	rest 1
	note A#, 1
	rest 1
	note A#, 1
	rest 1
	note A#, 1
	rest 1
	note A#, 1
	rest 1
	note A#, 1
	rest 1
	note A#, 1
	rest 1
	note A#, 1
	rest 1
	note A#, 1
	rest 1
	note A#, 1
	rest 1
	note A#, 1
	rest 1
	note A#, 1
	rest 1
	octave 3
	note C_, 1
	rest 1
	note C_, 1
	rest 1
	note C_, 1
	rest 1
	note C_, 1
	rest 1
	note C_, 1
	rest 1
	note C_, 1
	rest 1
	note C_, 1
	rest 1
	note C_, 1
	rest 1
	note C_, 1
	rest 1
	note C_, 1
	rest 1
	note C_, 1
	rest 1
	note C_, 1
	rest 1
	note C_, 1
	rest 1
	note C_, 1
	rest 1
	note C_, 1
	rest 1
	note C_, 1
	rest 1
	octave 2
	note A#, 1
	rest 1
	note A#, 1
	rest 1
	note A#, 1
	rest 1
	note A#, 1
	rest 1
	note A#, 1
	rest 1
	note A#, 1
	rest 1
	note A#, 1
	rest 1
	note A#, 1
	rest 1
	note A#, 1
	rest 1
	note A#, 1
	rest 1
	note A#, 1
	rest 1
	note A#, 1
	rest 1
	note A#, 1
	rest 1
	note A#, 1
	rest 1
	note A#, 1
	rest 1
	note A#, 1
	rest 1
	note G#, 1
	rest 1
	note G#, 1
	rest 1
	note G#, 1
	rest 1
	note G#, 1
	rest 1
	note G#, 1
	rest 1
	note G#, 1
	rest 1
	note G#, 1
	rest 1
	note G_, 1
	rest 1
	note G_, 1
	rest 1
	note G_, 1
	rest 1
	note G_, 1
	rest 1
	note G_, 1
	rest 1
	note G_, 1
	rest 1
	note G_, 1
	rest 1
	note G_, 1
	rest 1
	note G_, 1
	rest 1
	octave 3
	note C_, 1
	rest 1
	note C_, 1
	rest 1
	note C_, 1
	rest 1
	note C_, 1
	rest 1
	note C_, 1
	rest 1
	note C_, 1
	rest 1
	note C_, 1
	rest 1
	octave 2
	note A#, 1
	rest 1
	note A#, 1
	rest 1
	note A#, 1
	rest 1
	note A#, 1
	rest 1
	octave 3
	note D#, 1
	rest 1
	note D#, 1
	rest 1
	note D#, 1
	rest 1
	note D#, 1
	rest 1
	octave 2
	note G#, 1
	rest 1
	note G#, 1
	rest 1
	note G#, 1
	rest 1
	note G#, 1
	rest 1
	note G#, 1
	rest 1
	note G#, 1
	rest 1
	note G_, 1
	rest 1
	note G_, 1
	rest 1
	note F_, 1
	rest 1
	note F_, 1
	rest 1
	note F_, 1
	rest 1
	note F_, 1
	rest 1
	note A#, 1
	rest 9
	octave 3
	note C_, 1
	rest 1
	note C_, 1
	rest 1
	note C_, 1
	rest 1
	note C_, 1
	rest 1
	note C_, 1
	rest 1
	note C_, 1
	rest 1
	note C_, 1
	rest 1
	note C_, 1
	rest 1
	note C_, 1
	rest 1
	note C_, 1
	rest 1
	note C_, 1
	rest 1
	note C_, 1
	rest 1
	note C_, 1
	rest 1
	note C_, 1
	rest 1
	note C_, 1
	rest 1
	note C_, 1
	rest 1
	octave 2
	note A#, 1
	rest 1
	note A#, 1
	rest 1
	note A#, 1
	rest 1
	note A#, 1
	rest 1
	note A#, 1
	rest 1
	note A#, 1
	rest 1
	note A#, 1
	rest 1
	note A#, 1
	rest 1
	note A#, 1
	rest 1
	note A#, 1
	rest 1
	note A#, 1
	rest 1
	note A#, 1
	rest 1
	note A#, 1
	rest 1
	note A#, 1
	rest 1
	note A#, 1
	rest 1
	note A#, 1
	rest 1
	octave 3
	note C_, 1
	rest 1
	note C_, 1
	rest 1
	note C_, 1
	rest 1
	note C_, 1
	rest 1
	note C_, 1
	rest 1
	note C_, 1
	rest 1
	note C_, 1
	rest 1
	note C_, 1
	rest 1
	note C_, 1
	rest 1
	note C_, 1
	rest 1
	note C_, 1
	rest 1
	note C_, 1
	rest 1
	note C_, 1
	rest 1
	note C_, 1
	rest 1
	note C_, 1
	rest 1
	note C_, 1
	rest 1
	octave 2
	note A#, 1
	rest 1
	note A#, 1
	rest 1
	note A#, 1
	rest 1
	note A#, 1
	rest 1
	note A#, 1
	rest 1
	note A#, 1
	rest 1
	note A#, 1
	rest 1
	note A#, 1
	rest 1
	note A#, 1
	rest 1
	note A#, 1
	rest 1
	note A#, 1
	rest 1
	note A#, 1
	rest 1
	note A#, 1
	rest 1
	note A#, 1
	rest 1
	note A#, 1
	rest 1
	note A#, 1
	rest 1
	sound_jump Music_ESwat_Round2_Ch1_loop

Music_ESwat_Round2_Ch2:
	duty_cycle 2
	note_type 12, 11, 7
Music_ESwat_Round2_Ch2_loop:
	octave 4
	volume_envelope 10, 7
	note F_, 1
	rest 1
	note F_, 1
	rest 1
	note F_, 1
	rest 1
	note D#, 1
	rest 5
	note F_, 1
	rest 1
	note F_, 1
	rest 1
	note F_, 1
	rest 1
	note D#, 1
	rest 5
	note F_, 1
	rest 1
	note F_, 1
	rest 1
	note D#, 1
	rest 3
	note D#, 1
	rest 1
	note D#, 1
	rest 1
	note D#, 1
	rest 1
	note D_, 1
	rest 5
	note D#, 1
	rest 1
	note D#, 1
	rest 1
	note D#, 1
	rest 1
	note D_, 1
	rest 5
	note D#, 1
	rest 1
	note D#, 1
	rest 1
	note D_, 1
	rest 3
	note F_, 1
	rest 1
	note F_, 1
	rest 1
	note F_, 1
	rest 1
	note D#, 1
	rest 5
	note F_, 1
	rest 1
	note F_, 1
	rest 1
	note F_, 1
	rest 1
	note D#, 1
	rest 5
	note F_, 1
	rest 1
	note F_, 1
	rest 1
	note D#, 1
	rest 3
	note D#, 1
	rest 1
	note D#, 1
	rest 1
	note D#, 1
	rest 1
	note D_, 1
	rest 5
	note D#, 1
	rest 1
	note D#, 1
	rest 1
	note D#, 1
	rest 1
	note D_, 1
	rest 5
	note D#, 1
	rest 1
	note D#, 1
	rest 1
	note D_, 1
	rest 3
	octave 5
	note F_, 2
	note D_, 2
	octave 4
	note A#, 2
	note G_, 12
	note D_, 2
	note D#, 2
	note G_, 2
	note A#, 2
	octave 5
	note D_, 2
	note C_, 2
	note F_, 6
	note D_, 2
	note D#, 4
	note C_, 2
	note D_, 4
	octave 4
	note A#, 2
	octave 5
	note C_, 4
	octave 4
	note G#, 2
	note A#, 2
	note G_, 2
	note G#, 2
	note F_, 2
	octave 5
	note F_, 2
	note D_, 2
	octave 4
	note A#, 2
	note G_, 12
	note D_, 2
	note D#, 2
	note G_, 2
	note A#, 2
	octave 5
	note D_, 2
	note C_, 2
	note F_, 6
	note D_, 2
	note D#, 4
	note C_, 2
	note D_, 4
	octave 4
	note A#, 2
	octave 5
	note C_, 4
	octave 4
	note G#, 2
	note A#, 2
	octave 5
	note C_, 2
	note D#, 2
	note F_, 2
	note G_, 10
	note F_, 1
	rest 1
	note G_, 1
	rest 1
	note A#, 1
	rest 3
	note G#, 1
	rest 3
	note G_, 1
	rest 3
	note G#, 1
	rest 3
	note F_, 12
	note D#, 1
	rest 1
	note F_, 1
	rest 1
	octave 6
	note C_, 1
	rest 3
	octave 5
	note A#, 1
	rest 3
	note G#, 1
	rest 3
	note A#, 1
	rest 3
	note G_, 12
	note F_, 1
	rest 3
	note D#, 8
	note F_, 1
	rest 3
	note D_, 2
	octave 4
	note A#, 2
	note G_, 2
	note F_, 2
	note G_, 1
	rest 3
	note G_, 14
	rest 12
	note D#, 1
	rest 1
	note D#, 1
	rest 1
	note D#, 1
	rest 1
	note D_, 1
	rest 5
	note D#, 1
	rest 1
	note D#, 1
	rest 1
	note D#, 1
	rest 1
	note D_, 1
	rest 5
	note D#, 1
	rest 1
	note D#, 1
	rest 1
	note D_, 1
	rest 3
	note F_, 1
	rest 1
	note F_, 1
	rest 1
	note F_, 1
	rest 1
	note D#, 1
	rest 5
	note F_, 1
	rest 1
	note F_, 1
	rest 1
	note F_, 1
	rest 1
	note D#, 1
	rest 5
	note F_, 1
	rest 1
	note F_, 1
	rest 1
	note D#, 1
	rest 3
	note D#, 1
	rest 1
	note D#, 1
	rest 1
	note D#, 1
	rest 1
	note D_, 1
	rest 5
	note D#, 1
	rest 1
	note D#, 1
	rest 1
	note D#, 1
	rest 1
	note D_, 1
	rest 5
	note D#, 1
	rest 1
	note D#, 1
	rest 1
	note D_, 1
	rest 3
	sound_jump Music_ESwat_Round2_Ch2_loop

Music_ESwat_Round2_Ch3:
	note_type 12, 2, 5
Music_ESwat_Round2_Ch3_loop:
	octave 5
	note D_, 1
	rest 1
	note D_, 1
	rest 1
	note D_, 1
	rest 1
	note C_, 1
	rest 5
	note D_, 1
	rest 1
	note D_, 1
	rest 1
	note D_, 1
	rest 1
	note C_, 1
	rest 5
	note D_, 1
	rest 1
	note D_, 1
	rest 1
	note C_, 1
	rest 3
	note C_, 1
	rest 1
	note C_, 1
	rest 1
	note C_, 1
	rest 1
	octave 4
	note A#, 1
	rest 5
	octave 5
	note C_, 1
	rest 1
	note C_, 1
	rest 1
	note C_, 1
	rest 1
	octave 4
	note A#, 1
	rest 5
	octave 5
	note C_, 1
	rest 1
	note C_, 1
	rest 1
	octave 4
	note A#, 1
	rest 3
	octave 5
	note D_, 1
	rest 1
	note D_, 1
	rest 1
	note D_, 1
	rest 1
	note C_, 1
	rest 5
	note D_, 1
	rest 1
	note D_, 1
	rest 1
	note D_, 1
	rest 1
	note C_, 1
	rest 5
	note D_, 1
	rest 1
	note D_, 1
	rest 1
	note C_, 1
	rest 3
	note C_, 1
	rest 1
	note C_, 1
	rest 1
	note C_, 1
	rest 1
	octave 4
	note A#, 1
	rest 5
	octave 5
	note C_, 1
	rest 1
	note C_, 1
	rest 1
	note C_, 1
	rest 1
	octave 4
	note A#, 1
	rest 5
	octave 5
	note C_, 1
	rest 1
	note C_, 1
	rest 1
	octave 4
	note A#, 1
	rest 3
	octave 5
	note F_, 1
	rest 1
	note F_, 1
	rest 1
	note F_, 1
	rest 1
	note D#, 1
	rest 5
	note F_, 1
	rest 1
	note F_, 1
	rest 1
	note F_, 1
	rest 1
	note D#, 1
	rest 5
	note F_, 1
	rest 1
	note F_, 1
	rest 1
	note D#, 1
	rest 3
	note D#, 1
	rest 1
	note D#, 1
	rest 1
	note D#, 1
	rest 1
	note D_, 1
	rest 5
	note D#, 1
	rest 1
	note D#, 1
	rest 1
	note D#, 1
	rest 1
	note D_, 1
	rest 5
	note D#, 1
	rest 1
	note D#, 1
	rest 1
	note D_, 1
	rest 3
	note F_, 1
	rest 1
	note F_, 1
	rest 1
	note F_, 1
	rest 1
	note D#, 1
	rest 5
	note F_, 1
	rest 1
	note F_, 1
	rest 1
	note F_, 1
	rest 1
	note D#, 1
	rest 5
	note F_, 1
	rest 1
	note F_, 1
	rest 1
	note D#, 1
	rest 3
	note D#, 1
	rest 1
	note D#, 1
	rest 1
	note D#, 1
	rest 1
	note D_, 1
	rest 5
	note D#, 1
	rest 1
	note D#, 1
	rest 1
	note D#, 1
	rest 1
	note D_, 1
	rest 5
	note D#, 1
	rest 1
	note D#, 1
	rest 1
	note D_, 1
	rest 3
	octave 4
	note G#, 12
	rest 2
	note G_, 1
	rest 3
	octave 5
	note D#, 1
	rest 3
	note D#, 1
	rest 3
	note G#, 1
	rest 3
	octave 4
	note G_, 14
	rest 2
	octave 5
	note F_, 1
	rest 3
	octave 4
	note A#, 1
	rest 3
	note A#, 1
	rest 3
	octave 5
	note A#, 1
	rest 3
	note G_, 10
	rest 2
	octave 4
	note G_, 1
	rest 3
	note F_, 7
	rest 1
	octave 5
	note F_, 1
	rest 9
	note D_, 1
	rest 1
	note D_, 1
	rest 1
	note D_, 1
	rest 1
	note C_, 1
	rest 5
	note D_, 1
	rest 1
	note D_, 1
	rest 1
	note D_, 1
	rest 1
	note C_, 1
	rest 5
	note D_, 1
	rest 1
	note D_, 1
	rest 1
	note C_, 1
	rest 3
	note C_, 1
	rest 1
	note C_, 1
	rest 1
	note C_, 1
	rest 1
	octave 4
	note A#, 1
	rest 5
	octave 5
	note C_, 1
	rest 1
	note C_, 1
	rest 1
	note C_, 1
	rest 1
	octave 4
	note A#, 1
	rest 5
	octave 5
	note C_, 1
	rest 1
	note C_, 1
	rest 1
	octave 4
	note A#, 1
	rest 3
	octave 5
	note D_, 1
	rest 1
	note D_, 1
	rest 1
	note D_, 1
	rest 1
	note C_, 1
	rest 5
	note D_, 1
	rest 1
	note D_, 1
	rest 1
	note D_, 1
	rest 1
	note C_, 1
	rest 5
	note D_, 1
	rest 1
	note D_, 1
	rest 1
	note C_, 1
	rest 3
	note C_, 1
	rest 1
	note C_, 1
	rest 1
	note C_, 1
	rest 1
	octave 4
	note A#, 1
	rest 5
	octave 5
	note C_, 1
	rest 1
	note C_, 1
	rest 1
	note C_, 1
	rest 1
	octave 4
	note A#, 1
	rest 5
	octave 5
	note C_, 1
	rest 1
	note C_, 1
	rest 1
	octave 4
	note A#, 1
	rest 3
	sound_jump Music_ESwat_Round2_Ch3_loop

Music_ESwat_Round2_Ch4:
	toggle_noise 1
	drum_speed 12
Music_ESwat_Round2_Ch4_loop:
	drum_note 11, 2
	drum_note 11, 2
	drum_note 3, 2
	drum_note 11, 2
	drum_note 11, 2
	drum_note 11, 2
	drum_note 3, 2
	drum_note 11, 2
	drum_note 11, 2
	drum_note 11, 2
	drum_note 3, 2
	drum_note 11, 2
	drum_note 11, 2
	drum_note 11, 2
	drum_note 3, 2
	drum_note 11, 2
	drum_note 11, 2
	drum_note 11, 2
	drum_note 3, 2
	drum_note 11, 2
	drum_note 11, 2
	drum_note 11, 2
	drum_note 3, 2
	drum_note 11, 2
	drum_note 11, 2
	drum_note 11, 2
	drum_note 3, 2
	drum_note 11, 2
	drum_note 3, 1
	drum_note 3, 1
	drum_note 3, 2
	drum_note 3, 2
	drum_note 3, 1
	drum_note 3, 1
	drum_note 11, 2
	drum_note 11, 2
	drum_note 3, 2
	drum_note 11, 2
	drum_note 11, 2
	drum_note 11, 2
	drum_note 3, 2
	drum_note 11, 2
	drum_note 11, 2
	drum_note 11, 2
	drum_note 3, 2
	drum_note 11, 2
	drum_note 11, 2
	drum_note 11, 2
	drum_note 3, 2
	drum_note 11, 2
	drum_note 11, 2
	drum_note 11, 2
	drum_note 3, 2
	drum_note 11, 2
	drum_note 11, 2
	drum_note 11, 2
	drum_note 3, 2
	drum_note 11, 2
	drum_note 11, 2
	drum_note 11, 2
	drum_note 3, 2
	drum_note 11, 2
	drum_note 3, 1
	drum_note 3, 1
	drum_note 3, 2
	drum_note 3, 1
	drum_note 3, 1
	drum_note 3, 1
	drum_note 3, 1
	drum_note 11, 2
	drum_note 11, 2
	drum_note 3, 2
	drum_note 11, 2
	drum_note 11, 2
	drum_note 11, 2
	drum_note 3, 2
	drum_note 11, 2
	drum_note 11, 2
	drum_note 11, 2
	drum_note 3, 2
	drum_note 11, 2
	drum_note 11, 2
	drum_note 11, 2
	drum_note 3, 2
	drum_note 11, 2
	drum_note 11, 2
	drum_note 11, 2
	drum_note 3, 2
	drum_note 11, 2
	drum_note 11, 2
	drum_note 11, 2
	drum_note 3, 2
	drum_note 11, 2
	drum_note 11, 2
	drum_note 11, 2
	drum_note 3, 2
	drum_note 11, 2
	drum_note 3, 1
	drum_note 3, 1
	drum_note 3, 2
	drum_note 3, 2
	drum_note 3, 1
	drum_note 3, 1
	drum_note 11, 2
	drum_note 11, 2
	drum_note 3, 2
	drum_note 11, 2
	drum_note 11, 2
	drum_note 11, 2
	drum_note 3, 2
	drum_note 11, 2
	drum_note 11, 2
	drum_note 11, 2
	drum_note 3, 2
	drum_note 11, 2
	drum_note 11, 2
	drum_note 11, 2
	drum_note 3, 2
	drum_note 11, 2
	drum_note 11, 2
	drum_note 11, 2
	drum_note 3, 2
	drum_note 11, 2
	drum_note 11, 2
	drum_note 11, 2
	drum_note 3, 2
	drum_note 11, 2
	drum_note 11, 2
	drum_note 11, 2
	drum_note 3, 2
	drum_note 11, 2
	drum_note 3, 1
	drum_note 3, 1
	drum_note 3, 2
	drum_note 3, 1
	drum_note 3, 1
	drum_note 3, 1
	drum_note 3, 1
	drum_note 11, 2
	drum_note 11, 2
	drum_note 3, 2
	drum_note 11, 2
	drum_note 11, 2
	drum_note 11, 2
	drum_note 3, 2
	drum_note 11, 2
	drum_note 11, 2
	drum_note 11, 2
	drum_note 3, 2
	drum_note 11, 2
	drum_note 11, 2
	drum_note 11, 2
	drum_note 3, 2
	drum_note 11, 2
	drum_note 11, 2
	drum_note 11, 2
	drum_note 3, 2
	drum_note 11, 2
	drum_note 11, 2
	drum_note 11, 2
	drum_note 3, 2
	drum_note 11, 2
	drum_note 11, 2
	drum_note 11, 2
	drum_note 3, 2
	drum_note 11, 2
	drum_note 11, 2
	drum_note 11, 2
	drum_note 3, 2
	drum_note 11, 2
	drum_note 11, 2
	drum_note 11, 2
	drum_note 3, 2
	drum_note 11, 2
	drum_note 3, 2
	drum_note 3, 2
	drum_note 11, 2
	drum_note 11, 2
	drum_note 11, 2
	drum_note 11, 2
	drum_note 11, 2
	drum_note 11, 2
	drum_note 11, 1
	drum_note 3, 1
	drum_note 3, 2
	drum_note 3, 2
	drum_note 3, 1
	drum_note 3, 1
	drum_note 11, 2
	drum_note 11, 2
	drum_note 3, 2
	drum_note 11, 2
	drum_note 11, 2
	drum_note 11, 2
	drum_note 3, 2
	drum_note 11, 2
	drum_note 11, 2
	drum_note 11, 2
	drum_note 3, 2
	drum_note 11, 2
	drum_note 11, 2
	drum_note 11, 2
	drum_note 3, 2
	drum_note 11, 2
	drum_note 11, 2
	drum_note 11, 2
	drum_note 3, 2
	drum_note 11, 2
	drum_note 11, 2
	drum_note 11, 2
	drum_note 3, 2
	drum_note 11, 2
	drum_note 11, 2
	drum_note 11, 2
	drum_note 3, 2
	drum_note 11, 2
	drum_note 3, 1
	drum_note 3, 1
	drum_note 3, 2
	drum_note 3, 2
	drum_note 3, 1
	drum_note 3, 1
	drum_note 11, 2
	drum_note 11, 2
	drum_note 3, 2
	drum_note 11, 2
	drum_note 11, 2
	drum_note 11, 2
	drum_note 3, 2
	drum_note 11, 2
	drum_note 11, 2
	drum_note 11, 2
	drum_note 3, 2
	drum_note 11, 2
	drum_note 11, 2
	drum_note 11, 2
	drum_note 3, 2
	drum_note 11, 2
	drum_note 11, 2
	drum_note 11, 2
	drum_note 3, 2
	drum_note 11, 2
	drum_note 11, 2
	drum_note 11, 2
	drum_note 3, 2
	drum_note 11, 2
	drum_note 11, 2
	drum_note 11, 2
	drum_note 3, 2
	drum_note 11, 2
	drum_note 3, 1
	drum_note 3, 1
	drum_note 3, 2
	drum_note 3, 1
	drum_note 3, 1
	drum_note 3, 1
	drum_note 3, 1
	sound_jump Music_ESwat_Round2_Ch4_loop
