Music_GF2_AloneFighter:
	channel_count 4
	channel 1, Music_GF2_AloneFighter_Ch1
	channel 2, Music_GF2_AloneFighter_Ch2
	channel 3, Music_GF2_AloneFighter_Ch3
	channel 4, Music_GF2_AloneFighter_Ch4

Music_GF2_AloneFighter_Ch1:
	volume 7, 7
	duty_cycle 2
	note_type 12, 10, 7
	tempo 136
	rest 3
	octave 2
	note A_, 1
Music_GF2_AloneFighter_Ch1_loop:
	volume_envelope 10, 7
	note A_, 1
	note A_, 2
	volume_envelope 11, 7
	note A_, 1
	octave 3
	note G_, 1
	note A_, 1
	octave 2
	note A_, 1
	volume_envelope 10, 7
	note A_, 5
	note E_, 2
	volume_envelope 11, 7
	note G_, 1
	volume_envelope 10, 7
	note F_, 2
	note F_, 2
	volume_envelope 11, 7
	note F_, 1
	octave 3
	note E_, 1
	note F_, 1
	octave 2
	note F_, 1
	volume_envelope 10, 7
	note F_, 2
	note F_, 2
	volume_envelope 11, 7
	note F_, 1
	volume_envelope 10, 7
	note G_, 3
	volume_envelope 11, 7
	note A_, 2
	volume_envelope 10, 7
	note A_, 2
	volume_envelope 11, 7
	note A_, 1
	octave 3
	note G_, 1
	note A_, 1
	octave 2
	note A_, 1
	volume_envelope 10, 7
	note A_, 5
	note E_, 2
	volume_envelope 11, 7
	note G_, 1
	note F_, 2
	note F_, 2
	note F_, 1
	octave 3
	note E_, 1
	note F_, 1
	octave 2
	note F_, 1
	note F_, 2
	note D_, 1
	octave 3
	note D_, 1
	octave 2
	note D_, 1
	note E_, 1
	octave 3
	note E_, 3
	octave 2
	note A_, 1
	note A_, 2
	note A_, 1
	octave 3
	note G_, 1
	note A_, 1
	octave 2
	note A_, 1
	volume_envelope 10, 7
	note A_, 5
	note E_, 2
	volume_envelope 11, 7
	note G_, 1
	volume_envelope 10, 7
	note F_, 2
	note F_, 2
	volume_envelope 11, 7
	note F_, 1
	octave 3
	note E_, 1
	note F_, 1
	octave 2
	note F_, 1
	volume_envelope 10, 7
	note F_, 2
	volume_envelope 11, 7
	note F_, 2
	note F_, 1
	volume_envelope 10, 7
	note G_, 3
	volume_envelope 11, 7
	note A_, 2
	volume_envelope 10, 7
	note A_, 2
	volume_envelope 11, 7
	note A_, 1
	octave 3
	note G_, 1
	note A_, 1
	octave 2
	note A_, 1
	volume_envelope 10, 7
	note A_, 5
	note E_, 2
	volume_envelope 11, 7
	note G_, 1
	note F_, 2
	volume_envelope 10, 7
	note F_, 2
	volume_envelope 11, 7
	note F_, 1
	octave 3
	note E_, 1
	note F_, 1
	octave 2
	note E_, 1
	volume_envelope 10, 7
	note D_, 2
	volume_envelope 11, 7
	note D_, 1
	octave 3
	note D_, 1
	octave 2
	note D_, 1
	note E_, 1
	octave 3
	note E_, 1
	note G_, 1
	octave 2
	note D_, 1
	volume_envelope 10, 7
	note G_, 3
	note A_, 2
	rest 8
	volume_envelope 11, 7
	note B_, 1
	note G_, 1
	note E_, 1
	note G_, 3
	volume_envelope 10, 7
	note A_, 2
	rest 10
	volume_envelope 11, 7
	note G_, 1
	volume_envelope 10, 7
	note G_, 3
	note A_, 2
	rest 8
	volume_envelope 11, 7
	note A_, 1
	note G_, 1
	note E_, 1
	note G_, 3
	volume_envelope 10, 7
	note A_, 2
	volume_envelope 11, 7
	note D_, 1
	note E_, 1
	note G_, 1
	volume_envelope 10, 7
	note B_, 3
	note G_, 3
	volume_envelope 11, 7
	note E_, 2
	volume_envelope 10, 7
	note F_, 3
	note F_, 2
	rest 5
	octave 3
	note D_, 2
	volume_envelope 11, 7
	note C_, 1
	octave 2
	volume_envelope 10, 7
	note B_, 3
	volume_envelope 11, 7
	note G_, 3
	volume_envelope 10, 7
	note G_, 2
	rest 5
	octave 3
	volume_envelope 11, 7
	note E_, 2
	note D_, 1
	volume_envelope 10, 7
	note C_, 3
	octave 2
	volume_envelope 11, 7
	note F_, 1
	note F_, 1
	note E_, 1
	note F_, 1
	rest 4
	volume_envelope 10, 7
	note F_, 3
	note F_, 2
	rest 3
	note F_, 5
	volume_envelope 11, 7
	note D_, 1
	octave 3
	note D_, 1
	octave 2
	note D_, 1
	volume_envelope 10, 7
	note D_, 3
	volume_envelope 11, 7
	note E_, 3
	volume_envelope 10, 7
	note E_, 2
	note G_, 3
	volume_envelope 11, 7
	note A_, 2
	rest 8
	note B_, 1
	note G_, 1
	note E_, 1
	note G_, 3
	volume_envelope 10, 7
	note A_, 2
	rest 10
	volume_envelope 11, 7
	note G_, 1
	volume_envelope 10, 7
	note G_, 3
	volume_envelope 11, 7
	note A_, 2
	rest 8
	note A_, 1
	note G_, 1
	note E_, 1
	volume_envelope 10, 7
	note G_, 3
	note A_, 2
	volume_envelope 11, 7
	note D_, 1
	note E_, 1
	note G_, 1
	note B_, 3
	volume_envelope 10, 7
	note G_, 3
	volume_envelope 11, 7
	note E_, 2
	note F_, 3
	volume_envelope 10, 7
	note F_, 2
	rest 5
	octave 3
	note D_, 2
	volume_envelope 11, 7
	note C_, 1
	octave 2
	note B_, 3
	volume_envelope 10, 7
	note G_, 3
	note G_, 2
	rest 5
	octave 3
	note E_, 2
	volume_envelope 11, 7
	note D_, 1
	volume_envelope 10, 7
	note C_, 3
	octave 2
	note F_, 3
	note F_, 2
	octave 3
	volume_envelope 11, 7
	note E_, 1
	note F_, 1
	octave 2
	note F_, 1
	note E_, 3
	octave 3
	note C_, 2
	octave 2
	note B_, 2
	volume_envelope 10, 7
	note G_, 7
	note G_, 2
	octave 3
	note G_, 2
	octave 2
	volume_envelope 11, 7
	note G_, 1
	octave 3
	note F_, 2
	volume_envelope 10, 7
	note E_, 2
	octave 2
	volume_envelope 11, 7
	note G_, 1
	octave 3
	note D_, 1
	note E_, 1
	rest 1
	octave 2
	note F_, 1
	rest 5
	note F_, 1
	rest 2
	note F_, 3
	note F_, 1
	rest 1
	note F_, 1
	volume_envelope 10, 7
	note F_, 6
	note E_, 3
	volume_envelope 11, 7
	note F_, 5
	octave 3
	note D_, 1
	note E_, 1
	rest 1
	octave 2
	note G_, 1
	rest 5
	note G_, 1
	rest 2
	note G_, 3
	note G_, 1
	rest 1
	note G_, 1
	volume_envelope 10, 7
	note G_, 6
	note F_, 3
	note G_, 5
	note D_, 3
	note D_, 2
	rest 7
	volume_envelope 11, 7
	note D_, 1
	octave 3
	volume_envelope 10, 7
	note D_, 3
	octave 2
	volume_envelope 11, 7
	note E_, 3
	volume_envelope 10, 7
	note E_, 2
	rest 7
	volume_envelope 11, 7
	note E_, 1
	octave 3
	note E_, 3
	octave 2
	volume_envelope 10, 7
	note D_, 3
	volume_envelope 11, 7
	note E_, 1
	rest 2
	volume_envelope 10, 7
	note A_, 7
	volume_envelope 11, 7
	note A_, 1
	octave 3
	note A_, 1
	octave 2
	note A_, 1
	octave 3
	volume_envelope 10, 7
	note E_, 3
	note A_, 3
	octave 2
	note A_, 9
	rest 1
	octave 3
	volume_envelope 11, 7
	note E_, 1
	note F_, 1
	octave 2
	note F_, 1
	note F_, 1
	rest 2
	octave 3
	note E_, 1
	note F_, 1
	rest 1
	octave 2
	note F_, 1
	rest 1
	note F_, 1
	octave 3
	note D_, 1
	octave 2
	note F_, 1
	octave 3
	note E_, 1
	rest 1
	note E_, 1
	note F_, 1
	octave 2
	note F_, 1
	note F_, 1
	rest 3
	note D_, 1
	rest 1
	note D_, 1
	octave 3
	note C_, 1
	octave 2
	note D_, 1
	volume_envelope 10, 7
	note E_, 4
	octave 3
	volume_envelope 11, 7
	note F_, 1
	note G_, 1
	octave 2
	note G_, 1
	note G_, 1
	rest 2
	octave 3
	note F_, 1
	note G_, 1
	octave 2
	note F_, 1
	note F_, 1
	rest 2
	octave 3
	note F_, 1
	note G_, 1
	octave 2
	note G_, 1
	note G_, 1
	octave 3
	note F_, 1
	note G_, 1
	octave 2
	note G_, 1
	note G_, 1
	rest 3
	note D_, 1
	rest 1
	note D_, 1
	octave 3
	note D_, 1
	octave 2
	note D_, 1
	volume_envelope 10, 7
	note B_, 4
	volume_envelope 11, 7
	note D_, 1
	note D_, 1
	octave 3
	note D_, 1
	octave 2
	note D_, 1
	rest 5
	note D_, 1
	rest 1
	note D_, 1
	octave 3
	note D_, 1
	octave 2
	note D_, 1
	note D_, 1
	note D_, 1
	note E_, 1
	note E_, 1
	octave 3
	note E_, 1
	octave 2
	note E_, 1
	rest 5
	note E_, 1
	rest 1
	note E_, 1
	octave 3
	note E_, 1
	note F_, 1
	note E_, 1
	rest 1
	octave 2
	note F_, 1
	note F_, 1
	note F_, 1
	octave 3
	note G_, 1
	rest 1
	octave 2
	note F_, 1
	octave 3
	note E_, 1
	note F_, 1
	octave 2
	note F_, 1
	note F_, 1
	octave 3
	note F_, 1
	rest 1
	octave 2
	note E_, 1
	note F_, 1
	rest 1
	note G_, 1
	note G_, 3
	note G_, 1
	octave 3
	note G_, 1
	octave 2
	volume_envelope 10, 7
	note G_, 2
	note G#, 4
	volume_envelope 11, 7
	note G#, 1
	octave 3
	note G#, 1
	octave 2
	note G#, 2
	note A_, 1
	sound_jump Music_GF2_AloneFighter_Ch1_loop

Music_GF2_AloneFighter_Ch2:
	duty_cycle 1
	note_type 12, 11, 7
	octave 3
	note E_, 4
Music_GF2_AloneFighter_Ch2_loop:
	octave 4
	note E_, 8
	note E_, 2
	note D_, 1
	rest 1
	note C_, 2
	octave 3
	note B_, 1
	octave 4
	note D_, 9
	octave 3
	note B_, 1
	octave 4
	note C_, 1
	octave 3
	note B_, 1
	note A_, 1
	note G_, 1
	note E_, 1
	rest 1
	note A_, 1
	rest 1
	note E_, 11
	octave 4
	note E_, 3
	note D_, 15
	octave 3
	note E_, 2
	octave 4
	note E_, 10
	note D_, 1
	rest 1
	note C_, 2
	octave 3
	note B_, 1
	octave 4
	note D_, 9
	octave 3
	note B_, 1
	octave 4
	note C_, 1
	octave 3
	note B_, 1
	note A_, 1
	note G_, 1
	note E_, 1
	rest 1
	note A_, 1
	rest 1
	octave 4
	note E_, 11
	note A_, 3
	note G_, 16
	note G_, 1
	octave 3
	note E_, 16
	note E_, 10
	note D_, 3
	note C_, 3
	octave 2
	note B_, 3
	octave 3
	note C_, 3
	octave 2
	note A_, 16
	note A_, 2
	rest 6
	note A_, 1
	note B_, 1
	octave 3
	note C_, 1
	octave 2
	note B_, 1
	octave 3
	note C_, 10
	octave 2
	note B_, 3
	octave 3
	note D_, 13
	octave 2
	note G_, 4
	octave 3
	note E_, 16
	note E_, 4
	rest 10
	octave 2
	note B_, 1
	octave 3
	note C_, 1
	octave 2
	note B_, 13
	octave 3
	note C_, 2
	note D_, 1
	octave 2
	note B_, 8
	note B_, 3
	octave 3
	note C_, 3
	octave 2
	note B_, 2
	note G_, 1
	note A_, 11
	octave 3
	note D_, 3
	note C_, 15
	octave 2
	note A_, 1
	note B_, 1
	octave 3
	note C_, 1
	octave 2
	note B_, 1
	octave 3
	note C_, 10
	octave 2
	note B_, 1
	octave 3
	note C_, 1
	note D_, 14
	octave 2
	note G_, 3
	octave 3
	note E_, 16
	note E_, 1
	note E_, 16
	rest 12
	octave 4
	note D_, 4
	note C_, 8
	octave 3
	note B_, 3
	octave 4
	note C_, 3
	octave 3
	note B_, 2
	note G_, 1
	note A_, 11
	octave 4
	note D_, 3
	octave 3
	note B_, 13
	note B_, 1
	octave 4
	note C_, 1
	octave 3
	note B_, 1
	note G_, 13
	note F_, 3
	note E_, 13
	note D_, 1
	note E_, 1
	note D_, 1
	note C_, 16
	note C_, 1
	note C_, 8
	octave 2
	note B_, 3
	octave 3
	note C_, 3
	octave 2
	note B_, 2
	note G_, 1
	note A_, 11
	octave 3
	note E_, 3
	note D_, 9
	octave 2
	note B_, 3
	octave 3
	note C_, 2
	octave 2
	note B_, 2
	note G_, 13
	octave 3
	note D_, 3
	note C_, 9
	octave 2
	note B_, 3
	octave 3
	note C_, 3
	octave 2
	note B_, 2
	note G_, 1
	note A_, 11
	octave 3
	note E_, 3
	note D_, 9
	note C_, 3
	octave 2
	note B_, 3
	octave 3
	note C_, 2
	note D_, 1
	note E_, 11
	octave 4
	note C_, 3
	octave 3
	note B_, 16
	note B_, 1
	sound_jump Music_GF2_AloneFighter_Ch2_loop

Music_GF2_AloneFighter_Ch3:
	note_type 12, 2, 3
	rest 4
Music_GF2_AloneFighter_Ch3_loop:
	rest 4
	octave 4
	volume_envelope 2, 4
	note B_, 3
	octave 5
	note C_, 5
	rest 10
	octave 4
	note A_, 5
	rest 9
	note B_, 3
	octave 5
	note C_, 5
	rest 10
	octave 4
	note A_, 5
	rest 9
	note B_, 3
	octave 5
	note C_, 5
	rest 10
	octave 4
	note A_, 5
	rest 9
	note B_, 3
	octave 5
	note C_, 5
	rest 8
	octave 4
	note G_, 2
	rest 1
	note G_, 1
	rest 1
	note A_, 1
	rest 6
	note B_, 13
	octave 6
	note E_, 1
	octave 5
	note B_, 1
	note A_, 1
	octave 6
	note D_, 1
	octave 5
	note A_, 1
	note G_, 16
	note G_, 11
	octave 4
	note E_, 1
	octave 5
	note D_, 1
	note E_, 1
	note A_, 1
	octave 6
	note D_, 1
	note E_, 1
	note A_, 13
	rest 6
	octave 4
	note C_, 2
	octave 5
	note E_, 3
	note D_, 3
	octave 4
	note A_, 2
	rest 6
	note D_, 2
	octave 5
	note E_, 3
	note D_, 2
	octave 4
	note G_, 3
	octave 5
	note C_, 16
	note C_, 4
	rest 12
	octave 4
	note B_, 13
	octave 6
	note E_, 1
	octave 5
	note B_, 1
	note A_, 1
	octave 6
	note D_, 1
	octave 5
	note A_, 1
	note G_, 16
	note G_, 11
	octave 4
	note E_, 1
	octave 5
	note D_, 1
	note E_, 1
	note A_, 1
	octave 6
	note D_, 1
	note E_, 1
	note A_, 13
	rest 6
	octave 4
	note C_, 2
	octave 5
	note E_, 3
	note D_, 3
	octave 4
	note A_, 2
	rest 6
	note D_, 2
	octave 5
	note E_, 3
	note D_, 2
	octave 4
	note G_, 3
	octave 5
	note C_, 16
	note C_, 4
	rest 16
	rest 8
	note E_, 4
	rest 8
	note C_, 4
	octave 4
	note B_, 2
	octave 5
	note C_, 1
	octave 4
	note G_, 1
	rest 12
	note D_, 3
	rest 16
	rest 16
	rest 16
	rest 16
	rest 16
	rest 16
	rest 16
	rest 13
	octave 5
	note D_, 3
	rest 16
	rest 14
	octave 4
	note F_, 1
	note A_, 2
	rest 8
	octave 5
	note C_, 3
	octave 4
	note B_, 3
	note A_, 2
	note D_, 2
	rest 16
	rest 14
	sound_jump Music_GF2_AloneFighter_Ch3_loop

Music_GF2_AloneFighter_Ch4:
	toggle_noise 1
	drum_speed 12
	drum_note 3, 1
	drum_note 12, 1
	drum_note 12, 1
	drum_note 12, 1
Music_GF2_AloneFighter_Ch4_loop:
	drum_note 11, 1
	drum_note 12, 1
	drum_note 12, 1
	drum_note 11, 1
	drum_note 3, 1
	drum_note 11, 1
	drum_note 11, 1
	drum_note 11, 1
	drum_note 12, 1
	drum_note 12, 1
	drum_note 11, 1
	drum_note 11, 1
	drum_note 3, 1
	drum_note 11, 1
	drum_note 11, 1
	drum_note 11, 1
	drum_note 11, 1
	drum_note 12, 1
	drum_note 12, 1
	drum_note 11, 1
	drum_note 3, 1
	drum_note 11, 1
	drum_note 11, 1
	drum_note 11, 1
	drum_note 12, 1
	drum_note 12, 1
	drum_note 11, 1
	drum_note 11, 1
	drum_note 3, 1
	drum_note 12, 2
	drum_note 11, 1
	drum_note 11, 1
	drum_note 12, 1
	drum_note 12, 1
	drum_note 11, 1
	drum_note 3, 1
	drum_note 11, 1
	drum_note 11, 1
	drum_note 11, 1
	drum_note 12, 1
	drum_note 12, 1
	drum_note 11, 1
	drum_note 11, 1
	drum_note 3, 1
	drum_note 11, 1
	drum_note 11, 1
	drum_note 11, 1
	drum_note 11, 1
	drum_note 12, 1
	drum_note 12, 1
	drum_note 11, 1
	drum_note 3, 1
	drum_note 11, 1
	drum_note 11, 1
	drum_note 11, 1
	drum_note 12, 1
	drum_note 12, 1
	drum_note 11, 1
	drum_note 11, 1
	drum_note 3, 1
	drum_note 12, 2
	drum_note 11, 1
	drum_note 11, 1
	drum_note 12, 1
	drum_note 12, 1
	drum_note 11, 1
	drum_note 3, 1
	drum_note 11, 1
	drum_note 11, 1
	drum_note 11, 1
	drum_note 12, 1
	drum_note 12, 1
	drum_note 11, 1
	drum_note 11, 1
	drum_note 3, 1
	drum_note 11, 1
	drum_note 11, 1
	drum_note 11, 1
	drum_note 11, 1
	drum_note 12, 1
	drum_note 12, 1
	drum_note 11, 1
	drum_note 3, 1
	drum_note 11, 1
	drum_note 11, 1
	drum_note 11, 1
	drum_note 12, 1
	drum_note 12, 1
	drum_note 11, 1
	drum_note 11, 1
	drum_note 3, 1
	drum_note 12, 2
	drum_note 11, 1
	drum_note 11, 1
	drum_note 12, 1
	drum_note 12, 1
	drum_note 11, 1
	drum_note 3, 1
	drum_note 11, 1
	drum_note 11, 1
	drum_note 11, 1
	drum_note 12, 1
	drum_note 12, 1
	drum_note 11, 1
	drum_note 11, 1
	drum_note 3, 1
	drum_note 11, 1
	drum_note 11, 1
	drum_note 11, 1
	drum_note 11, 1
	drum_note 12, 1
	drum_note 12, 1
	drum_note 11, 1
	drum_note 12, 3
	drum_note 12, 1
	drum_note 11, 1
	drum_note 12, 1
	drum_note 11, 1
	drum_note 3, 1
	drum_note 3, 1
	drum_note 3, 1
	drum_note 3, 1
	drum_note 3, 1
	drum_note 12, 1
	drum_note 12, 1
	drum_note 11, 1
	drum_note 11, 1
	drum_note 3, 1
	drum_note 11, 1
	drum_note 11, 1
	drum_note 11, 1
	drum_note 11, 1
	drum_note 11, 1
	drum_note 11, 1
	drum_note 11, 1
	drum_note 3, 1
	drum_note 12, 1
	drum_note 11, 1
	drum_note 11, 1
	drum_note 11, 1
	drum_note 12, 1
	drum_note 12, 1
	drum_note 11, 1
	drum_note 3, 1
	drum_note 11, 1
	drum_note 11, 1
	drum_note 11, 1
	drum_note 12, 1
	drum_note 12, 1
	drum_note 11, 1
	drum_note 11, 1
	drum_note 3, 1
	drum_note 11, 1
	drum_note 11, 1
	drum_note 11, 1
	drum_note 12, 1
	drum_note 12, 1
	drum_note 11, 1
	drum_note 11, 1
	drum_note 3, 1
	drum_note 11, 1
	drum_note 11, 1
	drum_note 11, 1
	drum_note 11, 1
	drum_note 11, 1
	drum_note 11, 1
	drum_note 11, 1
	drum_note 3, 1
	drum_note 12, 1
	drum_note 11, 1
	drum_note 11, 1
	drum_note 11, 1
	drum_note 12, 1
	drum_note 12, 1
	drum_note 11, 1
	drum_note 3, 1
	drum_note 11, 1
	drum_note 11, 1
	drum_note 11, 1
	drum_note 12, 1
	drum_note 12, 1
	drum_note 11, 1
	drum_note 11, 1
	drum_note 3, 1
	drum_note 11, 1
	drum_note 11, 1
	drum_note 11, 1
	drum_note 12, 1
	drum_note 12, 1
	drum_note 11, 1
	drum_note 11, 1
	drum_note 3, 1
	drum_note 11, 1
	drum_note 11, 1
	drum_note 11, 1
	drum_note 11, 1
	drum_note 11, 1
	drum_note 11, 1
	drum_note 11, 1
	drum_note 3, 1
	drum_note 12, 1
	drum_note 11, 1
	drum_note 11, 1
	drum_note 11, 1
	drum_note 12, 1
	drum_note 12, 1
	drum_note 11, 1
	drum_note 3, 1
	drum_note 11, 1
	drum_note 11, 1
	drum_note 11, 1
	drum_note 12, 1
	drum_note 12, 1
	drum_note 11, 1
	drum_note 11, 1
	drum_note 3, 1
	drum_note 11, 1
	drum_note 11, 1
	drum_note 11, 1
	drum_note 12, 1
	drum_note 12, 1
	drum_note 11, 1
	drum_note 11, 1
	drum_note 3, 1
	drum_note 11, 1
	drum_note 11, 1
	drum_note 11, 1
	drum_note 11, 1
	drum_note 11, 1
	drum_note 11, 1
	drum_note 11, 1
	drum_note 3, 1
	drum_note 11, 1
	drum_note 11, 1
	drum_note 11, 1
	drum_note 12, 1
	drum_note 12, 1
	drum_note 11, 1
	drum_note 11, 2
	drum_note 3, 1
	drum_note 3, 1
	drum_note 3, 1
	drum_note 3, 1
	drum_note 3, 1
	drum_note 12, 1
	drum_note 12, 1
	drum_note 12, 1
	drum_note 12, 3
	drum_note 12, 1
	drum_note 12, 1
	drum_note 11, 1
	drum_note 11, 1
	drum_note 3, 1
	drum_note 11, 1
	drum_note 11, 1
	drum_note 11, 1
	drum_note 11, 1
	drum_note 11, 1
	drum_note 11, 1
	drum_note 11, 1
	drum_note 3, 1
	drum_note 12, 1
	drum_note 11, 1
	drum_note 11, 1
	drum_note 11, 1
	drum_note 12, 1
	drum_note 12, 1
	drum_note 11, 1
	drum_note 3, 1
	drum_note 11, 1
	drum_note 11, 1
	drum_note 11, 1
	drum_note 12, 1
	drum_note 12, 1
	drum_note 11, 1
	drum_note 11, 1
	drum_note 3, 1
	drum_note 11, 1
	drum_note 11, 1
	drum_note 11, 1
	drum_note 12, 1
	drum_note 12, 1
	drum_note 11, 1
	drum_note 11, 1
	drum_note 3, 1
	drum_note 11, 1
	drum_note 11, 1
	drum_note 11, 1
	drum_note 11, 1
	drum_note 11, 1
	drum_note 11, 1
	drum_note 11, 1
	drum_note 3, 1
	drum_note 12, 1
	drum_note 11, 1
	drum_note 11, 1
	drum_note 11, 1
	drum_note 12, 1
	drum_note 12, 1
	drum_note 11, 1
	drum_note 3, 1
	drum_note 11, 1
	drum_note 11, 1
	drum_note 11, 1
	drum_note 12, 1
	drum_note 12, 1
	drum_note 11, 1
	drum_note 11, 1
	drum_note 3, 1
	drum_note 11, 1
	drum_note 11, 1
	drum_note 11, 1
	drum_note 12, 1
	drum_note 12, 1
	drum_note 11, 1
	drum_note 11, 1
	drum_note 3, 1
	drum_note 11, 1
	drum_note 11, 1
	drum_note 11, 1
	drum_note 11, 1
	drum_note 11, 1
	drum_note 11, 1
	drum_note 11, 1
	drum_note 3, 1
	drum_note 12, 1
	drum_note 11, 1
	drum_note 11, 1
	drum_note 11, 1
	drum_note 12, 1
	drum_note 12, 1
	drum_note 11, 1
	drum_note 3, 1
	drum_note 11, 1
	drum_note 11, 1
	drum_note 11, 1
	drum_note 12, 1
	drum_note 12, 1
	drum_note 11, 1
	drum_note 11, 1
	drum_note 3, 1
	drum_note 11, 1
	drum_note 11, 1
	drum_note 11, 1
	drum_note 12, 1
	drum_note 12, 1
	drum_note 11, 1
	drum_note 11, 1
	drum_note 3, 1
	drum_note 11, 1
	drum_note 11, 1
	drum_note 11, 1
	drum_note 11, 1
	drum_note 11, 1
	drum_note 11, 1
	drum_note 11, 1
	drum_note 3, 1
	drum_note 12, 1
	drum_note 11, 1
	drum_note 11, 1
	drum_note 12, 1
	drum_note 12, 1
	drum_note 11, 1
	drum_note 12, 1
	drum_note 3, 1
	drum_note 11, 1
	drum_note 11, 1
	drum_note 11, 1
	drum_note 3, 1
	drum_note 3, 1
	drum_note 3, 1
	drum_note 12, 1
	drum_note 12, 4
	drum_note 12, 1
	drum_note 11, 1
	drum_note 11, 1
	drum_note 12, 1
	drum_note 3, 1
	drum_note 11, 1
	drum_note 11, 1
	drum_note 11, 1
	drum_note 11, 1
	drum_note 11, 1
	drum_note 11, 1
	drum_note 12, 1
	drum_note 3, 1
	drum_note 11, 2
	drum_note 12, 1
	drum_note 11, 1
	drum_note 12, 1
	drum_note 11, 1
	drum_note 11, 1
	drum_note 3, 1
	drum_note 11, 1
	drum_note 11, 1
	drum_note 11, 1
	drum_note 11, 1
	drum_note 12, 1
	drum_note 11, 1
	drum_note 12, 1
	drum_note 3, 1
	drum_note 11, 1
	drum_note 11, 1
	drum_note 12, 1
	drum_note 12, 1
	drum_note 12, 1
	drum_note 11, 1
	drum_note 11, 1
	drum_note 3, 1
	drum_note 11, 1
	drum_note 11, 1
	drum_note 11, 1
	drum_note 11, 1
	drum_note 11, 1
	drum_note 11, 1
	drum_note 11, 1
	drum_note 3, 1
	drum_note 12, 1
	drum_note 11, 1
	drum_note 11, 1
	drum_note 12, 1
	drum_note 12, 1
	drum_note 11, 1
	drum_note 12, 1
	drum_note 3, 1
	drum_note 11, 1
	drum_note 11, 1
	drum_note 11, 1
	drum_note 3, 1
	drum_note 3, 1
	drum_note 3, 1
	drum_note 12, 1
	drum_note 12, 4
	drum_note 12, 1
	drum_note 11, 1
	drum_note 11, 1
	drum_note 12, 1
	drum_note 3, 1
	drum_note 11, 1
	drum_note 11, 1
	drum_note 11, 1
	drum_note 11, 1
	drum_note 11, 1
	drum_note 11, 1
	drum_note 12, 1
	drum_note 3, 1
	drum_note 11, 2
	drum_note 12, 1
	drum_note 11, 1
	drum_note 12, 1
	drum_note 11, 1
	drum_note 11, 1
	drum_note 3, 1
	drum_note 11, 1
	drum_note 11, 1
	drum_note 11, 1
	drum_note 11, 1
	drum_note 11, 1
	drum_note 11, 1
	drum_note 12, 1
	drum_note 3, 1
	drum_note 11, 1
	drum_note 11, 1
	drum_note 12, 1
	drum_note 12, 1
	drum_note 11, 1
	drum_note 11, 1
	drum_note 12, 1
	drum_note 3, 1
	drum_note 11, 1
	drum_note 11, 1
	drum_note 11, 1
	drum_note 11, 1
	drum_note 11, 1
	drum_note 11, 1
	drum_note 12, 1
	drum_note 3, 1
	drum_note 11, 2
	drum_note 12, 1
	drum_note 11, 1
	drum_note 12, 1
	drum_note 11, 1
	drum_note 11, 1
	drum_note 3, 1
	drum_note 11, 1
	drum_note 11, 1
	drum_note 11, 1
	drum_note 12, 1
	drum_note 12, 1
	drum_note 11, 1
	drum_note 11, 1
	drum_note 3, 1
	drum_note 11, 1
	drum_note 11, 1
	drum_note 12, 1
	drum_note 12, 1
	drum_note 11, 1
	drum_note 11, 1
	drum_note 12, 1
	drum_note 3, 1
	drum_note 11, 1
	drum_note 11, 1
	drum_note 11, 1
	drum_note 11, 1
	drum_note 11, 1
	drum_note 11, 1
	drum_note 12, 1
	drum_note 3, 1
	drum_note 11, 2
	drum_note 12, 1
	drum_note 11, 1
	drum_note 12, 1
	drum_note 11, 1
	drum_note 11, 1
	drum_note 3, 1
	drum_note 11, 1
	drum_note 11, 1
	drum_note 11, 1
	drum_note 11, 1
	drum_note 11, 1
	drum_note 11, 1
	drum_note 12, 1
	drum_note 3, 1
	drum_note 11, 1
	drum_note 11, 1
	drum_note 12, 1
	drum_note 12, 1
	drum_note 11, 1
	drum_note 11, 1
	drum_note 12, 1
	drum_note 3, 1
	drum_note 11, 1
	drum_note 11, 1
	drum_note 11, 1
	drum_note 11, 1
	drum_note 11, 1
	drum_note 11, 1
	drum_note 12, 1
	drum_note 3, 1
	drum_note 11, 2
	drum_note 12, 1
	drum_note 11, 1
	drum_note 12, 1
	drum_note 11, 1
	drum_note 11, 1
	drum_note 3, 1
	drum_note 11, 1
	drum_note 11, 1
	drum_note 11, 1
	drum_note 11, 1
	drum_note 11, 1
	drum_note 11, 1
	drum_note 12, 1
	drum_note 3, 1
	drum_note 11, 1
	drum_note 11, 1
	drum_note 12, 1
	drum_note 12, 1
	drum_note 11, 1
	drum_note 11, 1
	drum_note 12, 1
	drum_note 3, 1
	drum_note 11, 1
	drum_note 11, 1
	drum_note 11, 1
	drum_note 11, 1
	drum_note 11, 1
	drum_note 11, 1
	drum_note 12, 1
	drum_note 3, 1
	drum_note 11, 2
	drum_note 12, 1
	drum_note 11, 1
	drum_note 12, 1
	drum_note 11, 1
	drum_note 11, 1
	drum_note 3, 1
	drum_note 11, 1
	drum_note 11, 1
	drum_note 11, 1
	drum_note 11, 1
	drum_note 11, 1
	drum_note 11, 1
	drum_note 12, 1
	drum_note 3, 1
	drum_note 11, 1
	drum_note 11, 1
	drum_note 12, 1
	drum_note 12, 1
	drum_note 11, 1
	drum_note 11, 1
	drum_note 12, 1
	drum_note 3, 1
	drum_note 12, 1
	drum_note 11, 1
	drum_note 12, 1
	drum_note 11, 1
	drum_note 11, 1
	drum_note 11, 1
	drum_note 12, 1
	drum_note 3, 1
	drum_note 11, 2
	drum_note 12, 1
	drum_note 12, 1
	drum_note 3, 1
	drum_note 3, 1
	drum_note 11, 1
	drum_note 3, 1
	drum_note 3, 1
	drum_note 11, 1
	drum_note 12, 1
	drum_note 3, 1
	drum_note 12, 1
	drum_note 11, 1
	drum_note 12, 1
	drum_note 3, 1
	drum_note 3, 1
	drum_note 3, 1
	drum_note 3, 1
	sound_jump Music_GF2_AloneFighter_Ch4_loop
