Music_GF2_TakeBack:
	channel_count 4
	channel 1, Music_GF2_TakeBack_Ch1
	channel 2, Music_GF2_TakeBack_Ch2
	channel 3, Music_GF2_TakeBack_Ch3
	channel 4, Music_GF2_TakeBack_Ch4

Music_GF2_TakeBack_Ch1:
	volume 7, 7
	duty_cycle 2
	note_type 12, 10, 7
	tempo 136
	stereo_panning TRUE, TRUE
	rest 2
	octave 3
	volume_envelope 10, 7
	note F_, 3
	note E_, 3
	note D#, 1
	note D#, 1
	rest 4
	note C_, 2
	volume_envelope 12, 7
	note D#, 1
	note F_, 1
	note C_, 1
	note D#, 1
	rest 1
	octave 2
	note G#, 1
	rest 1
	note F_, 5
Music_GF2_TakeBack_Ch1_loop:
	rest 2
	volume_envelope 12, 7
	note F_, 1
	note F_, 1
	rest 7
	note F_, 1
	rest 1
	note F_, 1
	octave 3
	note F_, 1
	octave 2
	note F_, 1
	rest 3
	note F_, 1
	rest 1
	note F_, 1
	note F_, 1
	rest 1
	note F_, 2
	note G_, 1
	note G#, 5
	rest 2
	note G#, 1
	note G#, 1
	rest 7
	note A#, 8
	note A#, 1
	rest 1
	note A#, 1
	octave 3
	note D#, 1
	octave 2
	note A#, 1
	rest 4
	octave 3
	note D#, 1
	note F_, 1
	note C_, 1
	note D#, 1
	rest 1
	octave 2
	note G#, 1
	rest 1
	note F_, 7
	note F_, 2
	rest 7
	note F_, 1
	rest 1
	note F_, 1
	note G#, 1
	note F_, 1
	rest 3
	note F_, 1
	rest 1
	note F_, 1
	note F_, 1
	rest 3
	note G_, 1
	note G#, 8
	note G#, 1
	rest 7
	note A#, 8
	note A#, 1
	rest 1
	note A#, 1
	octave 3
	note D#, 4
	rest 2
	note D#, 1
	note F_, 1
	note C_, 1
	note D#, 1
	rest 1
	octave 2
	note G#, 1
	rest 1
	note F_, 8
	note F_, 1
	rest 1
	note F_, 1
	note F_, 1
	rest 4
	note F_, 1
	rest 7
	note F_, 1
	rest 4
	note F_, 2
	note G_, 1
	note G#, 7
	note G#, 2
	rest 5
	note G#, 1
	rest 1
	note A#, 8
	note A#, 1
	rest 1
	octave 3
	note C_, 7
	note D#, 1
	note F_, 1
	note C_, 1
	note D#, 1
	rest 1
	octave 2
	note G#, 1
	rest 1
	note F_, 8
	note F_, 1
	rest 7
	note F_, 1
	rest 1
	note F_, 1
	note F_, 1
	rest 4
	note F_, 5
	note F_, 2
	octave 3
	note C_, 1
	octave 2
	note A#, 6
	note A#, 3
	octave 3
	note C_, 7
	note D#, 8
	note G_, 1
	rest 1
	note F_, 6
	note C_, 9
	octave 2
	note B_, 3
	octave 3
	note C_, 4
	octave 2
	note G_, 7
	note A#, 2
	note G#, 4
	note A#, 3
	octave 3
	note C_, 9
	octave 2
	note B_, 3
	octave 3
	note C_, 5
	octave 2
	note G_, 4
	note G_, 3
	note F_, 8
	note A#, 16
	octave 3
	note C_, 3
	note D#, 12
	rest 2
	note C#, 7
	note D#, 8
	note F_, 12
	rest 4
	note F_, 2
	octave 4
	note D#, 1
	note F_, 1
	note C_, 1
	note D#, 1
	octave 3
	note G#, 1
	rest 1
	note F_, 2
	note A#, 1
	octave 4
	note C_, 1
	octave 3
	note G#, 1
	note A#, 1
	note G_, 1
	rest 1
	note F_, 2
	note D#, 1
	note F_, 1
	note C_, 1
	note D#, 1
	octave 2
	note G#, 1
	rest 1
	note F_, 5
	rest 2
	note F_, 1
	note F_, 1
	rest 7
	note F_, 1
	rest 1
	note F_, 1
	octave 3
	note F_, 1
	octave 2
	note F_, 1
	rest 3
	note F_, 1
	rest 1
	note F_, 1
	note F_, 1
	rest 1
	note F_, 2
	note G_, 1
	note G#, 5
	rest 2
	note G#, 1
	note G#, 1
	rest 7
	note A#, 8
	note A#, 1
	rest 1
	note A#, 1
	octave 3
	note D#, 1
	octave 2
	note A#, 1
	rest 4
	octave 3
	note D#, 1
	note F_, 1
	note C_, 1
	note D#, 1
	rest 1
	octave 2
	note G#, 1
	rest 1
	note F_, 7
	note F_, 2
	rest 7
	note F_, 1
	rest 1
	note F_, 1
	note G#, 1
	note F_, 1
	rest 3
	note F_, 1
	rest 1
	note F_, 1
	note F_, 1
	rest 3
	note G_, 1
	note G#, 8
	note G#, 1
	rest 7
	note A#, 8
	note A#, 1
	rest 1
	note A#, 1
	octave 3
	note D#, 4
	rest 2
	note D#, 1
	note F_, 1
	note C_, 1
	note D#, 1
	rest 1
	octave 2
	note G#, 1
	rest 1
	note F_, 8
	note F_, 1
	rest 1
	note F_, 1
	note F_, 1
	rest 4
	note F_, 1
	rest 7
	note F_, 1
	rest 4
	note F_, 2
	note G_, 1
	note G#, 7
	note G#, 2
	rest 5
	note G#, 1
	rest 1
	note A#, 2
	rest 8
	octave 3
	note C_, 7
	note D#, 1
	note F_, 1
	note C_, 1
	note D#, 1
	rest 1
	octave 2
	note G#, 1
	rest 1
	note F_, 8
	note F_, 1
	rest 7
	note F_, 1
	rest 1
	note F_, 1
	note F_, 1
	rest 4
	note F_, 5
	note F_, 2
	octave 3
	note C_, 1
	octave 2
	note A#, 6
	note A#, 3
	octave 3
	note C_, 7
	note D#, 8
	note G_, 1
	rest 1
	note F_, 6
	note C_, 9
	octave 2
	note B_, 3
	octave 3
	note C_, 4
	octave 2
	note G_, 7
	note A#, 2
	note G#, 4
	note A#, 3
	octave 3
	note C_, 9
	octave 2
	note B_, 3
	octave 3
	note C_, 5
	octave 2
	note G_, 4
	note G_, 3
	note F_, 8
	note A#, 16
	octave 3
	note C_, 3
	note D#, 12
	rest 2
	note C#, 7
	note D#, 8
	note F_, 12
	rest 4
	note F_, 2
	octave 4
	note D#, 1
	note F_, 1
	note C_, 1
	note D#, 1
	octave 3
	note G#, 1
	rest 1
	note F_, 2
	note A#, 1
	octave 4
	note C_, 1
	octave 3
	note G#, 1
	note A#, 1
	note G_, 1
	rest 1
	note F_, 2
	note D#, 1
	note F_, 1
	note C_, 1
	note D#, 1
	octave 2
	note G#, 1
	rest 1
	note F_, 5
	rest 2
	note F_, 1
	note F_, 1
	rest 7
	note F_, 1
	rest 1
	note F_, 1
	octave 3
	note F_, 1
	octave 2
	note F_, 1
	rest 3
	note F_, 1
	rest 1
	note F_, 1
	note F_, 1
	rest 1
	note F_, 2
	note G_, 1
	note G#, 5
	rest 2
	note G#, 1
	note G#, 1
	rest 7
	note A#, 8
	note A#, 1
	rest 1
	note A#, 1
	octave 3
	note D#, 1
	octave 2
	note A#, 1
	rest 4
	octave 3
	note D#, 1
	note F_, 1
	note C_, 1
	note D#, 1
	rest 1
	octave 2
	note G#, 1
	rest 1
	note F_, 7
	note F_, 2
	rest 7
	note F_, 1
	rest 1
	note F_, 1
	note G#, 1
	note F_, 1
	rest 3
	note F_, 1
	rest 1
	note F_, 1
	note F_, 1
	rest 3
	note G_, 1
	note G#, 8
	note G#, 1
	rest 7
	note A#, 8
	note A#, 1
	rest 1
	note A#, 1
	octave 3
	note D#, 4
	rest 2
	note D#, 1
	note F_, 1
	note C_, 1
	note D#, 1
	rest 1
	octave 2
	note G#, 1
	rest 1
	note F_, 5
	rest 2
	note F_, 1
	note F_, 1
	rest 7
	note F_, 1
	rest 1
	note F_, 1
	octave 3
	note F_, 1
	octave 2
	note F_, 1
	rest 3
	note F_, 1
	rest 1
	note F_, 1
	note F_, 1
	rest 1
	note F_, 2
	note G_, 1
	note G#, 5
	rest 2
	note G#, 1
	note G#, 1
	rest 7
	note A#, 8
	note A#, 1
	rest 1
	note A#, 1
	octave 3
	note D#, 1
	octave 2
	note A#, 1
	rest 4
	octave 3
	note D#, 1
	note F_, 1
	note C_, 1
	note D#, 1
	rest 1
	octave 2
	note G#, 1
	rest 1
	note F_, 7
	note F_, 2
	rest 7
	note F_, 1
	rest 1
	note F_, 1
	note G#, 1
	note F_, 1
	rest 3
	note F_, 1
	rest 1
	note F_, 1
	note F_, 1
	rest 3
	note G_, 1
	note G#, 8
	note G#, 1
	rest 7
	note A#, 8
	note A#, 1
	rest 1
	note A#, 1
	octave 3
	note D#, 4
	rest 2
	note D#, 1
	note F_, 1
	note C_, 1
	note D#, 1
	rest 1
	octave 2
	note G#, 1
	rest 1
	note F_, 5
	rest 2
	note F_, 1
	note F_, 1
	rest 7
	note F_, 1
	rest 1
	note F_, 1
	octave 3
	note F_, 1
	octave 2
	note F_, 1
	rest 3
	note F_, 1
	rest 1
	note F_, 1
	note F_, 1
	rest 1
	note F_, 2
	note G_, 1
	note G#, 5
	rest 2
	note G#, 1
	note G#, 1
	rest 7
	note A#, 8
	note A#, 1
	rest 1
	note A#, 1
	octave 3
	note D#, 1
	octave 2
	note A#, 1
	rest 4
	octave 3
	note D#, 1
	note F_, 1
	note C_, 1
	note D#, 1
	rest 1
	octave 2
	note G#, 1
	rest 1
	note F_, 7
	note F_, 2
	rest 7
	note F_, 1
	rest 1
	note F_, 1
	note G#, 1
	note F_, 1
	rest 3
	note F_, 1
	rest 1
	note F_, 1
	note F_, 1
	rest 3
	note G_, 1
	note G#, 8
	note G#, 1
	rest 7
	note A#, 8
	note A#, 1
	rest 1
	note A#, 1
	octave 3
	note D#, 4
	rest 2
	note D#, 1
	note F_, 1
	note C_, 1
	note D#, 1
	rest 1
	octave 2
	note G#, 1
	rest 1
	note F_, 5
	rest 2
	note F_, 1
	note F_, 1
	rest 7
	note F_, 1
	rest 1
	note F_, 1
	octave 3
	note F_, 1
	octave 2
	note F_, 1
	rest 3
	note F_, 1
	rest 1
	note F_, 1
	note F_, 1
	rest 1
	note F_, 2
	note G_, 1
	note G#, 5
	rest 2
	note G#, 1
	note G#, 1
	rest 7
	note A#, 8
	note A#, 1
	rest 1
	note A#, 1
	octave 3
	note D#, 1
	octave 2
	note A#, 1
	rest 4
	octave 3
	note D#, 1
	note F_, 1
	note C_, 1
	note D#, 1
	rest 1
	octave 2
	note G#, 1
	rest 1
	note F_, 7
	note F_, 2
	rest 7
	note F_, 1
	rest 1
	note F_, 1
	note G#, 1
	note F_, 1
	rest 3
	note F_, 1
	rest 1
	note F_, 1
	note F_, 1
	rest 3
	note G_, 1
	note G#, 8
	note G#, 1
	rest 7
	note A#, 8
	note A#, 1
	rest 1
	note A#, 1
	octave 3
	note D#, 4
	rest 2
	note D#, 1
	note F_, 1
	note C_, 1
	note D#, 1
	rest 1
	octave 2
	note G#, 1
	rest 1
	note F_, 5
	sound_jump Music_GF2_TakeBack_Ch1_loop

Music_GF2_TakeBack_Ch2:
	duty_cycle 1
	note_type 12, 10, 7
	stereo_panning TRUE, TRUE
	rest 2
	octave 4
	volume_envelope 12, 7
	note F_, 3
	note E_, 3
	note D#, 1
	note D#, 1
	rest 4
	note C_, 6
	rest 8
Music_GF2_TakeBack_Ch2_loop:
	volume_envelope 12, 7
	note C_, 1
	note D#, 1
	note C_, 1
	note G_, 6
	note F_, 1
	note D#, 1
	rest 1
	note D_, 6
	octave 3
	note A#, 1
	note F_, 5
	octave 4
	note C_, 3
	octave 3
	note A#, 1
	rest 1
	note G#, 1
	rest 1
	note F_, 9
	note D#, 2
	note F_, 1
	note G#, 5
	octave 4
	note C_, 3
	octave 3
	note A#, 9
	rest 12
	octave 4
	note C_, 1
	note D#, 1
	note C_, 1
	note G_, 6
	note F_, 1
	note D#, 2
	note D_, 6
	octave 3
	note A#, 1
	octave 4
	note C_, 6
	octave 3
	note A#, 1
	note G#, 1
	octave 4
	note C_, 3
	octave 3
	note A#, 10
	note F_, 1
	note G#, 1
	note F_, 1
	note B_, 3
	note A#, 2
	note G#, 2
	note F_, 1
	note G#, 1
	rest 1
	note F_, 7
	rest 12
	octave 4
	note C_, 1
	note D#, 1
	note C_, 1
	note G_, 6
	note F_, 1
	note D#, 1
	rest 1
	note D_, 7
	note A#, 3
	rest 2
	octave 5
	note C_, 3
	octave 4
	note A#, 1
	rest 1
	note G#, 1
	rest 1
	note F_, 11
	note D#, 2
	note F_, 4
	octave 5
	note C_, 3
	octave 4
	note A#, 7
	rest 14
	note C_, 1
	note D#, 1
	note C_, 1
	note G_, 6
	note F_, 1
	note D#, 1
	rest 1
	note D_, 6
	octave 3
	note A#, 1
	note F_, 3
	rest 10
	note F_, 1
	note G#, 1
	rest 1
	octave 4
	note C_, 13
	note D#, 1
	rest 1
	note F_, 1
	rest 1
	note G_, 3
	note F_, 4
	note G_, 15
	note F_, 2
	note E_, 3
	note F_, 5
	octave 5
	note C_, 3
	octave 4
	note B_, 3
	octave 5
	note C_, 2
	octave 4
	note F_, 3
	note G_, 16
	note G_, 1
	note F_, 3
	note E_, 5
	rest 8
	note D#, 3
	note D_, 1
	rest 1
	note C_, 1
	rest 6
	note G_, 3
	note F_, 1
	rest 1
	note D#, 1
	rest 2
	note D_, 3
	note D#, 3
	rest 6
	note D#, 1
	note D_, 1
	note C_, 1
	note F_, 5
	note F_, 1
	note D#, 1
	note D_, 1
	note A#, 10
	note F_, 1
	note G#, 1
	note F_, 1
	note A#, 1
	note F_, 1
	rest 1
	octave 5
	note C_, 2
	rest 16
	rest 12
	octave 4
	note D_, 1
	rest 2
	note D#, 1
	rest 1
	note F_, 1
	rest 1
	note C_, 3
	octave 3
	note A#, 1
	rest 5
	note G_, 1
	note G#, 1
	rest 1
	octave 4
	note D#, 1
	rest 1
	note C_, 1
	rest 1
	note F_, 1
	note G_, 13
	note F_, 1
	rest 1
	note G#, 1
	note F_, 1
	rest 1
	octave 5
	note C_, 3
	octave 4
	note A#, 2
	note F_, 1
	note G#, 2
	octave 5
	note C_, 3
	octave 4
	note A#, 6
	rest 5
	note D_, 1
	note D#, 1
	note G_, 1
	note A#, 1
	rest 1
	note G#, 1
	rest 1
	note G_, 1
	note A#, 1
	rest 1
	note G#, 1
	rest 5
	note G_, 1
	note G#, 1
	note G_, 1
	note F#, 1
	note F_, 1
	note E_, 1
	note D#, 1
	note D_, 1
	note C_, 1
	rest 1
	note F_, 1
	rest 5
	note D#, 3
	note D_, 1
	rest 3
	note G_, 3
	note F_, 6
	note D_, 1
	note D#, 1
	rest 1
	octave 5
	note C_, 3
	octave 4
	note A#, 13
	rest 5
	note D_, 1
	note D#, 1
	note D_, 1
	note C_, 1
	octave 3
	note A#, 1
	note G#, 1
	note G_, 1
	note A#, 1
	note G#, 1
	rest 1
	note F_, 1
	rest 5
	note F_, 1
	note G#, 1
	note F_, 1
	octave 4
	note C_, 2
	rest 1
	octave 3
	note A#, 1
	note G#, 2
	note A#, 1
	octave 4
	note F_, 9
	rest 5
	note G#, 1
	note G_, 1
	note F_, 1
	note D#, 1
	rest 3
	note C_, 3
	note D#, 1
	rest 1
	note G_, 3
	note F_, 12
	rest 13
	octave 3
	note G_, 1
	note G#, 1
	note F_, 1
	note A#, 1
	rest 1
	octave 4
	note C_, 1
	rest 1
	octave 3
	note G#, 1
	octave 4
	note D#, 1
	rest 1
	note G_, 5
	rest 8
	note G#, 1
	note F_, 1
	rest 2
	octave 5
	note C_, 13
	octave 4
	note A#, 1
	note F_, 1
	note G#, 3
	note A#, 1
	rest 5
	note G#, 3
	note G_, 4
	note G_, 15
	note F_, 2
	note E_, 3
	note F_, 5
	octave 5
	note C_, 3
	octave 4
	note B_, 3
	octave 5
	note C_, 2
	octave 4
	note F_, 3
	note G_, 16
	note G_, 1
	note F_, 3
	note E_, 5
	rest 8
	note D#, 3
	note D_, 1
	rest 1
	note C_, 1
	rest 6
	note G_, 3
	note F_, 1
	rest 1
	note D#, 1
	rest 2
	note D_, 3
	note D#, 3
	rest 6
	note D#, 1
	note D_, 1
	note C_, 1
	note F_, 5
	note F_, 1
	note D#, 1
	note D_, 1
	note A#, 10
	note F_, 1
	note G#, 1
	note F_, 1
	note A#, 1
	note F_, 1
	rest 1
	octave 5
	note C_, 2
	rest 16
	rest 12
	octave 4
	note A#, 1
	note F_, 1
	note G#, 1
	note A#, 1
	note G#, 1
	note F_, 1
	note A#, 1
	note G#, 1
	note F_, 1
	note D#, 1
	note G#, 1
	note F_, 1
	note D#, 1
	note D_, 1
	note F_, 1
	note C_, 1
	note D#, 1
	note C_, 1
	rest 1
	octave 3
	note A#, 1
	note G#, 1
	note F_, 1
	note G#, 1
	note A#, 1
	octave 4
	note C_, 1
	rest 1
	note D#, 5
	rest 16
	rest 16
	rest 3
	note F_, 6
	note D#, 1
	note D_, 1
	note C_, 1
	note D_, 1
	note D#, 1
	rest 1
	note F_, 1
	rest 1
	note C_, 1
	rest 1
	note F_, 6
	note D#, 1
	note D_, 1
	note C_, 1
	note D_, 1
	note D#, 1
	rest 1
	note G#, 1
	rest 1
	note F_, 1
	rest 16
	rest 16
	rest 12
	note D#, 1
	note D_, 1
	note F_, 1
	note D#, 1
	note D_, 1
	note D#, 1
	rest 1
	note D_, 1
	rest 1
	note C_, 1
	rest 1
	octave 3
	note A#, 1
	note G#, 1
	note G_, 1
	note G#, 1
	note A#, 1
	rest 3
	octave 4
	note C_, 1
	note D#, 1
	note G_, 1
	note C_, 1
	note D#, 1
	note G_, 1
	note A#, 1
	rest 1
	note G#, 1
	rest 1
	note F_, 9
	rest 16
	rest 16
	rest 4
	octave 3
	note G#, 1
	note F_, 1
	note G#, 1
	note A#, 1
	rest 1
	octave 4
	note F_, 1
	note C_, 1
	rest 2
	note D#, 1
	rest 1
	note F_, 1
	rest 1
	note G#, 1
	rest 1
	note F_, 1
	rest 1
	note A#, 1
	note F_, 2
	rest 1
	note G#, 1
	note F_, 1
	note C_, 1
	note F_, 1
	note D#, 1
	rest 1
	note C_, 1
	rest 1
	note D#, 1
	rest 1
	octave 3
	note A#, 1
	rest 1
	note F_, 1
	note G#, 1
	note A#, 1
	octave 4
	note C_, 1
	note D#, 1
	note F_, 1
	note C_, 1
	note F#, 1
	note F_, 1
	note D#, 1
	note D_, 1
	note C_, 1
	note D_, 1
	note D#, 1
	note F_, 1
	rest 1
	note A#, 11
	rest 5
	note A#, 1
	note G#, 1
	note G_, 1
	note F_, 1
	note D#, 1
	note C_, 1
	note D#, 1
	note F#, 1
	note F_, 1
	note D#, 1
	note D_, 1
	rest 1
	note C_, 1
	rest 1
	octave 3
	note A#, 1
	note G#, 1
	note F_, 1
	note A#, 1
	note G#, 5
	octave 4
	note G_, 1
	note D#, 1
	note D_, 1
	note F_, 1
	note D#, 1
	note D_, 1
	note C_, 1
	note D#, 1
	note D_, 1
	note C_, 1
	octave 3
	note A#, 1
	note G#, 1
	note G_, 1
	note A#, 1
	note G#, 1
	note F_, 1
	note G_, 1
	note A#, 1
	note G_, 1
	note G#, 1
	note A#, 1
	octave 4
	note C_, 1
	rest 2
	note D#, 1
	rest 1
	note C_, 1
	note D#, 1
	rest 10
	note C_, 2
	note D#, 1
	note G_, 1
	rest 1
	note G#, 1
	rest 1
	note A#, 1
	rest 1
	note F_, 1
	rest 1
	note G#, 1
	note A#, 1
	octave 5
	note C_, 1
	octave 4
	note F_, 1
	note G#, 1
	octave 5
	note C_, 1
	octave 4
	note F_, 1
	note G#, 1
	octave 5
	note C_, 1
	octave 4
	note F_, 1
	note A#, 1
	octave 5
	note D_, 1
	octave 4
	note F_, 1
	note G#, 1
	octave 5
	note C_, 1
	octave 4
	note F_, 1
	rest 1
	note G#, 1
	octave 5
	note D_, 1
	octave 4
	note F_, 1
	note A#, 1
	octave 5
	note D_, 1
	note D#, 1
	note D_, 1
	note D#, 1
	rest 1
	note D#, 1
	note D_, 1
	octave 4
	note G_, 1
	octave 5
	note D_, 1
	octave 4
	note A#, 1
	note G_, 1
	octave 5
	note C_, 1
	octave 4
	note A#, 1
	note G#, 1
	note F_, 1
	note F#, 1
	note G_, 1
	note D#, 1
	note C_, 1
	note D#, 1
	rest 16
	rest 14
	note D#, 1
	note D_, 1
	note C_, 1
	octave 3
	note A#, 1
	octave 4
	note D#, 1
	note A#, 1
	rest 1
	note G#, 1
	rest 1
	note F_, 1
	rest 1
	octave 5
	note C_, 1
	octave 4
	note A#, 1
	note G#, 1
	note F_, 1
	note G#, 2
	note G_, 7
	rest 16
	rest 16
	rest 16
	rest 3
	note D_, 1
	note D#, 1
	note F_, 1
	note G_, 1
	note G#, 1
	note F_, 1
	note G#, 1
	note A#, 1
	note G#, 1
	rest 1
	note G_, 1
	rest 1
	note G_, 1
	note F_, 1
	note F#, 1
	note G_, 1
	note F#, 1
	note C_, 1
	note F_, 2
	note D_, 1
	note C_, 1
	note D#, 1
	note D_, 1
	note C_, 1
	octave 3
	note A#, 1
	note G#, 1
	note G_, 1
	note G#, 1
	note A#, 1
	note G#, 1
	note F_, 1
	note G#, 1
	note A#, 1
	note G_, 1
	note G#, 1
	note A#, 1
	octave 4
	note C_, 1
	note D_, 1
	note D#, 1
	note F_, 1
	note A#, 10
	note C_, 1
	rest 1
	note D#, 1
	note F_, 2
	rest 1
	note A#, 1
	note G#, 1
	note F_, 1
	octave 5
	note C_, 5
	octave 3
	note D#, 1
	note F_, 1
	note C_, 1
	note D#, 1
	rest 1
	octave 2
	note G#, 1
	rest 1
	note F_, 5
	octave 4
	sound_jump Music_GF2_TakeBack_Ch2_loop

Music_GF2_TakeBack_Ch3:
	note_type 12, 1, 0
	rest 2
	octave 5
	volume_envelope 2, 3
	note F_, 1
	rest 2
	note E_, 1
	rest 2
	note D#, 1
	note D#, 1
	rest 4
	note C_, 4
	rest 10
Music_GF2_TakeBack_Ch3_loop:
	volume_envelope 2, 3
	note D#, 4
	note D_, 4
	octave 4
	note A#, 3
	octave 5
	note C_, 3
	rest 16
	rest 2
	note D#, 3
	note F_, 10
	rest 3
	note G#, 3
	note G_, 3
	note D#, 3
	note C_, 3
	octave 4
	note D#, 1
	note F_, 1
	note C_, 1
	note D#, 1
	rest 1
	octave 3
	note G#, 1
	rest 1
	note F_, 5
	octave 5
	note D#, 4
	note D_, 4
	octave 4
	note A#, 3
	octave 5
	note C_, 3
	rest 16
	rest 2
	note D#, 3
	note F_, 10
	rest 3
	note G#, 3
	note G_, 1
	rest 1
	note D#, 1
	rest 1
	note C_, 4
	rest 1
	octave 4
	note D#, 1
	note F_, 1
	note C_, 1
	note D#, 1
	rest 1
	octave 3
	note G#, 1
	rest 1
	note F_, 5
	octave 5
	note D#, 4
	note D_, 4
	octave 4
	note A#, 3
	octave 5
	note C_, 3
	rest 16
	rest 2
	note D#, 3
	note F_, 10
	rest 3
	note G#, 3
	note G_, 3
	note D#, 3
	note C_, 3
	octave 4
	note D#, 1
	note F_, 1
	note C_, 1
	note D#, 1
	rest 1
	octave 3
	note G#, 1
	rest 1
	note F_, 5
	octave 5
	note D#, 4
	note D_, 4
	octave 4
	note A#, 3
	octave 5
	note C_, 3
	rest 16
	rest 3
	note F_, 3
	note D#, 8
	rest 4
	note G_, 5
	note F_, 6
	note G_, 11
	note D_, 1
	note E_, 1
	rest 1
	note G_, 1
	rest 1
	note F_, 9
	note F_, 7
	note G_, 11
	note D_, 6
	note D_, 2
	rest 2
	note D_, 1
	rest 2
	note C_, 6
	octave 4
	note E_, 3
	octave 5
	note G_, 5
	note G_, 3
	note F_, 3
	note D#, 2
	note C_, 3
	note G#, 3
	note G_, 3
	note C_, 2
	note F_, 3
	note D#, 2
	note F_, 3
	note F#, 7
	note G#, 8
	note A#, 16
	octave 6
	note D#, 1
	rest 1
	octave 4
	note D#, 1
	note F_, 1
	note C_, 1
	note D#, 1
	octave 3
	note G#, 1
	rest 1
	note F_, 2
	note A#, 1
	octave 4
	note C_, 1
	octave 3
	note G#, 1
	note A#, 1
	note G_, 1
	rest 1
	note F_, 2
	note D#, 1
	note F_, 1
	note C_, 1
	note D#, 1
	rest 2
	octave 2
	note A_, 5
	octave 5
	note D#, 4
	note D_, 4
	octave 4
	note A#, 3
	octave 5
	note C_, 3
	rest 16
	rest 2
	note D#, 3
	note F_, 10
	rest 3
	note G#, 3
	note G_, 3
	note D#, 3
	note C_, 3
	octave 4
	note D#, 1
	note F_, 1
	note C_, 1
	note D#, 1
	rest 1
	octave 3
	note G#, 1
	rest 1
	note F_, 5
	octave 5
	note D#, 4
	note D_, 4
	octave 4
	note A#, 3
	octave 5
	note C_, 3
	rest 16
	rest 2
	note D#, 3
	note F_, 10
	rest 3
	note G#, 3
	note G_, 1
	rest 1
	note D#, 1
	rest 1
	note C_, 5
	octave 4
	note D#, 1
	note F_, 1
	note C_, 1
	note D#, 1
	rest 1
	octave 3
	note G#, 1
	rest 1
	note F_, 5
	octave 5
	note D#, 4
	note D_, 4
	octave 4
	note A#, 3
	octave 5
	note C_, 3
	rest 16
	rest 2
	note D#, 3
	note F_, 10
	rest 3
	note G#, 3
	note G_, 3
	note D#, 3
	note C_, 3
	octave 4
	note D#, 1
	note F_, 1
	note C_, 1
	note D#, 1
	rest 1
	octave 3
	note G#, 1
	rest 1
	note F_, 5
	octave 5
	note D#, 4
	note D_, 4
	octave 4
	note A#, 3
	octave 5
	note C_, 3
	rest 16
	rest 3
	note F_, 3
	note D#, 8
	rest 4
	note G_, 5
	note F_, 6
	note G_, 11
	note D_, 1
	note E_, 1
	rest 1
	note G_, 1
	rest 1
	note F_, 9
	note F_, 6
	rest 1
	note G_, 11
	note D_, 6
	note D_, 2
	rest 2
	note D_, 1
	rest 2
	note C_, 6
	octave 4
	note E_, 3
	octave 5
	note G_, 5
	note G_, 3
	note F_, 3
	note D#, 2
	note C_, 3
	note G#, 3
	note G_, 3
	note C_, 2
	note F_, 3
	note D#, 2
	note F_, 3
	note F#, 7
	note G#, 8
	note A#, 16
	octave 6
	note D#, 1
	rest 1
	octave 4
	note D#, 1
	note F_, 1
	note C_, 1
	note D#, 1
	octave 3
	note G#, 1
	rest 1
	note F_, 2
	note A#, 1
	octave 4
	note C_, 1
	octave 3
	note G#, 1
	note A#, 1
	note G_, 1
	rest 1
	note F_, 2
	note D#, 1
	note F_, 1
	note C_, 1
	note D#, 1
	rest 2
	octave 2
	note A_, 5
	rest 16
	rest 13
	octave 5
	note C_, 1
	note D#, 1
	note F_, 1
	note G#, 1
	note F_, 1
	note G#, 1
	note A#, 1
	note G#, 1
	note A#, 1
	note F_, 1
	note G#, 1
	note A#, 1
	note F_, 1
	note G#, 1
	octave 6
	note C_, 1
	octave 5
	note G#, 1
	note F_, 1
	note G#, 1
	rest 1
	note F_, 1
	note G#, 1
	rest 1
	octave 6
	note C_, 2
	octave 5
	note G#, 1
	note F_, 1
	note G#, 1
	octave 6
	note C_, 1
	octave 5
	note F_, 4
	rest 16
	rest 16
	rest 6
	octave 6
	note C_, 1
	octave 5
	note A#, 1
	note G#, 1
	note F_, 2
	note G#, 5
	note G_, 1
	note G#, 1
	note G_, 1
	note F_, 1
	note D#, 1
	note D_, 1
	note F_, 1
	rest 1
	note D#, 1
	note D_, 1
	note C_, 1
	octave 4
	note A#, 1
	note G#, 3
	note A#, 1
	note G#, 1
	note F_, 1
	note G#, 1
	octave 5
	note C_, 1
	note D#, 1
	rest 1
	note F_, 4
	rest 16
	rest 16
	rest 13
	note D#, 1
	note D_, 1
	note C_, 1
	note F_, 1
	note D#, 1
	note D_, 1
	note C_, 1
	octave 4
	note A#, 1
	note G#, 1
	note G_, 1
	note A#, 1
	note G_, 1
	note F_, 4
	rest 1
	note F_, 1
	note G#, 1
	note A#, 1
	octave 5
	note D#, 1
	note C_, 2
	note F_, 4
	rest 16
	rest 14
	note G#, 1
	note F_, 1
	note C_, 1
	note F_, 1
	note D#, 1
	rest 1
	note C_, 1
	rest 1
	note D#, 1
	rest 1
	octave 4
	note A#, 1
	rest 1
	note F_, 1
	note G#, 1
	note A#, 1
	octave 5
	note C_, 1
	note D#, 1
	note F_, 1
	note C_, 1
	note F#, 1
	note F_, 1
	note D#, 1
	note D_, 1
	note C_, 1
	note D_, 1
	note D#, 1
	note F_, 1
	rest 1
	note A#, 11
	rest 16
	rest 16
	rest 12
	octave 4
	note G_, 1
	note A#, 1
	note G#, 1
	note F_, 1
	note G_, 1
	note A#, 1
	note G_, 1
	note G#, 1
	note A#, 1
	octave 5
	note C_, 1
	rest 2
	note D#, 1
	rest 1
	note C_, 1
	note D#, 1
	note F_, 10
	rest 16
	rest 16
	rest 6
	octave 6
	note D_, 1
	octave 5
	note G_, 1
	octave 6
	note D_, 1
	octave 5
	note A#, 1
	note G_, 1
	octave 6
	note C_, 1
	octave 5
	note A#, 1
	note G#, 1
	note F_, 1
	note F#, 1
	note G_, 1
	note D#, 1
	note C_, 1
	note D#, 1
	rest 1
	note G_, 2
	note D#, 1
	note D_, 1
	note C_, 1
	note D#, 1
	note D_, 1
	note C_, 1
	octave 4
	note A#, 1
	rest 1
	note G#, 1
	note G_, 1
	note A#, 1
	rest 1
	note G#, 1
	note F_, 1
	note G#, 1
	note F_, 8
	rest 16
	rest 13
	octave 5
	note F_, 1
	note G#, 1
	note F_, 1
	note A#, 1
	note F_, 1
	note G#, 1
	note A#, 1
	rest 1
	note F_, 1
	note G#, 1
	note A#, 1
	octave 6
	note C_, 1
	octave 5
	note F_, 1
	note G#, 1
	note A#, 1
	note A_, 1
	note F_, 1
	note A#, 1
	note G#, 1
	note F_, 1
	note G#, 1
	note G_, 1
	note F_, 1
	note D#, 1
	note C_, 1
	note D#, 1
	note F_, 1
	rest 1
	note D#, 1
	note D_, 1
	note C_, 1
	octave 4
	note A#, 1
	note G#, 1
	note G_, 1
	note G#, 1
	rest 1
	note A#, 1
	rest 1
	note F_, 2
	note G#, 1
	note A#, 1
	octave 5
	note C_, 1
	note F_, 4
	rest 16
	rest 16
	rest 16
	rest 16
	rest 12
	sound_jump Music_GF2_TakeBack_Ch3_loop

Music_GF2_TakeBack_Ch4:
	toggle_noise 1
	drum_speed 12
	drum_note 12, 1
	drum_note 12, 1
	drum_note 12, 1
	drum_note 11, 1
	drum_note 3, 1
	drum_note 12, 1
	drum_note 11, 1
	drum_note 11, 1
	drum_note 12, 1
	drum_note 12, 2
	drum_note 11, 1
	drum_note 3, 1
	drum_note 11, 1
	drum_note 11, 1
	drum_note 11, 1
	drum_note 3, 1
	drum_note 3, 1
	drum_note 12, 1
	drum_note 3, 1
	drum_note 11, 1
	drum_note 12, 1
	drum_note 11, 1
	drum_note 12, 1
	drum_note 11, 1
	drum_note 12, 2
	drum_note 11, 1
Music_GF2_TakeBack_Ch4_loop:
	drum_note 3, 1
	drum_note 11, 1
	drum_note 12, 1
	drum_note 12, 2
	drum_note 11, 1
	drum_note 11, 2
	drum_note 3, 1
	drum_note 11, 2
	drum_note 12, 1
	drum_note 11, 1
	drum_note 12, 2
	drum_note 11, 1
	drum_note 3, 1
	drum_note 11, 1
	drum_note 11, 1
	drum_note 12, 2
	drum_note 11, 1
	drum_note 11, 2
	drum_note 3, 1
	drum_note 11, 2
	drum_note 11, 1
	drum_note 11, 1
	drum_note 12, 2
	drum_note 11, 1
	drum_note 3, 1
	drum_note 11, 1
	drum_note 12, 1
	drum_note 12, 2
	drum_note 11, 1
	drum_note 11, 2
	drum_note 3, 1
	drum_note 12, 2
	drum_note 11, 1
	drum_note 11, 1
	drum_note 12, 2
	drum_note 11, 1
	drum_note 3, 1
	drum_note 11, 1
	drum_note 11, 1
	drum_note 12, 2
	drum_note 11, 1
	drum_note 11, 2
	drum_note 3, 1
	drum_note 11, 2
	drum_note 11, 1
	drum_note 3, 1
	drum_note 3, 1
	drum_note 12, 1
	drum_note 12, 1
	drum_note 11, 1
	drum_note 3, 1
	drum_note 11, 1
	drum_note 12, 1
	drum_note 11, 1
	drum_note 12, 2
	drum_note 11, 1
	drum_note 3, 1
	drum_note 11, 1
	drum_note 12, 1
	drum_note 12, 2
	drum_note 11, 1
	drum_note 11, 2
	drum_note 3, 1
	drum_note 11, 2
	drum_note 12, 1
	drum_note 11, 1
	drum_note 12, 2
	drum_note 11, 1
	drum_note 3, 1
	drum_note 11, 1
	drum_note 11, 1
	drum_note 12, 2
	drum_note 11, 1
	drum_note 11, 2
	drum_note 3, 1
	drum_note 11, 2
	drum_note 11, 1
	drum_note 11, 1
	drum_note 12, 2
	drum_note 11, 1
	drum_note 3, 1
	drum_note 11, 1
	drum_note 12, 1
	drum_note 12, 2
	drum_note 11, 1
	drum_note 11, 2
	drum_note 3, 1
	drum_note 12, 2
	drum_note 11, 1
	drum_note 11, 1
	drum_note 12, 2
	drum_note 11, 1
	drum_note 3, 1
	drum_note 11, 1
	drum_note 11, 1
	drum_note 12, 2
	drum_note 11, 1
	drum_note 11, 2
	drum_note 3, 1
	drum_note 11, 2
	drum_note 11, 1
	drum_note 3, 1
	drum_note 3, 1
	drum_note 12, 1
	drum_note 3, 1
	drum_note 11, 1
	drum_note 12, 1
	drum_note 11, 1
	drum_note 12, 1
	drum_note 11, 1
	drum_note 12, 2
	drum_note 11, 1
	drum_note 3, 1
	drum_note 11, 1
	drum_note 12, 1
	drum_note 12, 2
	drum_note 11, 1
	drum_note 11, 2
	drum_note 3, 1
	drum_note 11, 2
	drum_note 12, 1
	drum_note 11, 1
	drum_note 12, 2
	drum_note 11, 1
	drum_note 3, 1
	drum_note 11, 1
	drum_note 11, 1
	drum_note 12, 2
	drum_note 11, 1
	drum_note 11, 2
	drum_note 3, 1
	drum_note 11, 2
	drum_note 11, 1
	drum_note 11, 1
	drum_note 12, 2
	drum_note 11, 1
	drum_note 3, 1
	drum_note 11, 1
	drum_note 12, 1
	drum_note 12, 2
	drum_note 11, 1
	drum_note 11, 2
	drum_note 3, 1
	drum_note 12, 2
	drum_note 11, 1
	drum_note 11, 1
	drum_note 12, 2
	drum_note 11, 1
	drum_note 3, 1
	drum_note 11, 1
	drum_note 11, 1
	drum_note 12, 2
	drum_note 11, 1
	drum_note 11, 2
	drum_note 3, 1
	drum_note 11, 2
	drum_note 11, 1
	drum_note 3, 1
	drum_note 3, 1
	drum_note 12, 1
	drum_note 12, 1
	drum_note 11, 1
	drum_note 3, 1
	drum_note 11, 1
	drum_note 12, 1
	drum_note 11, 1
	drum_note 12, 2
	drum_note 11, 1
	drum_note 3, 1
	drum_note 11, 1
	drum_note 12, 1
	drum_note 12, 2
	drum_note 11, 1
	drum_note 11, 2
	drum_note 3, 1
	drum_note 11, 2
	drum_note 12, 1
	drum_note 11, 1
	drum_note 12, 2
	drum_note 11, 1
	drum_note 3, 1
	drum_note 11, 1
	drum_note 11, 1
	drum_note 12, 2
	drum_note 11, 1
	drum_note 11, 2
	drum_note 3, 1
	drum_note 11, 2
	drum_note 11, 1
	drum_note 11, 1
	drum_note 12, 2
	drum_note 11, 1
	drum_note 3, 1
	drum_note 11, 1
	drum_note 12, 1
	drum_note 12, 2
	drum_note 11, 1
	drum_note 11, 2
	drum_note 3, 1
	drum_note 12, 2
	drum_note 11, 1
	drum_note 11, 1
	drum_note 12, 2
	drum_note 11, 1
	drum_note 3, 1
	drum_note 11, 1
	drum_note 11, 1
	drum_note 12, 1
	drum_note 3, 1
	drum_note 3, 1
	drum_note 3, 1
	drum_note 3, 1
	drum_note 3, 2
	drum_note 3, 1
	drum_note 12, 2
	drum_note 11, 1
	drum_note 11, 2
	drum_note 3, 1
	drum_note 11, 2
	drum_note 11, 1
	drum_note 12, 1
	drum_note 11, 1
	drum_note 11, 1
	drum_note 11, 1
	drum_note 3, 1
	drum_note 11, 1
	drum_note 12, 1
	drum_note 12, 5
	drum_note 3, 1
	drum_note 11, 1
	drum_note 11, 1
	drum_note 11, 1
	drum_note 12, 1
	drum_note 11, 1
	drum_note 11, 1
	drum_note 11, 1
	drum_note 3, 1
	drum_note 11, 1
	drum_note 12, 1
	drum_note 12, 5
	drum_note 3, 1
	drum_note 11, 1
	drum_note 11, 1
	drum_note 11, 1
	drum_note 12, 1
	drum_note 11, 1
	drum_note 11, 1
	drum_note 11, 1
	drum_note 3, 1
	drum_note 11, 1
	drum_note 12, 1
	drum_note 12, 1
	drum_note 11, 1
	drum_note 11, 1
	drum_note 11, 1
	drum_note 11, 1
	drum_note 3, 1
	drum_note 11, 1
	drum_note 11, 1
	drum_note 12, 1
	drum_note 11, 1
	drum_note 11, 1
	drum_note 11, 1
	drum_note 11, 1
	drum_note 3, 1
	drum_note 11, 1
	drum_note 12, 1
	drum_note 12, 2
	drum_note 11, 1
	drum_note 11, 2
	drum_note 3, 1
	drum_note 11, 1
	drum_note 12, 1
	drum_note 12, 1
	drum_note 12, 1
	drum_note 11, 1
	drum_note 11, 1
	drum_note 11, 1
	drum_note 3, 1
	drum_note 11, 1
	drum_note 12, 1
	drum_note 12, 1
	drum_note 11, 1
	drum_note 11, 1
	drum_note 11, 1
	drum_note 11, 1
	drum_note 3, 1
	drum_note 11, 1
	drum_note 11, 1
	drum_note 12, 1
	drum_note 11, 1
	drum_note 11, 1
	drum_note 11, 1
	drum_note 11, 1
	drum_note 3, 1
	drum_note 11, 1
	drum_note 12, 1
	drum_note 12, 2
	drum_note 11, 1
	drum_note 11, 2
	drum_note 3, 1
	drum_note 11, 1
	drum_note 12, 1
	drum_note 12, 1
	drum_note 11, 1
	drum_note 11, 1
	drum_note 11, 1
	drum_note 11, 1
	drum_note 3, 1
	drum_note 3, 1
	drum_note 12, 1
	drum_note 12, 1
	drum_note 3, 1
	drum_note 3, 1
	drum_note 3, 1
	drum_note 3, 1
	drum_note 3, 1
	drum_note 12, 1
	drum_note 11, 1
	drum_note 11, 1
	drum_note 12, 1
	drum_note 3, 1
	drum_note 12, 1
	drum_note 12, 1
	drum_note 3, 1
	drum_note 12, 1
	drum_note 3, 1
	drum_note 11, 2
	drum_note 3, 2
	drum_note 12, 1
	drum_note 3, 1
	drum_note 3, 1
	drum_note 12, 1
	drum_note 11, 2
	drum_note 3, 1
	drum_note 12, 1
	drum_note 3, 1
	drum_note 3, 2
	drum_note 12, 1
	drum_note 11, 1
	drum_note 12, 1
	drum_note 3, 1
	drum_note 12, 1
	drum_note 3, 1
	drum_note 12, 2
	drum_note 12, 2
	drum_note 11, 1
	drum_note 12, 2
	drum_note 11, 1
	drum_note 3, 1
	drum_note 11, 1
	drum_note 12, 1
	drum_note 12, 2
	drum_note 11, 1
	drum_note 11, 2
	drum_note 3, 1
	drum_note 11, 2
	drum_note 12, 1
	drum_note 11, 1
	drum_note 12, 2
	drum_note 11, 1
	drum_note 3, 1
	drum_note 11, 1
	drum_note 11, 1
	drum_note 12, 2
	drum_note 11, 1
	drum_note 11, 2
	drum_note 3, 1
	drum_note 11, 2
	drum_note 11, 1
	drum_note 11, 1
	drum_note 12, 2
	drum_note 11, 1
	drum_note 3, 1
	drum_note 11, 1
	drum_note 12, 1
	drum_note 12, 2
	drum_note 11, 1
	drum_note 11, 2
	drum_note 3, 1
	drum_note 12, 2
	drum_note 11, 1
	drum_note 11, 1
	drum_note 12, 2
	drum_note 11, 1
	drum_note 3, 1
	drum_note 11, 1
	drum_note 11, 1
	drum_note 12, 2
	drum_note 11, 1
	drum_note 11, 2
	drum_note 3, 1
	drum_note 11, 2
	drum_note 11, 1
	drum_note 3, 1
	drum_note 3, 1
	drum_note 12, 1
	drum_note 12, 1
	drum_note 11, 1
	drum_note 3, 1
	drum_note 11, 1
	drum_note 12, 1
	drum_note 11, 1
	drum_note 12, 2
	drum_note 11, 1
	drum_note 3, 1
	drum_note 11, 1
	drum_note 12, 1
	drum_note 12, 2
	drum_note 11, 1
	drum_note 11, 2
	drum_note 3, 1
	drum_note 11, 2
	drum_note 12, 1
	drum_note 11, 1
	drum_note 12, 2
	drum_note 11, 1
	drum_note 3, 1
	drum_note 11, 1
	drum_note 11, 1
	drum_note 12, 2
	drum_note 11, 1
	drum_note 11, 2
	drum_note 3, 1
	drum_note 11, 2
	drum_note 11, 1
	drum_note 11, 1
	drum_note 12, 2
	drum_note 11, 1
	drum_note 3, 1
	drum_note 11, 1
	drum_note 12, 1
	drum_note 12, 2
	drum_note 11, 1
	drum_note 11, 2
	drum_note 3, 1
	drum_note 12, 2
	drum_note 11, 1
	drum_note 11, 1
	drum_note 12, 2
	drum_note 11, 1
	drum_note 3, 1
	drum_note 11, 1
	drum_note 11, 1
	drum_note 12, 2
	drum_note 11, 1
	drum_note 11, 2
	drum_note 3, 1
	drum_note 11, 2
	drum_note 11, 1
	drum_note 3, 1
	drum_note 3, 1
	drum_note 12, 1
	drum_note 3, 1
	drum_note 11, 1
	drum_note 12, 1
	drum_note 11, 1
	drum_note 12, 1
	drum_note 11, 1
	drum_note 12, 2
	drum_note 11, 1
	drum_note 3, 1
	drum_note 11, 1
	drum_note 12, 1
	drum_note 12, 2
	drum_note 11, 1
	drum_note 11, 2
	drum_note 3, 1
	drum_note 11, 2
	drum_note 12, 1
	drum_note 11, 1
	drum_note 12, 2
	drum_note 11, 1
	drum_note 3, 1
	drum_note 11, 1
	drum_note 11, 1
	drum_note 12, 2
	drum_note 11, 1
	drum_note 11, 2
	drum_note 3, 1
	drum_note 11, 2
	drum_note 11, 1
	drum_note 11, 1
	drum_note 12, 2
	drum_note 11, 1
	drum_note 3, 1
	drum_note 11, 1
	drum_note 12, 1
	drum_note 12, 2
	drum_note 11, 1
	drum_note 11, 2
	drum_note 3, 1
	drum_note 12, 2
	drum_note 11, 1
	drum_note 11, 1
	drum_note 12, 2
	drum_note 11, 1
	drum_note 3, 1
	drum_note 11, 1
	drum_note 11, 1
	drum_note 12, 2
	drum_note 11, 1
	drum_note 11, 2
	drum_note 3, 1
	drum_note 11, 2
	drum_note 11, 1
	drum_note 3, 1
	drum_note 3, 1
	drum_note 12, 1
	drum_note 12, 1
	drum_note 11, 1
	drum_note 3, 1
	drum_note 11, 1
	drum_note 12, 1
	drum_note 11, 1
	drum_note 12, 2
	drum_note 11, 1
	drum_note 3, 1
	drum_note 11, 1
	drum_note 12, 1
	drum_note 12, 2
	drum_note 11, 1
	drum_note 11, 2
	drum_note 3, 1
	drum_note 11, 2
	drum_note 12, 1
	drum_note 11, 1
	drum_note 12, 2
	drum_note 11, 1
	drum_note 3, 1
	drum_note 11, 1
	drum_note 11, 1
	drum_note 12, 2
	drum_note 11, 1
	drum_note 11, 2
	drum_note 3, 1
	drum_note 11, 2
	drum_note 11, 1
	drum_note 11, 1
	drum_note 12, 2
	drum_note 11, 1
	drum_note 3, 1
	drum_note 11, 1
	drum_note 12, 1
	drum_note 12, 2
	drum_note 11, 1
	drum_note 11, 2
	drum_note 3, 1
	drum_note 12, 2
	drum_note 11, 1
	drum_note 11, 1
	drum_note 12, 2
	drum_note 11, 1
	drum_note 3, 1
	drum_note 11, 1
	drum_note 11, 1
	drum_note 12, 1
	drum_note 3, 1
	drum_note 3, 1
	drum_note 3, 1
	drum_note 3, 1
	drum_note 3, 2
	drum_note 3, 1
	drum_note 12, 2
	drum_note 11, 1
	drum_note 11, 2
	drum_note 3, 1
	drum_note 11, 2
	drum_note 11, 1
	drum_note 12, 1
	drum_note 11, 1
	drum_note 11, 1
	drum_note 11, 1
	drum_note 3, 1
	drum_note 11, 1
	drum_note 12, 1
	drum_note 12, 5
	drum_note 3, 1
	drum_note 11, 1
	drum_note 11, 1
	drum_note 11, 1
	drum_note 12, 1
	drum_note 11, 1
	drum_note 11, 1
	drum_note 11, 1
	drum_note 3, 1
	drum_note 11, 1
	drum_note 12, 1
	drum_note 12, 5
	drum_note 3, 1
	drum_note 11, 1
	drum_note 11, 1
	drum_note 11, 1
	drum_note 12, 1
	drum_note 11, 1
	drum_note 11, 1
	drum_note 11, 1
	drum_note 3, 1
	drum_note 11, 1
	drum_note 12, 1
	drum_note 12, 1
	drum_note 11, 1
	drum_note 11, 1
	drum_note 11, 1
	drum_note 11, 1
	drum_note 3, 1
	drum_note 11, 1
	drum_note 11, 1
	drum_note 12, 1
	drum_note 11, 1
	drum_note 11, 1
	drum_note 11, 1
	drum_note 11, 1
	drum_note 3, 1
	drum_note 11, 1
	drum_note 12, 1
	drum_note 12, 2
	drum_note 11, 1
	drum_note 11, 2
	drum_note 3, 1
	drum_note 11, 1
	drum_note 12, 1
	drum_note 12, 1
	drum_note 12, 1
	drum_note 11, 1
	drum_note 11, 1
	drum_note 11, 1
	drum_note 3, 1
	drum_note 11, 1
	drum_note 12, 1
	drum_note 12, 1
	drum_note 11, 1
	drum_note 11, 1
	drum_note 11, 1
	drum_note 11, 1
	drum_note 3, 1
	drum_note 11, 1
	drum_note 11, 1
	drum_note 12, 1
	drum_note 11, 1
	drum_note 11, 1
	drum_note 11, 1
	drum_note 11, 1
	drum_note 3, 1
	drum_note 11, 1
	drum_note 12, 1
	drum_note 12, 2
	drum_note 11, 1
	drum_note 11, 2
	drum_note 3, 1
	drum_note 11, 1
	drum_note 12, 1
	drum_note 12, 1
	drum_note 11, 1
	drum_note 11, 1
	drum_note 11, 1
	drum_note 11, 1
	drum_note 3, 1
	drum_note 3, 1
	drum_note 12, 1
	drum_note 12, 1
	drum_note 3, 1
	drum_note 3, 1
	drum_note 3, 1
	drum_note 3, 1
	drum_note 3, 1
	drum_note 12, 1
	drum_note 11, 1
	drum_note 11, 1
	drum_note 12, 1
	drum_note 3, 1
	drum_note 12, 1
	drum_note 12, 1
	drum_note 3, 1
	drum_note 12, 1
	drum_note 3, 1
	drum_note 11, 2
	drum_note 3, 2
	drum_note 12, 1
	drum_note 3, 1
	drum_note 3, 1
	drum_note 12, 1
	drum_note 11, 2
	drum_note 3, 1
	drum_note 12, 1
	drum_note 3, 1
	drum_note 3, 2
	drum_note 12, 1
	drum_note 11, 1
	drum_note 12, 1
	drum_note 3, 1
	drum_note 12, 1
	drum_note 3, 1
	drum_note 12, 2
	drum_note 12, 2
	drum_note 11, 1
	drum_note 12, 2
	drum_note 11, 1
	drum_note 3, 1
	drum_note 11, 1
	drum_note 12, 1
	drum_note 12, 2
	drum_note 11, 1
	drum_note 11, 2
	drum_note 3, 1
	drum_note 11, 2
	drum_note 12, 1
	drum_note 11, 1
	drum_note 12, 2
	drum_note 11, 1
	drum_note 3, 1
	drum_note 11, 1
	drum_note 11, 1
	drum_note 12, 2
	drum_note 11, 1
	drum_note 11, 2
	drum_note 3, 1
	drum_note 11, 2
	drum_note 11, 1
	drum_note 11, 1
	drum_note 12, 2
	drum_note 11, 1
	drum_note 3, 1
	drum_note 11, 1
	drum_note 12, 1
	drum_note 12, 2
	drum_note 11, 1
	drum_note 11, 2
	drum_note 3, 1
	drum_note 12, 2
	drum_note 11, 1
	drum_note 11, 1
	drum_note 12, 2
	drum_note 11, 1
	drum_note 3, 1
	drum_note 11, 1
	drum_note 11, 1
	drum_note 12, 2
	drum_note 11, 1
	drum_note 11, 2
	drum_note 3, 1
	drum_note 11, 2
	drum_note 11, 1
	drum_note 3, 1
	drum_note 3, 1
	drum_note 12, 1
	drum_note 12, 1
	drum_note 11, 1
	drum_note 3, 1
	drum_note 11, 1
	drum_note 12, 1
	drum_note 11, 1
	drum_note 12, 2
	drum_note 11, 1
	drum_note 3, 1
	drum_note 11, 1
	drum_note 12, 1
	drum_note 12, 2
	drum_note 11, 1
	drum_note 11, 2
	drum_note 3, 1
	drum_note 11, 2
	drum_note 12, 1
	drum_note 11, 1
	drum_note 12, 2
	drum_note 11, 1
	drum_note 3, 1
	drum_note 11, 1
	drum_note 11, 1
	drum_note 12, 2
	drum_note 11, 1
	drum_note 11, 2
	drum_note 3, 1
	drum_note 11, 2
	drum_note 11, 1
	drum_note 11, 1
	drum_note 12, 2
	drum_note 11, 1
	drum_note 3, 1
	drum_note 11, 1
	drum_note 12, 1
	drum_note 12, 2
	drum_note 11, 1
	drum_note 11, 2
	drum_note 3, 1
	drum_note 12, 2
	drum_note 11, 1
	drum_note 11, 1
	drum_note 12, 2
	drum_note 11, 1
	drum_note 3, 1
	drum_note 11, 1
	drum_note 11, 1
	drum_note 12, 2
	drum_note 11, 1
	drum_note 11, 2
	drum_note 3, 1
	drum_note 11, 2
	drum_note 11, 1
	drum_note 3, 1
	drum_note 3, 1
	drum_note 12, 1
	drum_note 3, 1
	drum_note 11, 1
	drum_note 12, 1
	drum_note 11, 1
	drum_note 12, 1
	drum_note 11, 1
	drum_note 12, 2
	drum_note 11, 1
	drum_note 3, 1
	drum_note 11, 1
	drum_note 12, 1
	drum_note 12, 2
	drum_note 11, 1
	drum_note 11, 2
	drum_note 3, 1
	drum_note 11, 2
	drum_note 12, 1
	drum_note 11, 1
	drum_note 12, 2
	drum_note 11, 1
	drum_note 3, 1
	drum_note 11, 1
	drum_note 11, 1
	drum_note 12, 2
	drum_note 11, 1
	drum_note 11, 2
	drum_note 3, 1
	drum_note 11, 2
	drum_note 11, 1
	drum_note 11, 1
	drum_note 12, 2
	drum_note 11, 1
	drum_note 3, 1
	drum_note 11, 1
	drum_note 12, 1
	drum_note 12, 2
	drum_note 11, 1
	drum_note 11, 2
	drum_note 3, 1
	drum_note 12, 2
	drum_note 11, 1
	drum_note 11, 1
	drum_note 12, 2
	drum_note 11, 1
	drum_note 3, 1
	drum_note 11, 1
	drum_note 11, 1
	drum_note 12, 2
	drum_note 11, 1
	drum_note 11, 2
	drum_note 3, 1
	drum_note 11, 2
	drum_note 11, 1
	drum_note 3, 1
	drum_note 3, 1
	drum_note 12, 1
	drum_note 12, 1
	drum_note 11, 1
	drum_note 3, 1
	drum_note 11, 1
	drum_note 12, 1
	drum_note 11, 1
	drum_note 12, 2
	drum_note 11, 1
	drum_note 3, 1
	drum_note 11, 1
	drum_note 12, 1
	drum_note 12, 2
	drum_note 11, 1
	drum_note 11, 2
	drum_note 3, 1
	drum_note 11, 2
	drum_note 12, 1
	drum_note 11, 1
	drum_note 12, 2
	drum_note 11, 1
	drum_note 3, 1
	drum_note 11, 1
	drum_note 11, 1
	drum_note 12, 2
	drum_note 11, 1
	drum_note 11, 2
	drum_note 3, 1
	drum_note 11, 2
	drum_note 11, 1
	drum_note 11, 1
	drum_note 12, 2
	drum_note 11, 1
	drum_note 3, 1
	drum_note 11, 1
	drum_note 12, 1
	drum_note 12, 2
	drum_note 11, 1
	drum_note 11, 2
	drum_note 3, 1
	drum_note 12, 2
	drum_note 11, 1
	drum_note 11, 1
	drum_note 12, 2
	drum_note 11, 1
	drum_note 3, 1
	drum_note 11, 1
	drum_note 11, 1
	drum_note 12, 2
	drum_note 11, 1
	drum_note 11, 2
	drum_note 3, 1
	drum_note 11, 2
	drum_note 11, 1
	drum_note 3, 1
	drum_note 3, 1
	drum_note 12, 1
	drum_note 3, 1
	drum_note 11, 1
	drum_note 12, 1
	drum_note 11, 1
	drum_note 12, 1
	drum_note 11, 1
	drum_note 12, 2
	drum_note 11, 1
	drum_note 3, 1
	drum_note 11, 1
	drum_note 12, 1
	drum_note 12, 2
	drum_note 11, 1
	drum_note 11, 2
	drum_note 3, 1
	drum_note 11, 2
	drum_note 12, 1
	drum_note 11, 1
	drum_note 12, 2
	drum_note 11, 1
	drum_note 3, 1
	drum_note 11, 1
	drum_note 11, 1
	drum_note 12, 2
	drum_note 11, 1
	drum_note 11, 2
	drum_note 3, 1
	drum_note 11, 2
	drum_note 11, 1
	drum_note 11, 1
	drum_note 12, 2
	drum_note 11, 1
	drum_note 3, 1
	drum_note 11, 1
	drum_note 12, 1
	drum_note 12, 2
	drum_note 11, 1
	drum_note 11, 2
	drum_note 3, 1
	drum_note 12, 2
	drum_note 11, 1
	drum_note 11, 1
	drum_note 12, 2
	drum_note 11, 1
	drum_note 3, 1
	drum_note 11, 1
	drum_note 11, 1
	drum_note 12, 2
	drum_note 11, 1
	drum_note 11, 2
	drum_note 3, 1
	drum_note 11, 2
	drum_note 11, 1
	drum_note 3, 1
	drum_note 3, 1
	drum_note 12, 1
	drum_note 12, 1
	drum_note 11, 1
	drum_note 3, 1
	drum_note 11, 1
	drum_note 12, 1
	drum_note 11, 1
	drum_note 12, 2
	drum_note 11, 1
	drum_note 3, 1
	drum_note 11, 1
	drum_note 12, 1
	drum_note 12, 2
	drum_note 11, 1
	drum_note 11, 2
	drum_note 3, 1
	drum_note 11, 2
	drum_note 12, 1
	drum_note 11, 1
	drum_note 12, 2
	drum_note 11, 1
	drum_note 3, 1
	drum_note 11, 1
	drum_note 11, 1
	drum_note 12, 2
	drum_note 11, 1
	drum_note 11, 2
	drum_note 3, 1
	drum_note 11, 2
	drum_note 11, 1
	drum_note 11, 1
	drum_note 12, 2
	drum_note 11, 1
	drum_note 3, 1
	drum_note 11, 1
	drum_note 12, 1
	drum_note 12, 2
	drum_note 11, 1
	drum_note 11, 2
	drum_note 3, 1
	drum_note 12, 2
	drum_note 11, 1
	drum_note 11, 1
	drum_note 12, 2
	drum_note 11, 1
	drum_note 3, 1
	drum_note 11, 1
	drum_note 11, 1
	drum_note 12, 2
	drum_note 11, 1
	drum_note 11, 2
	drum_note 3, 1
	drum_note 11, 2
	drum_note 11, 1
	drum_note 3, 1
	drum_note 3, 1
	drum_note 12, 1
	drum_note 3, 1
	drum_note 11, 1
	drum_note 12, 1
	drum_note 11, 1
	drum_note 12, 1
	drum_note 11, 1
	drum_note 12, 2
	drum_note 11, 1
	drum_note 3, 1
	drum_note 11, 1
	drum_note 12, 1
	drum_note 12, 2
	drum_note 11, 1
	drum_note 11, 2
	drum_note 3, 1
	drum_note 11, 2
	drum_note 12, 1
	drum_note 11, 1
	drum_note 12, 2
	drum_note 11, 1
	drum_note 3, 1
	drum_note 11, 1
	drum_note 11, 1
	drum_note 12, 2
	drum_note 11, 1
	drum_note 11, 2
	drum_note 3, 1
	drum_note 11, 2
	drum_note 11, 1
	drum_note 11, 1
	drum_note 12, 2
	drum_note 11, 1
	drum_note 3, 1
	drum_note 11, 1
	drum_note 12, 1
	drum_note 12, 2
	drum_note 11, 1
	drum_note 11, 2
	drum_note 3, 1
	drum_note 12, 2
	drum_note 11, 1
	drum_note 11, 1
	drum_note 12, 2
	drum_note 11, 1
	drum_note 3, 1
	drum_note 11, 1
	drum_note 11, 1
	drum_note 12, 2
	drum_note 11, 1
	drum_note 11, 2
	drum_note 3, 1
	drum_note 11, 2
	drum_note 11, 1
	drum_note 3, 1
	drum_note 3, 1
	drum_note 12, 1
	drum_note 12, 1
	drum_note 11, 1
	drum_note 3, 1
	drum_note 11, 1
	drum_note 12, 1
	drum_note 11, 1
	drum_note 12, 2
	drum_note 11, 1
	drum_note 3, 1
	drum_note 11, 1
	drum_note 12, 1
	drum_note 12, 2
	drum_note 11, 1
	drum_note 11, 2
	drum_note 3, 1
	drum_note 11, 2
	drum_note 12, 1
	drum_note 11, 1
	drum_note 12, 2
	drum_note 11, 1
	drum_note 3, 1
	drum_note 11, 1
	drum_note 11, 1
	drum_note 12, 2
	drum_note 11, 1
	drum_note 11, 2
	drum_note 3, 1
	drum_note 11, 2
	drum_note 11, 1
	drum_note 11, 1
	drum_note 12, 2
	drum_note 11, 1
	drum_note 3, 1
	drum_note 11, 1
	drum_note 12, 1
	drum_note 12, 2
	drum_note 11, 1
	drum_note 11, 2
	drum_note 3, 1
	drum_note 12, 2
	drum_note 11, 1
	drum_note 11, 1
	drum_note 12, 2
	drum_note 11, 1
	drum_note 3, 1
	drum_note 11, 1
	drum_note 11, 1
	drum_note 12, 2
	drum_note 11, 1
	drum_note 11, 2
	drum_note 3, 1
	drum_note 11, 2
	drum_note 11, 1
	drum_note 3, 1
	drum_note 3, 1
	drum_note 12, 1
	drum_note 3, 1
	drum_note 11, 1
	drum_note 12, 1
	drum_note 11, 1
	drum_note 12, 1
	drum_note 11, 1
	drum_note 12, 2
	drum_note 11, 1
	sound_jump Music_GF2_TakeBack_Ch4_loop
