Music_TDBL_BurningPoint:
	channel_count 4
	channel 1, Music_TDBL_BurningPoint_Ch1
	channel 2, Music_TDBL_BurningPoint_Ch2
	channel 3, Music_TDBL_BurningPoint_Ch3
	channel 4, Music_TDBL_BurningPoint_Ch4

Music_TDBL_BurningPoint_Ch1:
	volume 7, 7
	duty_cycle 2
	note_type 12, 10, 7
	tempo 151
	stereo_panning TRUE, TRUE
	octave 3
	note A_, 3
	note A_, 1
	note A_, 1
	rest 12
	note A_, 1
	rest 1
	note A_, 1
	rest 12
	note G_, 3
	note G_, 1
	rest 13
	note G_, 1
	rest 1
	note G_, 1
	rest 1
	note G_, 1
	rest 10
	note A_, 3
	note A_, 1
	note A_, 1
	rest 12
	note A_, 1
	rest 1
	note A_, 1
	rest 12
	note G_, 3
	note G_, 1
	rest 13
	note G_, 1
	rest 1
	note G_, 1
	rest 1
	note G_, 1
	rest 10
Music_TDBL_BurningPoint_Ch1_loop:
	octave 2
	note E_, 2
	note E_, 1
	note E_, 2
	note E_, 1
	octave 3
	note D_, 1
	note E_, 1
	octave 2
	note E_, 1
	note E_, 1
	note E_, 2
	note E_, 1
	octave 3
	note D_, 1
	note E_, 1
	octave 2
	note E_, 3
	note E_, 1
	note E_, 2
	note E_, 1
	octave 3
	note D_, 1
	note E_, 1
	octave 2
	note C#, 2
	octave 3
	note C#, 1
	octave 2
	note C#, 1
	note D_, 1
	octave 3
	note D_, 1
	octave 2
	note D#, 1
	octave 3
	note D#, 1
	octave 2
	note E_, 2
	note E_, 1
	note E_, 2
	note E_, 1
	octave 3
	note D_, 1
	note E_, 1
	octave 2
	note E_, 1
	note E_, 1
	note E_, 2
	note E_, 1
	octave 3
	note D_, 1
	note E_, 1
	octave 2
	note E_, 3
	note E_, 1
	note E_, 2
	note E_, 1
	octave 3
	note D_, 1
	note E_, 1
	octave 2
	note C#, 2
	octave 3
	note C#, 1
	octave 2
	note C#, 1
	note D_, 1
	octave 3
	note D_, 1
	octave 2
	note D#, 1
	octave 3
	note D#, 1
	octave 2
	note E_, 2
	note E_, 1
	note E_, 2
	note E_, 1
	octave 3
	note D_, 1
	note E_, 1
	octave 2
	note E_, 1
	note E_, 1
	note E_, 2
	note E_, 1
	octave 3
	note D_, 1
	note E_, 1
	octave 2
	note E_, 3
	note E_, 1
	note E_, 2
	note E_, 1
	octave 3
	note D_, 1
	note E_, 1
	octave 2
	note C#, 2
	octave 3
	note C#, 1
	octave 2
	note C#, 1
	note D_, 1
	octave 3
	note D_, 1
	octave 2
	note D#, 1
	octave 3
	note D#, 1
	octave 2
	note E_, 2
	note E_, 1
	note E_, 2
	note E_, 1
	octave 3
	note D_, 1
	note E_, 1
	octave 2
	note E_, 1
	note E_, 1
	note E_, 2
	note E_, 1
	octave 3
	note D_, 1
	note E_, 1
	octave 2
	note E_, 3
	note E_, 1
	note E_, 2
	note E_, 1
	octave 3
	note D_, 1
	note E_, 1
	octave 2
	note C#, 2
	octave 3
	note C#, 1
	octave 2
	note C#, 1
	note D_, 1
	octave 3
	note D_, 1
	octave 2
	note D#, 1
	octave 3
	note D#, 1
	octave 2
	note E_, 2
	note E_, 1
	note E_, 2
	note E_, 1
	octave 3
	note D_, 1
	note E_, 1
	octave 2
	note E_, 1
	note E_, 1
	note E_, 2
	note E_, 1
	octave 3
	note D_, 1
	note E_, 1
	octave 2
	note E_, 3
	note E_, 1
	note E_, 2
	note E_, 1
	octave 3
	note D_, 1
	note E_, 1
	octave 2
	note C#, 2
	octave 3
	note C#, 1
	octave 2
	note C#, 1
	note D_, 1
	octave 3
	note D_, 1
	octave 2
	note D#, 1
	octave 3
	note D#, 1
	octave 2
	note E_, 2
	note E_, 1
	note E_, 2
	note E_, 1
	octave 3
	note D_, 1
	note E_, 1
	octave 2
	note E_, 1
	note E_, 1
	note E_, 2
	note E_, 1
	octave 3
	note D_, 1
	note E_, 1
	octave 2
	note E_, 3
	note E_, 1
	note E_, 2
	note E_, 1
	octave 3
	note D_, 1
	note E_, 1
	octave 2
	note C#, 2
	octave 3
	note C#, 1
	octave 2
	note C#, 1
	note D_, 1
	octave 3
	note D_, 1
	octave 2
	note D#, 1
	octave 3
	note D#, 1
	octave 2
	note E_, 2
	note E_, 1
	note E_, 2
	note E_, 1
	octave 3
	note D_, 1
	note E_, 1
	octave 2
	note E_, 1
	note E_, 1
	note E_, 2
	note E_, 1
	octave 3
	note D_, 1
	note E_, 1
	octave 2
	note E_, 3
	note E_, 1
	note E_, 2
	note E_, 1
	octave 3
	note D_, 1
	note E_, 1
	octave 2
	note C#, 2
	octave 3
	note C#, 1
	octave 2
	note C#, 1
	note D_, 1
	octave 3
	note D_, 1
	octave 2
	note D#, 1
	octave 3
	note D#, 1
	octave 2
	note E_, 2
	note E_, 1
	note E_, 2
	note E_, 1
	octave 3
	note D_, 1
	note E_, 1
	octave 2
	note E_, 1
	note E_, 1
	note E_, 2
	note E_, 1
	octave 3
	note D_, 1
	note E_, 1
	octave 2
	note E_, 3
	note E_, 1
	note E_, 2
	note E_, 1
	octave 3
	note D_, 1
	note E_, 1
	octave 2
	note C#, 2
	octave 3
	note C#, 1
	octave 2
	note C#, 1
	note D_, 1
	octave 3
	note D_, 1
	octave 2
	note D#, 1
	octave 3
	note D#, 1
	octave 2
	note F#, 1
	rest 5
	octave 3
	note E_, 1
	note F#, 1
	octave 2
	note B_, 1
	note B_, 1
	octave 3
	note C#, 1
	octave 2
	note A_, 1
	note B_, 1
	note E_, 1
	note F#, 1
	note F#, 1
	rest 9
	note F#, 1
	note F#, 3
	note F_, 3
	note E_, 3
	note E_, 1
	rest 2
	note E_, 1
	note E_, 1
	note E_, 2
	note E_, 1
	note E_, 2
	note E_, 1
	octave 3
	note D_, 1
	note E_, 1
	octave 2
	note E_, 2
	note E_, 1
	note E_, 2
	note E_, 1
	octave 3
	note D_, 1
	note E_, 1
	octave 2
	note E_, 2
	note E_, 1
	note E_, 2
	note E_, 1
	octave 3
	note D_, 1
	note E_, 1
	note D_, 3
	note D_, 1
	rest 4
	note G_, 1
	note A_, 1
	octave 2
	note E_, 1
	note E_, 1
	octave 3
	note C_, 1
	octave 4
	note C_, 1
	octave 3
	note C_, 2
	note D_, 2
	octave 4
	note D_, 2
	octave 3
	note D_, 2
	octave 4
	note D_, 2
	octave 3
	note D_, 2
	octave 4
	note D_, 2
	octave 3
	note D_, 2
	octave 4
	note D_, 2
	octave 3
	note C_, 2
	octave 4
	note C_, 1
	octave 3
	note C_, 1
	note C_, 1
	octave 4
	note C_, 1
	octave 3
	note C_, 1
	note C_, 1
	note D_, 2
	octave 4
	note D_, 1
	octave 3
	note D_, 1
	note D_, 1
	octave 4
	note D_, 1
	octave 3
	note D_, 1
	note D_, 1
	note E_, 2
	octave 4
	note E_, 1
	octave 3
	note E_, 1
	note E_, 1
	octave 4
	note E_, 1
	octave 3
	note E_, 1
	note E_, 1
	octave 2
	note F_, 2
	octave 3
	note F_, 2
	octave 2
	note F_, 2
	octave 3
	note F_, 2
	octave 2
	note F#, 1
	rest 5
	octave 3
	note E_, 1
	note F#, 1
	octave 2
	note B_, 1
	note B_, 1
	octave 3
	note C#, 1
	octave 2
	note A_, 1
	note B_, 1
	note E_, 1
	note F#, 1
	note F#, 1
	rest 9
	note F#, 1
	note F#, 3
	note F_, 3
	note E_, 3
	note E_, 1
	rest 2
	note E_, 1
	note E_, 1
	note E_, 2
	note E_, 1
	note E_, 2
	note E_, 1
	octave 3
	note D_, 1
	note E_, 1
	octave 2
	note E_, 2
	note E_, 1
	note E_, 2
	note E_, 1
	octave 3
	note D_, 1
	note E_, 1
	octave 2
	note E_, 2
	note E_, 1
	note E_, 2
	note E_, 1
	octave 3
	note D_, 1
	note E_, 1
	note D_, 3
	note D_, 1
	rest 4
	note G_, 1
	note A_, 1
	octave 2
	note E_, 1
	note E_, 1
	octave 3
	note C_, 1
	octave 4
	note C_, 1
	octave 3
	note C_, 2
	note D_, 2
	octave 4
	note D_, 2
	octave 3
	note D_, 2
	octave 4
	note D_, 2
	octave 3
	note D_, 2
	octave 4
	note D_, 2
	octave 3
	note D_, 2
	octave 4
	note D_, 2
	octave 3
	note C_, 2
	octave 4
	note C_, 1
	octave 3
	note C_, 1
	note C_, 1
	octave 4
	note C_, 1
	octave 3
	note C_, 1
	note C_, 1
	note D_, 2
	octave 4
	note D_, 1
	octave 3
	note D_, 1
	note D_, 1
	octave 4
	note D_, 1
	octave 3
	note D_, 1
	note D_, 1
	note E_, 2
	octave 4
	note E_, 1
	octave 3
	note E_, 1
	note E_, 1
	octave 4
	note E_, 1
	octave 3
	note E_, 1
	note E_, 1
	octave 2
	note F_, 2
	octave 3
	note F_, 2
	octave 2
	note F_, 2
	octave 3
	note F_, 2
	sound_jump Music_TDBL_BurningPoint_Ch1_loop

Music_TDBL_BurningPoint_Ch2:
	duty_cycle 1
	note_type 12, 11, 7
	stereo_panning TRUE, TRUE
	octave 4
	note E_, 3
	note E_, 1
	note E_, 1
	rest 12
	note D#, 1
	rest 1
	note D#, 1
	rest 12
	note D_, 3
	note D_, 1
	rest 13
	note C#, 1
	rest 1
	note C#, 1
	rest 1
	note C#, 1
	rest 10
	note E_, 3
	note E_, 1
	note E_, 1
	rest 12
	note D#, 1
	rest 1
	note D#, 1
	rest 12
	note D_, 3
	note D_, 1
	rest 13
	note C#, 1
	rest 1
	note C#, 1
	rest 1
	note C#, 1
	rest 10
Music_TDBL_BurningPoint_Ch2_loop:
	octave 4
	note D_, 16
	rest 2
	note F#, 1
	note D_, 1
	octave 3
	note B_, 1
	octave 4
	note D_, 1
	octave 3
	note B_, 1
	note E_, 1
	note G_, 8
	octave 4
	note D_, 16
	octave 3
	note E_, 1
	note G_, 1
	note A#, 1
	octave 4
	note C#, 1
	octave 3
	note G_, 1
	note A#, 1
	octave 4
	note C#, 1
	note E_, 1
	octave 3
	note A#, 1
	octave 4
	note C#, 1
	note E_, 1
	note G_, 1
	note C#, 1
	note E_, 1
	note G_, 1
	octave 5
	note C#, 1
	octave 4
	note F#, 8
	octave 5
	note D_, 6
	note D_, 1
	note D_, 1
	rest 2
	octave 4
	note D_, 1
	rest 2
	note D_, 1
	rest 2
	note E_, 4
	note E_, 3
	note D_, 16
	note D_, 1
	rest 2
	note D_, 1
	rest 2
	note D_, 1
	rest 2
	note E_, 4
	note E_, 3
	rest 1
	note D_, 16
	rest 2
	note F#, 1
	note D_, 1
	octave 3
	note B_, 1
	octave 4
	note D_, 1
	octave 3
	note B_, 1
	note E_, 1
	note G_, 8
	octave 4
	note D_, 16
	octave 3
	note E_, 1
	note G_, 1
	note A#, 1
	octave 4
	note C#, 1
	octave 3
	note G_, 1
	note A#, 1
	octave 4
	note C#, 1
	note E_, 1
	octave 3
	note A#, 1
	octave 4
	note C#, 1
	note E_, 1
	note G_, 1
	note C#, 1
	note E_, 1
	note G_, 1
	octave 5
	note C#, 1
	octave 4
	note F#, 8
	octave 5
	note D_, 6
	note D_, 1
	note D_, 1
	rest 2
	octave 4
	note D_, 1
	rest 2
	note D_, 1
	rest 2
	note E_, 4
	note E_, 3
	note D_, 16
	note D_, 1
	rest 2
	note D_, 1
	rest 2
	note D_, 1
	rest 2
	note E_, 4
	note E_, 3
	rest 1
	octave 3
	note F#, 1
	note A_, 1
	octave 4
	note E_, 1
	note G#, 1
	note E_, 1
	note G#, 1
	octave 3
	note A_, 1
	octave 4
	note E_, 1
	note G#, 1
	note E_, 1
	octave 3
	note A_, 1
	note F#, 1
	note E_, 1
	note A_, 1
	octave 4
	note D_, 1
	note F#, 1
	octave 3
	note F#, 1
	note A_, 1
	octave 4
	note E_, 1
	note G#, 1
	note E_, 1
	note G#, 1
	octave 3
	note A_, 1
	octave 4
	note E_, 1
	note G#, 1
	note E_, 1
	octave 3
	note A_, 1
	note F#, 1
	note F_, 1
	note A#, 1
	octave 4
	note D#, 1
	note G_, 1
	octave 3
	note E_, 1
	note G_, 1
	octave 4
	note D_, 1
	note F#, 1
	note D_, 1
	note F#, 1
	octave 3
	note G_, 1
	octave 4
	note D_, 1
	octave 3
	note E_, 1
	note G_, 1
	octave 4
	note D_, 1
	note F#, 1
	octave 3
	note D_, 1
	note F_, 1
	octave 4
	note C_, 1
	note E_, 1
	octave 3
	note E_, 1
	note G_, 1
	octave 4
	note D_, 1
	note F#, 1
	note D_, 1
	note F#, 1
	octave 3
	note G_, 1
	octave 4
	note D_, 1
	octave 3
	note E_, 1
	note G_, 1
	octave 4
	note D_, 1
	note F#, 1
	octave 3
	note D#, 1
	note F#, 1
	octave 4
	note C#, 1
	note F_, 1
	octave 3
	note D_, 1
	note F_, 1
	octave 4
	note C_, 1
	note E_, 1
	note C_, 1
	octave 3
	note F_, 1
	octave 4
	note C_, 1
	note E_, 1
	note C_, 1
	octave 3
	note F_, 1
	octave 4
	note C_, 1
	note E_, 1
	octave 3
	note D_, 1
	note F_, 1
	note A#, 1
	octave 4
	note D_, 1
	octave 3
	note D_, 1
	note F_, 1
	octave 4
	note C_, 1
	note E_, 1
	note C_, 1
	note E_, 1
	octave 3
	note F_, 1
	octave 4
	note C_, 1
	octave 3
	note D_, 1
	octave 4
	note C_, 1
	note E_, 1
	note C_, 1
	note E_, 1
	note C_, 1
	octave 3
	note F_, 1
	octave 4
	note E_, 1
	octave 3
	note C_, 1
	note F_, 1
	note A#, 1
	octave 4
	note D_, 1
	octave 3
	note A#, 1
	note F_, 1
	note A#, 1
	octave 4
	note D_, 1
	octave 3
	note D_, 1
	note G_, 1
	octave 4
	note C_, 1
	note E_, 1
	note C_, 1
	octave 3
	note G_, 1
	octave 4
	note C_, 1
	note E_, 1
	octave 3
	note E_, 1
	note A_, 1
	octave 4
	note D_, 1
	note F_, 1
	octave 3
	note E_, 1
	note A_, 1
	octave 4
	note D_, 1
	note F_, 1
	octave 3
	note F#, 1
	note A_, 1
	octave 4
	note D#, 1
	note G_, 1
	note D#, 1
	octave 3
	note A_, 1
	note F#, 1
	note A_, 1
	note F#, 1
	note A_, 1
	octave 4
	note E_, 1
	note G#, 1
	note E_, 1
	note G#, 1
	octave 3
	note A_, 1
	octave 4
	note E_, 1
	note G#, 1
	note E_, 1
	octave 3
	note A_, 1
	note F#, 1
	note E_, 1
	note A_, 1
	octave 4
	note D_, 1
	note F#, 1
	octave 3
	note F#, 1
	note A_, 1
	octave 4
	note E_, 1
	note G#, 1
	note E_, 1
	note G#, 1
	octave 3
	note A_, 1
	octave 4
	note E_, 1
	note G#, 1
	note E_, 1
	octave 3
	note A_, 1
	note F#, 1
	note F_, 1
	note A#, 1
	octave 4
	note D#, 1
	note G_, 1
	octave 3
	note E_, 1
	note G_, 1
	octave 4
	note D_, 1
	note F#, 1
	note D_, 1
	note F#, 1
	octave 3
	note G_, 1
	octave 4
	note D_, 1
	octave 3
	note E_, 1
	note G_, 1
	octave 4
	note D_, 1
	note F#, 1
	octave 3
	note D_, 1
	note F_, 1
	octave 4
	note C_, 1
	note E_, 1
	octave 3
	note E_, 1
	note G_, 1
	octave 4
	note D_, 1
	note F#, 1
	note D_, 1
	note F#, 1
	octave 3
	note G_, 1
	octave 4
	note D_, 1
	octave 3
	note E_, 1
	note G_, 1
	octave 4
	note D_, 1
	note F#, 1
	octave 3
	note D#, 1
	note F#, 1
	octave 4
	note C#, 1
	note F_, 1
	octave 3
	note D_, 1
	note F_, 1
	octave 4
	note C_, 1
	note E_, 1
	note C_, 1
	octave 3
	note F_, 1
	octave 4
	note C_, 1
	note E_, 1
	note C_, 1
	octave 3
	note F_, 1
	octave 4
	note C_, 1
	note E_, 1
	octave 3
	note D_, 1
	note F_, 1
	note A#, 1
	octave 4
	note D_, 1
	octave 3
	note D_, 1
	note F_, 1
	octave 4
	note C_, 1
	note E_, 1
	note C_, 1
	note E_, 1
	octave 3
	note F_, 1
	octave 4
	note C_, 1
	octave 3
	note D_, 1
	octave 4
	note C_, 1
	note E_, 1
	note C_, 1
	note E_, 1
	note C_, 1
	octave 3
	note F_, 1
	octave 4
	note E_, 1
	octave 3
	note C_, 1
	note F_, 1
	note A#, 1
	octave 4
	note D_, 1
	octave 3
	note A#, 1
	note F_, 1
	note A#, 1
	octave 4
	note D_, 1
	octave 3
	note D_, 1
	note G_, 1
	octave 4
	note C_, 1
	note E_, 1
	note C_, 1
	octave 3
	note G_, 1
	octave 4
	note C_, 1
	note E_, 1
	octave 3
	note E_, 1
	note A_, 1
	octave 4
	note D_, 1
	note F_, 1
	octave 3
	note E_, 1
	note A_, 1
	octave 4
	note D_, 1
	note F_, 1
	octave 3
	note F#, 1
	note A_, 1
	octave 4
	note D#, 1
	note G_, 1
	note D#, 1
	octave 3
	note A_, 1
	note F#, 1
	note A_, 1
	sound_jump Music_TDBL_BurningPoint_Ch2_loop

Music_TDBL_BurningPoint_Ch3:
	note_type 12, 2, 3
	octave 5
	note G#, 3
	note G#, 1
	note G#, 1
	rest 12
	note G#, 1
	rest 1
	note G#, 1
	rest 12
	note F#, 3
	note F#, 1
	rest 13
	note F#, 1
	rest 1
	note F#, 1
	rest 1
	note F#, 1
	rest 10
	note G#, 3
	note G#, 1
	note G#, 1
	rest 12
	note G#, 1
	rest 1
	note G#, 1
	rest 12
	note F#, 3
	note F#, 1
	rest 13
	note F#, 1
	rest 1
	note F#, 1
	rest 1
	note F#, 1
	rest 10
Music_TDBL_BurningPoint_Ch3_loop:
	note_type 12, 2, 3
	octave 5
	note F#, 16
	rest 2
	note F#, 1
	rest 2
	note F#, 1
	rest 2
	note G_, 4
	note G_, 3
	note F#, 16
	note F#, 1
	rest 2
	note F#, 1
	rest 2
	note F#, 1
	rest 2
	note G_, 4
	note G_, 3
	note F#, 16
	note F#, 1
	rest 2
	note F#, 1
	rest 2
	note F#, 1
	rest 2
	note G_, 4
	note G_, 3
	note F#, 16
	note F#, 1
	rest 2
	note F#, 1
	rest 2
	note F#, 1
	rest 2
	note G_, 4
	note G_, 3
	note F#, 16
	note F#, 1
	rest 2
	note F#, 1
	rest 2
	note F#, 1
	rest 2
	note G_, 4
	note G_, 3
	note F#, 16
	note F#, 1
	rest 2
	note F#, 1
	rest 2
	note F#, 1
	rest 2
	note G_, 4
	note G_, 3
	note F#, 16
	note F#, 1
	rest 2
	note F#, 1
	rest 2
	note F#, 1
	rest 2
	note G_, 4
	note G_, 3
	note F#, 16
	note F#, 1
	rest 8
	octave 4
	note B_, 1
	octave 5
	note C#, 1
	note D#, 1
	note E_, 1
	note C#, 1
	note D#, 1
	note E_, 1
	note G_, 1
	note G#, 10
	note A_, 1
	note G#, 1
	note F#, 4
	note G#, 12
	note G_, 4
	note F#, 12
	note E_, 2
	note G_, 1
	note F#, 13
	note F_, 4
	note E_, 12
	note D_, 2
	note F_, 1
	note E_, 16
	note E_, 1
	note D_, 1
	note C_, 1
	note D_, 2
	note E_, 1
	note D_, 1
	note E_, 2
	note F_, 1
	note E_, 1
	note F_, 2
	note G_, 1
	note F_, 1
	note G_, 2
	note_type 8, 2, 3
	note E_, 2
	note D#, 2
	note E_, 2
	note F_, 2
	note E_, 2
	note F_, 2
	note F#, 2
	note F_, 2
	note F#, 2
	note G_, 2
	note F#, 2
	note G_, 2
	note_type 12, 2, 3
	octave 6
	note G#, 10
	note A_, 1
	note G#, 1
	note F#, 4
	note G#, 12
	note G_, 4
	note F#, 12
	note E_, 2
	note G_, 1
	note F#, 13
	note F_, 4
	note E_, 12
	note D_, 2
	note F_, 1
	note E_, 16
	note E_, 1
	note D_, 1
	note C_, 1
	note D_, 2
	note E_, 1
	note D_, 1
	note E_, 2
	note F_, 1
	note E_, 1
	note F_, 2
	note G_, 1
	note F_, 1
	note G_, 2
	note_type 8, 2, 3
	note E_, 2
	note D#, 2
	note E_, 2
	note F_, 2
	note E_, 2
	note F_, 2
	note F#, 2
	note F_, 2
	note F#, 2
	note G_, 2
	note F#, 2
	note G_, 2
	sound_jump Music_TDBL_BurningPoint_Ch3_loop

Music_TDBL_BurningPoint_Ch4:
	toggle_noise 1
	drum_speed 12
	drum_note 10, 2
	drum_note 10, 1
	drum_note 12, 1
	drum_note 10, 1
	drum_note 12, 1
	drum_speed 8
	drum_note 3, 1
	drum_note 3, 1
	drum_note 3, 1
	drum_note 3, 1
	drum_note 3, 1
	drum_note 3, 1
	drum_note 3, 1
	drum_note 3, 1
	drum_note 3, 1
	drum_speed 12
	drum_note 3, 2
	drum_note 10, 2
	drum_note 10, 1
	drum_note 11, 2
	drum_note 11, 1
	drum_note 12, 2
	drum_speed 8
	drum_note 3, 1
	drum_note 3, 1
	drum_note 3, 1
	drum_speed 12
	drum_note 3, 2
	drum_note 10, 2
	drum_note 3, 1
	drum_note 11, 3
	drum_note 10, 2
	drum_note 10, 2
	drum_note 11, 1
	drum_note 11, 2
	drum_note 11, 2
	drum_note 3, 1
	drum_note 3, 2
	drum_note 3, 1
	drum_note 11, 4
	drum_note 11, 2
	drum_note 11, 2
	drum_note 11, 2
	drum_note 10, 2
	drum_note 11, 2
	drum_note 10, 1
	drum_speed 8
	drum_note 3, 1
	drum_note 3, 1
	drum_note 3, 1
	drum_note 3, 1
	drum_note 3, 1
	drum_note 3, 1
	drum_speed 12
	drum_note 10, 2
	drum_note 10, 1
	drum_note 12, 1
	drum_note 10, 1
	drum_note 12, 1
	drum_speed 8
	drum_note 3, 1
	drum_note 3, 1
	drum_note 3, 1
	drum_note 3, 1
	drum_note 3, 1
	drum_note 3, 1
	drum_note 3, 1
	drum_note 3, 1
	drum_note 3, 1
	drum_speed 12
	drum_note 3, 2
	drum_note 10, 2
	drum_note 10, 1
	drum_note 11, 2
	drum_note 11, 1
	drum_note 12, 2
	drum_speed 8
	drum_note 3, 1
	drum_note 3, 1
	drum_note 3, 1
	drum_speed 12
	drum_note 3, 2
	drum_note 10, 2
	drum_note 3, 1
	drum_note 11, 3
	drum_note 10, 2
	drum_note 10, 2
	drum_note 11, 1
	drum_note 11, 2
	drum_note 11, 2
	drum_note 3, 1
	drum_note 3, 2
	drum_note 3, 1
	drum_note 11, 4
	drum_note 11, 2
	drum_note 11, 2
	drum_note 11, 2
	drum_note 10, 2
	drum_note 11, 2
	drum_note 10, 1
	drum_speed 8
	drum_note 3, 1
	drum_note 3, 1
	drum_note 3, 1
	drum_note 3, 1
	drum_note 3, 1
	drum_note 3, 1
Music_TDBL_BurningPoint_Ch4_loop:
	drum_speed 12
	drum_note 12, 1
	drum_note 10, 1
	drum_note 10, 1
	drum_note 12, 1
	drum_note 3, 1
	drum_note 11, 2
	drum_note 12, 1
	drum_note 12, 1
	drum_note 10, 1
	drum_note 10, 1
	drum_note 12, 1
	drum_note 3, 1
	drum_note 10, 1
	drum_note 10, 1
	drum_note 3, 1
	drum_note 12, 1
	drum_note 11, 2
	drum_note 12, 1
	drum_note 3, 1
	drum_note 10, 1
	drum_note 10, 1
	drum_note 12, 1
	drum_note 12, 1
	drum_note 10, 1
	drum_note 10, 1
	drum_note 12, 1
	drum_note 3, 1
	drum_note 10, 1
	drum_note 10, 1
	drum_note 12, 1
	drum_note 12, 1
	drum_note 10, 1
	drum_note 10, 1
	drum_note 12, 1
	drum_note 3, 1
	drum_note 11, 2
	drum_note 12, 1
	drum_note 12, 1
	drum_note 10, 1
	drum_note 10, 1
	drum_note 12, 1
	drum_note 3, 1
	drum_note 10, 1
	drum_note 10, 1
	drum_note 3, 1
	drum_note 12, 1
	drum_note 11, 2
	drum_note 12, 1
	drum_note 3, 1
	drum_note 10, 1
	drum_note 10, 1
	drum_note 12, 1
	drum_note 12, 1
	drum_note 10, 1
	drum_note 10, 1
	drum_note 12, 1
	drum_note 3, 1
	drum_note 10, 1
	drum_note 10, 1
	drum_note 12, 1
	drum_note 12, 1
	drum_note 10, 1
	drum_note 10, 1
	drum_note 12, 1
	drum_note 3, 1
	drum_note 11, 2
	drum_note 12, 1
	drum_note 12, 1
	drum_note 10, 1
	drum_note 10, 1
	drum_note 12, 1
	drum_note 3, 1
	drum_note 10, 1
	drum_note 10, 1
	drum_note 3, 1
	drum_note 12, 1
	drum_note 11, 2
	drum_note 12, 1
	drum_note 3, 1
	drum_note 10, 1
	drum_note 10, 1
	drum_note 12, 1
	drum_note 12, 1
	drum_note 10, 1
	drum_note 10, 1
	drum_note 12, 1
	drum_note 3, 1
	drum_note 10, 1
	drum_note 10, 1
	drum_note 12, 1
	drum_note 12, 1
	drum_note 10, 1
	drum_note 10, 1
	drum_note 12, 1
	drum_note 3, 1
	drum_note 11, 2
	drum_note 12, 1
	drum_note 12, 1
	drum_note 10, 1
	drum_note 10, 1
	drum_note 12, 1
	drum_note 3, 1
	drum_note 10, 1
	drum_note 10, 1
	drum_note 3, 1
	drum_note 12, 1
	drum_note 11, 2
	drum_note 12, 1
	drum_note 3, 1
	drum_note 10, 1
	drum_note 10, 1
	drum_note 12, 1
	drum_note 12, 1
	drum_note 10, 1
	drum_note 10, 1
	drum_note 12, 1
	drum_note 3, 1
	drum_note 10, 1
	drum_note 10, 1
	drum_note 12, 1
	drum_note 12, 1
	drum_note 10, 1
	drum_note 10, 1
	drum_note 12, 1
	drum_note 3, 1
	drum_note 11, 2
	drum_note 12, 1
	drum_note 12, 1
	drum_note 10, 1
	drum_note 10, 1
	drum_note 12, 1
	drum_note 3, 1
	drum_note 10, 1
	drum_note 10, 1
	drum_note 3, 1
	drum_note 12, 1
	drum_note 11, 2
	drum_note 12, 1
	drum_note 3, 1
	drum_note 10, 1
	drum_note 10, 1
	drum_note 12, 1
	drum_note 12, 1
	drum_note 10, 1
	drum_note 10, 1
	drum_note 12, 1
	drum_note 3, 1
	drum_note 10, 1
	drum_note 10, 1
	drum_note 12, 1
	drum_note 12, 1
	drum_note 10, 1
	drum_note 10, 1
	drum_note 12, 1
	drum_note 3, 1
	drum_note 11, 2
	drum_note 12, 1
	drum_note 12, 1
	drum_note 10, 1
	drum_note 10, 1
	drum_note 12, 1
	drum_note 3, 1
	drum_note 10, 1
	drum_note 10, 1
	drum_note 3, 1
	drum_note 12, 1
	drum_note 11, 2
	drum_note 12, 1
	drum_note 3, 1
	drum_note 10, 1
	drum_note 10, 1
	drum_note 12, 1
	drum_note 12, 1
	drum_note 10, 1
	drum_note 10, 1
	drum_note 12, 1
	drum_note 3, 1
	drum_note 10, 1
	drum_note 10, 1
	drum_note 12, 1
	drum_note 12, 1
	drum_note 10, 1
	drum_note 10, 1
	drum_note 12, 1
	drum_note 3, 1
	drum_note 11, 2
	drum_note 12, 1
	drum_note 12, 1
	drum_note 10, 1
	drum_note 10, 1
	drum_note 12, 1
	drum_note 3, 1
	drum_note 10, 1
	drum_note 10, 1
	drum_note 3, 1
	drum_note 12, 1
	drum_note 11, 2
	drum_note 12, 1
	drum_note 3, 1
	drum_note 10, 1
	drum_note 10, 1
	drum_note 12, 1
	drum_note 12, 1
	drum_note 10, 1
	drum_note 10, 1
	drum_note 12, 1
	drum_note 3, 1
	drum_note 10, 1
	drum_note 10, 1
	drum_note 12, 1
	drum_note 12, 1
	drum_note 10, 1
	drum_note 10, 1
	drum_note 12, 1
	drum_note 3, 1
	drum_note 11, 2
	drum_note 12, 1
	drum_note 12, 1
	drum_note 10, 1
	drum_note 10, 1
	drum_note 12, 1
	drum_note 3, 1
	drum_note 10, 1
	drum_note 10, 1
	drum_note 3, 1
	drum_note 12, 1
	drum_note 11, 2
	drum_note 12, 1
	drum_note 3, 1
	drum_note 10, 1
	drum_note 10, 1
	drum_note 12, 1
	drum_note 12, 1
	drum_note 10, 1
	drum_note 10, 1
	drum_note 12, 1
	drum_note 3, 1
	drum_note 10, 1
	drum_note 10, 1
	drum_note 12, 1
	drum_note 12, 2
	drum_note 10, 2
	drum_note 3, 1
	drum_note 12, 2
	drum_note 10, 1
	drum_note 10, 1
	drum_note 12, 2
	drum_note 12, 1
	drum_note 3, 2
	drum_note 12, 2
	drum_note 12, 2
	drum_note 10, 2
	drum_note 3, 2
	drum_note 10, 1
	drum_note 12, 1
	drum_note 10, 1
	drum_note 12, 1
	drum_note 12, 2
	drum_note 3, 2
	drum_note 12, 2
	drum_note 12, 2
	drum_note 10, 2
	drum_note 3, 2
	drum_note 10, 1
	drum_note 12, 2
	drum_note 12, 1
	drum_note 10, 2
	drum_note 10, 1
	drum_note 3, 1
	drum_note 3, 1
	drum_note 3, 2
	drum_note 11, 2
	drum_note 11, 1
	drum_note 3, 2
	drum_note 10, 1
	drum_note 12, 1
	drum_note 10, 1
	drum_note 12, 1
	drum_note 12, 1
	drum_note 11, 1
	drum_note 3, 2
	drum_note 12, 2
	drum_note 12, 2
	drum_note 10, 2
	drum_note 3, 2
	drum_note 10, 1
	drum_note 12, 1
	drum_note 10, 1
	drum_note 12, 2
	drum_note 11, 1
	drum_note 3, 2
	drum_note 12, 2
	drum_note 12, 2
	drum_note 10, 2
	drum_note 3, 1
	drum_note 3, 1
	drum_note 10, 1
	drum_note 12, 1
	drum_note 10, 1
	drum_note 12, 1
	drum_note 12, 2
	drum_note 3, 2
	drum_note 12, 3
	drum_note 12, 1
	drum_note 10, 1
	drum_note 12, 1
	drum_note 3, 1
	drum_note 12, 1
	drum_note 10, 1
	drum_note 12, 2
	drum_note 12, 1
	drum_note 10, 2
	drum_note 12, 1
	drum_note 3, 1
	drum_note 3, 1
	drum_note 3, 1
	drum_note 12, 2
	drum_note 10, 2
	drum_note 12, 2
	drum_note 10, 3
	drum_note 12, 1
	drum_note 12, 1
	drum_note 12, 1
	drum_note 3, 1
	drum_note 3, 1
	drum_note 3, 1
	drum_note 3, 1
	drum_note 12, 2
	drum_note 10, 2
	drum_note 3, 1
	drum_note 12, 2
	drum_note 10, 1
	drum_note 10, 1
	drum_note 12, 2
	drum_note 12, 1
	drum_note 3, 2
	drum_note 12, 2
	drum_note 12, 2
	drum_note 10, 2
	drum_note 3, 2
	drum_note 10, 1
	drum_note 12, 1
	drum_note 10, 1
	drum_note 12, 1
	drum_note 12, 2
	drum_note 3, 2
	drum_note 12, 2
	drum_note 12, 2
	drum_note 10, 2
	drum_note 3, 2
	drum_note 10, 1
	drum_note 12, 2
	drum_note 12, 1
	drum_note 10, 2
	drum_note 10, 1
	drum_note 3, 1
	drum_note 3, 1
	drum_note 3, 2
	drum_note 11, 2
	drum_note 11, 1
	drum_note 3, 2
	drum_note 10, 1
	drum_note 12, 1
	drum_note 10, 1
	drum_note 12, 1
	drum_note 12, 1
	drum_note 11, 1
	drum_note 3, 2
	drum_note 12, 2
	drum_note 12, 2
	drum_note 10, 2
	drum_note 3, 2
	drum_note 10, 1
	drum_note 12, 1
	drum_note 10, 1
	drum_note 12, 2
	drum_note 11, 1
	drum_note 3, 2
	drum_note 12, 2
	drum_note 12, 2
	drum_note 10, 2
	drum_note 3, 1
	drum_note 3, 1
	drum_note 10, 1
	drum_note 12, 1
	drum_note 10, 1
	drum_note 12, 1
	drum_note 12, 2
	drum_note 3, 2
	drum_note 12, 3
	drum_note 12, 1
	drum_note 10, 1
	drum_note 12, 1
	drum_note 3, 1
	drum_note 12, 1
	drum_note 10, 1
	drum_note 12, 2
	drum_note 12, 1
	drum_note 10, 2
	drum_note 12, 1
	drum_note 3, 1
	drum_note 3, 1
	drum_note 3, 1
	drum_note 12, 2
	drum_note 10, 2
	drum_note 12, 2
	drum_note 10, 3
	drum_note 12, 1
	drum_note 12, 1
	drum_note 12, 1
	drum_note 3, 1
	drum_note 3, 1
	drum_note 3, 1
	drum_note 3, 1
	sound_jump Music_TDBL_BurningPoint_Ch4_loop
