Music_TDBL_ThunderBlade:
	channel_count 4
	channel 1, Music_TDBL_ThunderBlade_Ch1
	channel 2, Music_TDBL_ThunderBlade_Ch2
	channel 3, Music_TDBL_ThunderBlade_Ch3
	channel 4, Music_TDBL_ThunderBlade_Ch4

Music_TDBL_ThunderBlade_Ch1:
	volume 7, 7
	duty_cycle 1
	note_type 12, 10, 7
	tempo 146
	stereo_panning TRUE, TRUE
	rest 8
Music_TDBL_ThunderBlade_Ch1_loop:
	octave 4
	volume_envelope 10, 7
	note D#, 16
	note D_, 12
	note F#, 16
	note E_, 12
	note C_, 16
	note D_, 12
	note C#, 16
	note C#, 12
	octave 1
	note A_, 3
	octave 2
	note E_, 1
	rest 1
	note E_, 1
	rest 1
	note E_, 1
	note A_, 6
	note A_, 1
	note A_, 1
	octave 1
	note A_, 3
	octave 2
	note E_, 1
	rest 1
	note E_, 1
	rest 1
	note E_, 1
	note A_, 4
	octave 1
	note A_, 3
	octave 2
	note E_, 1
	rest 1
	note E_, 1
	rest 1
	note E_, 1
	note A_, 6
	note A_, 1
	note A_, 1
	octave 1
	note A_, 3
	octave 2
	note E_, 1
	rest 1
	note E_, 1
	rest 1
	note E_, 1
	note A_, 4
	octave 1
	note A_, 3
	octave 2
	note E_, 1
	rest 1
	note E_, 1
	rest 1
	note E_, 1
	note A_, 6
	note A_, 1
	note A_, 1
	octave 1
	note A_, 3
	octave 2
	note E_, 1
	rest 1
	note E_, 1
	rest 1
	note E_, 1
	note A_, 4
	octave 1
	note A_, 3
	octave 2
	note E_, 1
	rest 1
	note E_, 1
	rest 1
	note E_, 1
	note A_, 6
	note A_, 1
	note A_, 1
	octave 1
	note A_, 3
	octave 2
	note E_, 1
	rest 1
	note E_, 1
	rest 1
	note E_, 1
	note A_, 4
	rest 16
	rest 16
	rest 16
	rest 16
	note A_, 1
	note G_, 1
	rest 1
	note G_, 1
	note A_, 1
	rest 1
	octave 3
	note C_, 1
	octave 2
	note A_, 1
	rest 3
	note G_, 1
	octave 3
	note D_, 1
	note C_, 1
	octave 2
	note B_, 1
	note G_, 1
	note A_, 1
	note G_, 1
	rest 1
	note G_, 1
	note A_, 1
	rest 1
	octave 3
	note C_, 1
	octave 2
	note A_, 1
	rest 4
	note A_, 1
	note G_, 1
	rest 1
	note G_, 1
	note A_, 1
	rest 1
	octave 3
	note C_, 1
	octave 2
	note A_, 1
	rest 3
	note G_, 1
	octave 3
	note D_, 1
	note C_, 1
	octave 2
	note B_, 1
	note G_, 1
	note A_, 1
	note G_, 1
	rest 1
	note G_, 1
	note A_, 1
	rest 1
	octave 3
	note C_, 1
	octave 2
	note A_, 1
	rest 4
	note A_, 1
	note G_, 1
	rest 1
	note G_, 1
	note A_, 1
	rest 1
	octave 3
	note C_, 1
	octave 2
	note A_, 1
	rest 3
	note G_, 1
	octave 3
	note D_, 1
	note C_, 1
	octave 2
	note B_, 1
	note G_, 1
	note A_, 1
	note G_, 1
	rest 1
	note G_, 1
	note A_, 1
	rest 1
	octave 3
	note C_, 1
	octave 2
	note A_, 1
	rest 4
	note A_, 1
	note G_, 1
	rest 1
	note G_, 1
	note A_, 1
	rest 1
	octave 3
	note C_, 1
	octave 2
	note A_, 1
	rest 3
	note G_, 1
	octave 3
	note D_, 1
	note C_, 1
	octave 2
	note B_, 1
	note G_, 1
	note A_, 1
	note G_, 1
	rest 1
	note G_, 1
	note A_, 1
	rest 1
	octave 3
	note C_, 1
	octave 2
	note A_, 1
	rest 4
	note A_, 1
	note G_, 1
	rest 1
	note G_, 1
	note A_, 1
	rest 1
	octave 3
	note C_, 1
	octave 2
	note A_, 1
	rest 3
	note G_, 1
	octave 3
	note D_, 1
	note C_, 1
	octave 2
	note B_, 1
	note G_, 1
	note A_, 1
	note G_, 1
	rest 1
	note G_, 1
	note A_, 1
	rest 1
	octave 3
	note C_, 1
	octave 2
	note A_, 1
	rest 4
	note A_, 1
	note G_, 1
	rest 1
	note G_, 1
	note A_, 1
	rest 1
	octave 3
	note C_, 1
	octave 2
	note A_, 1
	rest 3
	note G_, 1
	octave 3
	note D_, 1
	note C_, 1
	octave 2
	note B_, 1
	note G_, 1
	note A_, 1
	note G_, 1
	rest 1
	note G_, 1
	note A_, 1
	rest 1
	octave 3
	note C_, 1
	octave 2
	note A_, 1
	rest 4
	note A_, 1
	note G_, 1
	rest 1
	note G_, 1
	note A_, 1
	rest 1
	octave 3
	note C_, 1
	octave 2
	note A_, 1
	rest 3
	note G_, 1
	octave 3
	note D_, 1
	note C_, 1
	octave 2
	note B_, 1
	note G_, 1
	note A_, 1
	note G_, 1
	rest 1
	note G_, 1
	note A_, 1
	rest 1
	octave 3
	note C_, 1
	octave 2
	note A_, 1
	rest 4
	note A_, 1
	note G_, 1
	rest 1
	note G_, 1
	note A_, 1
	rest 1
	octave 3
	note C_, 1
	octave 2
	note A_, 1
	rest 3
	note G_, 1
	octave 3
	note D_, 1
	note C_, 1
	octave 2
	note B_, 1
	note G_, 1
	note A_, 1
	note G_, 1
	rest 1
	note G_, 1
	note A_, 1
	rest 1
	octave 3
	note C_, 1
	octave 2
	note A_, 1
	rest 4
	octave 1
	note A_, 3
	octave 2
	note E_, 1
	note E_, 2
	note A_, 1
	note E_, 1
	octave 1
	note A_, 3
	octave 2
	note E_, 1
	note E_, 2
	octave 1
	note A_, 2
	note B_, 3
	octave 2
	note F#, 1
	note F#, 2
	note B_, 1
	note F#, 1
	octave 1
	note B_, 3
	octave 2
	note F#, 1
	note F#, 2
	octave 1
	note B_, 2
	octave 2
	note C_, 3
	note G_, 1
	note G_, 2
	note C_, 2
	note C_, 3
	note G_, 1
	note G_, 2
	note C_, 2
	note C_, 3
	note G_, 1
	note G_, 2
	note C_, 2
	note C_, 3
	note G_, 1
	note G_, 2
	note C_, 2
	octave 1
	note A_, 3
	octave 2
	note E_, 1
	note E_, 2
	note A_, 1
	note E_, 1
	octave 1
	note A_, 3
	octave 2
	note E_, 1
	note E_, 2
	octave 1
	note A_, 2
	note B_, 3
	octave 2
	note F#, 1
	note F#, 2
	note B_, 1
	note F#, 1
	octave 1
	note B_, 3
	octave 2
	note F#, 1
	note F#, 2
	octave 1
	note B_, 2
	octave 2
	note C_, 3
	note G_, 1
	note G_, 2
	note C_, 2
	note C_, 3
	note G_, 1
	note G_, 2
	note C_, 2
	note C_, 3
	note G_, 1
	note G_, 2
	note C_, 2
	note C_, 3
	note G_, 1
	note G_, 2
	note C_, 2
	octave 1
	note A_, 3
	octave 2
	note E_, 1
	note E_, 2
	note A_, 1
	note E_, 1
	octave 1
	note A_, 3
	octave 2
	note E_, 1
	note E_, 2
	octave 1
	note A_, 2
	note B_, 3
	octave 2
	note F#, 1
	note F#, 2
	note B_, 1
	note F#, 1
	octave 1
	note B_, 3
	octave 2
	note F#, 1
	note F#, 2
	octave 1
	note B_, 2
	octave 2
	note C_, 3
	note G_, 1
	note G_, 2
	note C_, 2
	note C_, 3
	note G_, 1
	note G_, 2
	note C_, 2
	note C_, 3
	note G_, 1
	note G_, 2
	note C_, 2
	note C_, 3
	note G_, 1
	note G_, 2
	note C_, 2
	octave 1
	note A_, 3
	octave 2
	note E_, 1
	note E_, 2
	note A_, 1
	note E_, 1
	octave 1
	note A_, 3
	octave 2
	note E_, 1
	note E_, 2
	octave 1
	note A_, 2
	note B_, 3
	octave 2
	note F#, 1
	note F#, 2
	note B_, 1
	note F#, 1
	octave 1
	note B_, 3
	octave 2
	note F#, 1
	note F#, 2
	octave 1
	note B_, 2
	octave 2
	note C_, 3
	note G_, 1
	note G_, 2
	note C_, 2
	note C_, 3
	note G_, 1
	note G_, 2
	note C_, 2
	note C_, 3
	note G_, 1
	note G_, 2
	note C_, 2
	note C_, 3
	note G_, 1
	note G_, 2
	note C_, 2
	sound_jump Music_TDBL_ThunderBlade_Ch1_loop

Music_TDBL_ThunderBlade_Ch2:
	duty_cycle 2
	note_type 12, 10, 7
	stereo_panning TRUE, TRUE
	rest 8
Music_TDBL_ThunderBlade_Ch2_loop:
	octave 4
	volume_envelope 12, 7
	note B_, 16
	note A_, 12
	note G#, 16
	note F#, 12
	note F_, 16
	note E_, 12
	note D#, 16
	note D#, 12
	note B_, 16
	note A_, 12
	note G#, 16
	note F#, 12
	note F_, 16
	note E_, 12
	note D#, 16
	note D#, 12
	rest 16
	rest 16
	rest 16
	rest 16
	octave 3
	note A_, 16
	rest 12
	note B_, 16
	rest 12
	octave 4
	note C_, 16
	rest 12
	octave 3
	note B_, 16
	rest 12
	note A_, 16
	rest 12
	note B_, 16
	rest 12
	octave 4
	note C_, 16
	rest 12
	octave 3
	note B_, 16
	rest 12
	octave 4
	note C_, 16
	note D_, 16
	octave 3
	note B_, 16
	note B_, 16
	octave 4
	note C_, 16
	note D_, 16
	octave 3
	note B_, 16
	note B_, 16
	octave 4
	note C_, 16
	note D_, 16
	octave 3
	note B_, 16
	note B_, 16
	octave 4
	note C_, 16
	note D_, 16
	octave 3
	note B_, 16
	note B_, 16
	sound_jump Music_TDBL_ThunderBlade_Ch2_loop

Music_TDBL_ThunderBlade_Ch3:
	note_type 12, 2, 0
	rest 8
Music_TDBL_ThunderBlade_Ch3_loop:
	octave 5
	volume_envelope 2, 3
	note G#, 1
	note A_, 1
	octave 6
	note C#, 1
	note D#, 1
	note B_, 1
	octave 5
	note G#, 1
	note A_, 1
	octave 6
	note C#, 1
	note D#, 1
	note B_, 1
	octave 5
	note A_, 1
	octave 6
	note B_, 1
	note C#, 1
	note D#, 1
	octave 5
	note G#, 1
	octave 6
	note D#, 1
	octave 5
	note A_, 1
	note G_, 1
	octave 6
	note C_, 1
	note D_, 1
	note A_, 1
	octave 5
	note A_, 1
	note G_, 1
	octave 6
	note C_, 1
	note D_, 1
	note A_, 1
	octave 5
	note G_, 1
	octave 6
	note C_, 1
	octave 5
	note A_, 1
	note G#, 1
	octave 6
	note C#, 1
	note F#, 1
	note G#, 1
	octave 5
	note A_, 1
	note G#, 1
	octave 6
	note C#, 1
	note F#, 1
	note G#, 1
	octave 5
	note A_, 1
	octave 6
	note G#, 1
	octave 5
	note G#, 1
	octave 6
	note C#, 1
	note F#, 1
	note C#, 1
	octave 5
	note G#, 1
	note F#, 1
	note B_, 1
	octave 6
	note E_, 1
	note F#, 1
	octave 5
	note G#, 1
	note F#, 1
	note B_, 1
	octave 6
	note E_, 1
	note F#, 1
	octave 5
	note F#, 1
	note B_, 1
	note A_, 1
	note G_, 1
	octave 6
	note C_, 1
	note F_, 1
	octave 5
	note A_, 1
	note G_, 1
	octave 6
	note C_, 1
	note F_, 1
	octave 5
	note A_, 1
	octave 6
	note F_, 1
	octave 5
	note G_, 1
	octave 6
	note C_, 1
	octave 5
	note A_, 1
	note G_, 1
	octave 6
	note C_, 1
	note F_, 1
	octave 5
	note A_, 1
	note F_, 1
	note A#, 1
	octave 6
	note D_, 1
	note E_, 1
	note A_, 1
	note E_, 1
	octave 5
	note A#, 1
	octave 6
	note D_, 1
	note E_, 1
	octave 5
	note F_, 1
	note A#, 1
	note A_, 1
	note G#, 1
	octave 6
	note C#, 1
	note D#, 1
	octave 5
	note A_, 1
	note G#, 1
	octave 6
	note C#, 1
	note D#, 1
	octave 5
	note A_, 1
	octave 6
	note D#, 1
	octave 5
	note G#, 1
	octave 6
	note C#, 1
	octave 5
	note A_, 1
	note G#, 1
	octave 6
	note C#, 1
	note D#, 1
	octave 5
	note G#, 1
	note F#, 1
	note B_, 1
	octave 6
	note C#, 1
	note D#, 1
	octave 5
	note G#, 1
	note F#, 1
	note B_, 1
	note D#, 1
	octave 6
	note D#, 1
	octave 5
	note F#, 1
	note B_, 1
	note G#, 1
	note A_, 1
	octave 6
	note C#, 1
	note D#, 1
	note B_, 1
	octave 5
	note G#, 1
	note A_, 1
	octave 6
	note C#, 1
	note D#, 1
	note B_, 1
	octave 5
	note A_, 1
	octave 6
	note B_, 1
	note C#, 1
	note D#, 1
	octave 5
	note G#, 1
	octave 6
	note D#, 1
	octave 5
	note A_, 1
	note G_, 1
	octave 6
	note C_, 1
	note D_, 1
	note A_, 1
	octave 5
	note A_, 1
	note G_, 1
	octave 6
	note C_, 1
	note D_, 1
	note A_, 1
	octave 5
	note G_, 1
	octave 6
	note C_, 1
	octave 5
	note A_, 1
	note G#, 1
	octave 6
	note C#, 1
	note F#, 1
	note G#, 1
	octave 5
	note A_, 1
	note G#, 1
	octave 6
	note C#, 1
	note F#, 1
	note G#, 1
	octave 5
	note A_, 1
	octave 6
	note G#, 1
	octave 5
	note G#, 1
	octave 6
	note C#, 1
	note F#, 1
	note C#, 1
	octave 5
	note G#, 1
	note F#, 1
	note B_, 1
	octave 6
	note E_, 1
	note F#, 1
	octave 5
	note G#, 1
	note F#, 1
	note B_, 1
	octave 6
	note E_, 1
	note F#, 1
	octave 5
	note F#, 1
	note B_, 1
	note A_, 1
	note G_, 1
	octave 6
	note C_, 1
	note F_, 1
	octave 5
	note A_, 1
	note G_, 1
	octave 6
	note C_, 1
	note F_, 1
	octave 5
	note A_, 1
	octave 6
	note F_, 1
	octave 5
	note G_, 1
	octave 6
	note C_, 1
	octave 5
	note A_, 1
	note G_, 1
	octave 6
	note C_, 1
	note F_, 1
	octave 5
	note A_, 1
	note F_, 1
	note A#, 1
	octave 6
	note D_, 1
	note E_, 1
	note A_, 1
	note E_, 1
	octave 5
	note A#, 1
	octave 6
	note D_, 1
	note E_, 1
	octave 5
	note F_, 1
	note A#, 1
	note A_, 1
	note G#, 1
	octave 6
	note C#, 1
	note D#, 1
	octave 5
	note A_, 1
	note G#, 1
	octave 6
	note C#, 1
	note D#, 1
	octave 5
	note A_, 1
	octave 6
	note D#, 1
	octave 5
	note G#, 1
	octave 6
	note C#, 1
	octave 5
	note A_, 1
	note G#, 1
	octave 6
	note C#, 1
	note D#, 1
	octave 5
	note G#, 1
	note F#, 1
	note B_, 1
	octave 6
	note C#, 1
	note D#, 1
	octave 5
	note G#, 1
	note F#, 1
	note B_, 1
	note D#, 1
	octave 6
	note D#, 1
	octave 5
	note F#, 1
	note B_, 1
	rest 16
	rest 16
	rest 16
	rest 16
	octave 4
	note E_, 16
	rest 12
	note G_, 16
	rest 12
	note A_, 16
	rest 12
	note G_, 16
	rest 12
	note E_, 16
	rest 12
	note G_, 16
	rest 12
	note A_, 16
	rest 12
	note G_, 16
	rest 12
	note A_, 16
	note B_, 16
	note G_, 16
	note G_, 16
	note A_, 16
	note B_, 16
	note G_, 16
	note G_, 16
	note A_, 16
	note B_, 16
	note G_, 16
	note G_, 16
	note A_, 16
	note B_, 16
	note G_, 16
	note G_, 16
	sound_jump Music_TDBL_ThunderBlade_Ch3_loop

Music_TDBL_ThunderBlade_Ch4:
	toggle_noise 1
	drum_speed 8
	rest 2
	drum_note 10, 1
	drum_note 10, 1
	drum_note 10, 1
	drum_note 10, 1
	drum_speed 12
	drum_note 3, 1
	drum_note 3, 2
	drum_note 3, 1
Music_TDBL_ThunderBlade_Ch4_loop:
	drum_note 12, 2
	drum_note 10, 1
	drum_note 12, 1
	drum_note 3, 2
	drum_note 10, 1
	drum_note 11, 3
	drum_note 10, 1
	drum_note 12, 1
	drum_note 12, 2
	drum_note 10, 1
	drum_note 12, 3
	drum_note 10, 2
	drum_note 12, 2
	drum_note 10, 1
	drum_note 12, 1
	drum_note 3, 1
	drum_note 12, 2
	drum_note 10, 1
	drum_note 12, 2
	drum_note 10, 1
	drum_note 12, 1
	drum_note 3, 2
	drum_note 10, 1
	drum_note 11, 3
	drum_note 10, 1
	drum_note 12, 1
	drum_note 12, 2
	drum_note 10, 1
	drum_note 12, 3
	drum_note 10, 2
	drum_note 12, 2
	drum_note 10, 1
	drum_note 12, 1
	drum_note 3, 1
	drum_note 12, 2
	drum_note 10, 1
	drum_note 12, 2
	drum_note 10, 1
	drum_note 12, 1
	drum_note 3, 2
	drum_note 10, 1
	drum_note 11, 3
	drum_note 10, 1
	drum_note 12, 1
	drum_note 12, 2
	drum_note 10, 1
	drum_note 12, 3
	drum_note 10, 2
	drum_note 12, 2
	drum_note 10, 1
	drum_note 12, 1
	drum_note 3, 1
	drum_note 12, 2
	drum_note 10, 1
	drum_note 12, 2
	drum_note 10, 1
	drum_note 12, 1
	drum_note 3, 2
	drum_note 10, 1
	drum_note 11, 3
	drum_note 10, 1
	drum_note 12, 1
	drum_note 12, 2
	drum_note 10, 1
	drum_note 12, 3
	drum_note 10, 2
	drum_note 12, 2
	drum_note 10, 1
	drum_note 12, 1
	drum_note 3, 1
	drum_note 3, 1
	drum_note 3, 1
	drum_note 3, 1
	drum_note 12, 1
	drum_note 10, 1
	drum_note 10, 1
	drum_note 12, 1
	drum_note 3, 1
	drum_note 10, 1
	drum_note 10, 1
	drum_note 3, 1
	drum_note 12, 1
	drum_note 3, 1
	drum_note 10, 1
	drum_note 12, 1
	drum_note 3, 1
	drum_note 10, 1
	drum_note 10, 1
	drum_note 12, 2
	drum_note 10, 1
	drum_note 10, 1
	drum_note 3, 1
	drum_note 12, 1
	drum_note 3, 1
	drum_note 10, 1
	drum_note 12, 2
	drum_note 12, 1
	drum_note 10, 1
	drum_note 3, 1
	drum_note 12, 1
	drum_note 10, 1
	drum_note 10, 1
	drum_note 12, 1
	drum_note 3, 1
	drum_note 10, 1
	drum_note 10, 1
	drum_note 3, 1
	drum_note 12, 1
	drum_note 3, 1
	drum_note 10, 1
	drum_note 12, 1
	drum_note 3, 1
	drum_note 10, 1
	drum_note 10, 1
	drum_note 12, 2
	drum_note 10, 1
	drum_note 10, 1
	drum_note 3, 1
	drum_note 12, 1
	drum_note 3, 1
	drum_note 10, 1
	drum_note 12, 2
	drum_note 12, 1
	drum_note 10, 1
	drum_note 3, 1
	drum_note 12, 1
	drum_note 10, 1
	drum_note 10, 1
	drum_note 12, 1
	drum_note 3, 1
	drum_note 10, 1
	drum_note 10, 1
	drum_note 3, 1
	drum_note 12, 1
	drum_note 3, 1
	drum_note 10, 1
	drum_note 12, 1
	drum_note 3, 1
	drum_note 10, 1
	drum_note 10, 1
	drum_note 12, 2
	drum_note 10, 1
	drum_note 10, 1
	drum_note 3, 1
	drum_note 12, 1
	drum_note 3, 1
	drum_note 10, 1
	drum_note 12, 2
	drum_note 12, 1
	drum_note 10, 1
	drum_note 3, 1
	drum_note 12, 1
	drum_note 10, 1
	drum_note 10, 1
	drum_note 12, 1
	drum_note 3, 1
	drum_note 10, 1
	drum_note 10, 1
	drum_note 3, 1
	drum_note 12, 1
	drum_note 3, 1
	drum_note 10, 1
	drum_note 12, 1
	drum_note 3, 1
	drum_note 10, 1
	drum_note 10, 1
	drum_note 12, 2
	drum_note 10, 1
	drum_note 10, 1
	drum_note 3, 1
	drum_note 12, 1
	drum_note 3, 1
	drum_note 10, 1
	drum_note 12, 5
	drum_note 12, 1
	drum_note 12, 1
	drum_note 10, 1
	drum_note 10, 1
	drum_note 3, 1
	drum_note 12, 1
	drum_note 10, 1
	drum_note 12, 1
	drum_note 10, 1
	drum_note 3, 1
	drum_note 3, 1
	drum_note 12, 1
	drum_note 12, 1
	drum_note 10, 1
	drum_note 10, 1
	drum_note 3, 1
	drum_note 12, 1
	drum_note 12, 1
	drum_note 10, 1
	drum_note 12, 1
	drum_note 10, 1
	drum_note 12, 1
	drum_note 3, 1
	drum_note 3, 1
	drum_note 10, 1
	drum_note 10, 1
	drum_note 12, 1
	drum_note 10, 1
	drum_note 12, 1
	drum_note 12, 1
	drum_note 10, 1
	drum_note 12, 1
	drum_note 12, 1
	drum_note 3, 1
	drum_note 10, 1
	drum_note 10, 1
	drum_note 10, 1
	drum_note 3, 1
	drum_note 3, 1
	drum_note 10, 1
	drum_note 10, 1
	drum_note 11, 1
	drum_note 12, 1
	drum_note 10, 1
	drum_note 10, 1
	drum_note 12, 1
	drum_note 10, 1
	drum_note 10, 1
	drum_note 12, 1
	drum_note 12, 1
	drum_note 3, 1
	drum_note 12, 1
	drum_note 12, 1
	drum_note 12, 1
	drum_note 3, 1
	drum_note 12, 1
	drum_note 10, 1
	drum_note 3, 1
	drum_note 3, 1
	drum_note 3, 1
	drum_note 3, 1
	drum_note 3, 1
	drum_note 3, 1
	drum_note 3, 1
	drum_note 12, 2
	drum_note 10, 1
	drum_note 12, 1
	drum_note 3, 1
	drum_note 12, 1
	drum_note 10, 1
	drum_note 12, 1
	drum_note 12, 1
	drum_note 3, 1
	drum_note 3, 1
	drum_note 3, 1
	drum_note 12, 1
	drum_note 10, 1
	drum_note 12, 1
	drum_note 12, 1
	drum_note 10, 1
	drum_note 12, 1
	drum_note 3, 1
	drum_note 12, 2
	drum_note 12, 1
	drum_note 3, 1
	drum_note 12, 2
	drum_note 3, 1
	drum_note 12, 1
	drum_note 12, 1
	drum_note 12, 2
	drum_note 10, 1
	drum_note 12, 1
	drum_note 3, 1
	drum_note 12, 1
	drum_note 10, 1
	drum_note 12, 1
	drum_note 12, 1
	drum_note 3, 1
	drum_note 3, 1
	drum_note 3, 1
	drum_note 12, 1
	drum_note 10, 1
	drum_note 12, 1
	drum_note 12, 1
	drum_note 10, 1
	drum_note 12, 1
	drum_note 3, 1
	drum_note 12, 2
	drum_note 12, 1
	drum_note 3, 1
	drum_note 12, 2
	drum_note 3, 1
	drum_note 12, 1
	drum_note 12, 1
	drum_note 12, 2
	drum_note 10, 1
	drum_note 12, 1
	drum_note 3, 1
	drum_note 12, 1
	drum_note 10, 1
	drum_note 12, 1
	drum_note 12, 1
	drum_note 3, 1
	drum_note 3, 1
	drum_note 3, 1
	drum_note 12, 1
	drum_note 10, 1
	drum_note 12, 1
	drum_note 12, 1
	drum_note 10, 1
	drum_note 12, 1
	drum_note 3, 1
	drum_note 12, 2
	drum_note 12, 1
	drum_note 3, 1
	drum_note 12, 2
	drum_note 3, 1
	drum_note 12, 1
	drum_note 12, 1
	drum_note 12, 2
	drum_note 10, 1
	drum_note 12, 1
	drum_note 3, 1
	drum_note 12, 1
	drum_note 10, 1
	drum_note 12, 1
	drum_note 12, 1
	drum_note 3, 1
	drum_note 3, 1
	drum_note 3, 1
	drum_note 12, 1
	drum_note 10, 1
	drum_note 12, 1
	drum_note 12, 1
	drum_note 10, 1
	drum_note 12, 1
	drum_note 3, 1
	drum_note 12, 2
	drum_note 12, 1
	drum_note 3, 1
	drum_note 12, 1
	drum_note 3, 1
	drum_note 3, 1
	drum_note 3, 1
	drum_note 3, 1
	drum_note 12, 2
	drum_note 10, 1
	drum_note 12, 1
	drum_note 3, 1
	drum_note 12, 1
	drum_note 10, 1
	drum_note 12, 1
	drum_note 12, 1
	drum_note 3, 1
	drum_note 3, 1
	drum_note 3, 1
	drum_note 12, 1
	drum_note 10, 1
	drum_note 12, 1
	drum_note 12, 1
	drum_note 10, 1
	drum_note 12, 1
	drum_note 3, 1
	drum_note 12, 2
	drum_note 12, 1
	drum_note 3, 1
	drum_note 12, 2
	drum_note 3, 1
	drum_note 12, 1
	drum_note 12, 1
	drum_note 12, 2
	drum_note 10, 1
	drum_note 12, 1
	drum_note 3, 1
	drum_note 12, 1
	drum_note 10, 1
	drum_note 12, 1
	drum_note 12, 1
	drum_note 3, 1
	drum_note 3, 1
	drum_note 3, 1
	drum_note 12, 1
	drum_note 10, 1
	drum_note 12, 1
	drum_note 12, 1
	drum_note 10, 1
	drum_note 12, 1
	drum_note 3, 1
	drum_note 12, 2
	drum_note 12, 1
	drum_note 3, 1
	drum_note 12, 2
	drum_note 3, 1
	drum_note 12, 1
	drum_note 12, 1
	drum_note 12, 2
	drum_note 10, 1
	drum_note 12, 1
	drum_note 3, 1
	drum_note 12, 1
	drum_note 10, 1
	drum_note 12, 1
	drum_note 12, 1
	drum_note 3, 1
	drum_note 3, 1
	drum_note 3, 1
	drum_note 12, 1
	drum_note 10, 1
	drum_note 12, 1
	drum_note 12, 1
	drum_note 10, 1
	drum_note 12, 1
	drum_note 3, 1
	drum_note 12, 2
	drum_note 12, 1
	drum_note 3, 1
	drum_note 12, 2
	drum_note 3, 1
	drum_note 12, 1
	drum_note 12, 1
	drum_note 12, 2
	drum_note 10, 1
	drum_note 12, 1
	drum_note 3, 1
	drum_note 12, 1
	drum_note 10, 1
	drum_note 12, 1
	drum_note 12, 1
	drum_note 3, 1
	drum_note 3, 1
	drum_note 3, 1
	drum_note 12, 1
	drum_note 10, 1
	drum_note 12, 1
	drum_note 12, 1
	drum_note 10, 1
	drum_note 12, 1
	drum_note 3, 1
	drum_note 12, 2
	drum_note 12, 1
	drum_note 3, 1
	drum_note 12, 1
	drum_note 3, 1
	drum_note 3, 1
	drum_note 3, 1
	drum_note 3, 1
	drum_note 12, 2
	drum_note 10, 1
	drum_note 12, 1
	drum_note 3, 2
	drum_note 10, 1
	drum_note 12, 1
	drum_note 12, 1
	drum_note 11, 2
	drum_note 12, 1
	drum_note 3, 2
	drum_note 10, 1
	drum_note 12, 1
	drum_note 12, 2
	drum_note 10, 1
	drum_note 12, 1
	drum_note 3, 2
	drum_note 10, 1
	drum_note 12, 1
	drum_note 12, 1
	drum_note 11, 2
	drum_note 12, 1
	drum_note 3, 2
	drum_note 10, 1
	drum_note 12, 1
	drum_note 12, 2
	drum_note 10, 1
	drum_note 12, 1
	drum_note 3, 2
	drum_note 10, 1
	drum_note 12, 1
	drum_note 12, 1
	drum_note 11, 2
	drum_note 12, 1
	drum_note 3, 2
	drum_note 10, 1
	drum_note 12, 1
	drum_note 12, 2
	drum_note 10, 1
	drum_note 12, 1
	drum_note 3, 2
	drum_note 10, 1
	drum_note 12, 1
	drum_note 12, 1
	drum_note 11, 2
	drum_note 12, 1
	drum_note 3, 1
	drum_note 3, 1
	drum_note 3, 1
	drum_note 3, 1
	drum_note 12, 2
	drum_note 10, 1
	drum_note 12, 1
	drum_note 3, 2
	drum_note 10, 1
	drum_note 12, 1
	drum_note 12, 1
	drum_note 11, 2
	drum_note 12, 1
	drum_note 3, 2
	drum_note 10, 1
	drum_note 12, 1
	drum_note 12, 2
	drum_note 10, 1
	drum_note 12, 1
	drum_note 3, 2
	drum_note 10, 1
	drum_note 12, 1
	drum_note 12, 1
	drum_note 11, 2
	drum_note 12, 1
	drum_note 3, 2
	drum_note 10, 1
	drum_note 12, 1
	drum_note 12, 2
	drum_note 10, 1
	drum_note 12, 1
	drum_note 3, 2
	drum_note 10, 1
	drum_note 12, 1
	drum_note 12, 1
	drum_note 11, 2
	drum_note 12, 1
	drum_note 3, 2
	drum_note 10, 1
	drum_note 12, 1
	drum_note 12, 2
	drum_note 10, 1
	drum_note 12, 1
	drum_note 3, 2
	drum_note 10, 1
	drum_note 12, 1
	drum_note 12, 1
	drum_note 11, 2
	drum_note 12, 1
	drum_note 3, 1
	drum_note 3, 1
	drum_note 3, 1
	drum_note 3, 1
	drum_note 12, 2
	drum_note 10, 1
	drum_note 12, 1
	drum_note 3, 2
	drum_note 10, 1
	drum_note 12, 1
	drum_note 12, 1
	drum_note 11, 2
	drum_note 12, 1
	drum_note 3, 2
	drum_note 10, 1
	drum_note 12, 1
	drum_note 12, 2
	drum_note 10, 1
	drum_note 12, 1
	drum_note 3, 2
	drum_note 10, 1
	drum_note 12, 1
	drum_note 12, 1
	drum_note 11, 2
	drum_note 12, 1
	drum_note 3, 2
	drum_note 10, 1
	drum_note 12, 1
	drum_note 12, 2
	drum_note 10, 1
	drum_note 12, 1
	drum_note 3, 2
	drum_note 10, 1
	drum_note 12, 1
	drum_note 12, 1
	drum_note 11, 2
	drum_note 12, 1
	drum_note 3, 2
	drum_note 10, 1
	drum_note 12, 1
	drum_note 12, 2
	drum_note 10, 1
	drum_note 12, 1
	drum_note 3, 2
	drum_note 10, 1
	drum_note 12, 1
	drum_note 12, 1
	drum_note 11, 2
	drum_note 12, 1
	drum_note 3, 1
	drum_note 3, 1
	drum_note 3, 1
	drum_note 3, 1
	drum_note 12, 2
	drum_note 10, 1
	drum_note 12, 1
	drum_note 3, 2
	drum_note 10, 1
	drum_note 12, 1
	drum_note 12, 1
	drum_note 11, 2
	drum_note 12, 1
	drum_note 3, 2
	drum_note 10, 1
	drum_note 12, 1
	drum_note 12, 2
	drum_note 10, 1
	drum_note 12, 1
	drum_note 3, 2
	drum_note 10, 1
	drum_note 12, 1
	drum_note 12, 1
	drum_note 11, 2
	drum_note 12, 1
	drum_note 3, 2
	drum_note 10, 1
	drum_note 12, 1
	drum_note 12, 2
	drum_note 10, 1
	drum_note 12, 1
	drum_note 3, 2
	drum_note 10, 1
	drum_note 12, 1
	drum_note 12, 1
	drum_note 11, 2
	drum_note 12, 1
	drum_note 3, 2
	drum_note 10, 1
	drum_note 12, 1
	drum_note 12, 2
	drum_note 10, 1
	drum_note 12, 1
	drum_note 3, 2
	drum_note 10, 1
	drum_note 12, 1
	drum_note 12, 1
	drum_note 11, 2
	drum_note 12, 1
	drum_note 3, 1
	drum_note 3, 1
	drum_note 3, 1
	drum_note 3, 1
	sound_jump Music_TDBL_ThunderBlade_Ch4_loop
