Music_Quartet_Round3:
	channel_count 4
	channel 1, Music_Quartet_Round3_Ch1
	channel 2, Music_Quartet_Round3_Ch2
	channel 3, Music_Quartet_Round3_Ch3
	channel 4, Music_Quartet_Round3_Ch4

Music_Quartet_Round3_Ch1:
	volume 7, 7
	duty_cycle 1
	note_type 12, 10, 7
	tempo 129
	stereo_panning TRUE, TRUE
	octave 4
	rest 1
	volume_envelope 12, 7
	note F#, 1
	note F#, 1
	rest 1
	note F#, 2
	volume_envelope 7, 7
	note F#, 3
	volume_envelope 3, 7
	note F#, 3
	rest 16
	rest 5
	volume_envelope 12, 7
	note E_, 1
	note E_, 1
	rest 1
	note E_, 2
	volume_envelope 7, 7
	note E_, 3
	volume_envelope 3, 7
	note E_, 3
	rest 16
	rest 5
	volume_envelope 12, 7
	note D#, 1
	note D#, 1
	rest 1
	note D#, 2
	volume_envelope 7, 7
	note D#, 3
	volume_envelope 3, 7
	note D#, 3
	rest 16
	rest 5
	volume_envelope 12, 7
	note D_, 1
	note D_, 1
	rest 1
	note D_, 2
	volume_envelope 7, 7
	note D_, 3
	volume_envelope 3, 7
	note D_, 3
	rest 13
	volume_envelope 12, 7
	note D_, 1
	note D_, 1
	note D_, 1
	note D_, 1
	note D_, 1
	note E_, 2
	volume_envelope 7, 7
	note E_, 1
Music_Quartet_Round3_Ch1_loop:
	octave 2
	volume_envelope 10, 7
	note F#, 1
	octave 3
	note F#, 1
	octave 2
	note D#, 1
	octave 3
	note D#, 1
	octave 2
	note E_, 1
	octave 3
	note E_, 1
	octave 2
	note E_, 1
	octave 3
	note E_, 1
	note E_, 1
	note D#, 1
	rest 1
	note E_, 1
	rest 1
	octave 2
	note D#, 1
	note E_, 1
	note F#, 1
	octave 3
	note E_, 1
	note D#, 1
	rest 1
	note E_, 1
	rest 1
	octave 2
	note D#, 1
	note E_, 1
	note F#, 1
	octave 3
	note E_, 1
	note D#, 1
	rest 1
	note E_, 1
	rest 1
	octave 2
	note G#, 1
	note A#, 1
	note B_, 1
	octave 1
	note A#, 1
	octave 2
	note A#, 1
	note F#, 1
	rest 1
	note F#, 1
	rest 1
	note D#, 1
	rest 1
	note F#, 1
	note G#, 1
	rest 1
	note F#, 1
	rest 1
	note C#, 1
	note D#, 1
	note F#, 1
	note F#, 2
	octave 3
	note F#, 1
	octave 2
	note D#, 1
	rest 1
	note E_, 1
	note E_, 1
	rest 1
	note E_, 1
	note E_, 1
	octave 3
	note E_, 1
	note F#, 1
	note B_, 1
	note A#, 1
	note F#, 1
	note G#, 1
	octave 2
	note F#, 1
	octave 3
	note F#, 1
	octave 2
	note D#, 1
	octave 3
	note D#, 1
	octave 2
	note E_, 1
	octave 3
	note E_, 1
	octave 2
	note E_, 1
	octave 3
	note E_, 1
	note E_, 1
	note D#, 1
	rest 1
	note E_, 1
	rest 1
	octave 2
	note D#, 1
	note E_, 1
	note F#, 1
	octave 3
	note E_, 1
	note D#, 1
	rest 1
	note E_, 1
	rest 1
	octave 2
	note D#, 1
	note E_, 1
	note F#, 1
	octave 3
	note E_, 1
	note D#, 1
	rest 1
	note E_, 1
	rest 1
	octave 2
	note G#, 1
	note A#, 1
	note B_, 1
	octave 1
	note A#, 1
	octave 2
	note A#, 1
	note F#, 1
	rest 1
	note F#, 1
	rest 1
	note D#, 1
	rest 1
	note F#, 1
	note G#, 1
	rest 1
	note F#, 1
	rest 1
	note C#, 1
	note D#, 1
	note F#, 1
	note F#, 2
	octave 3
	note F#, 1
	octave 2
	note D#, 1
	rest 1
	note E_, 1
	note E_, 1
	rest 1
	note E_, 1
	note E_, 1
	octave 3
	note E_, 1
	note F#, 1
	note B_, 1
	note A#, 1
	note F#, 1
	note G#, 1
	octave 2
	note F#, 2
	volume_envelope 6, 7
	note F#, 2
	volume_envelope 10, 7
	note D#, 1
	note F#, 1
	rest 1
	note F#, 2
	volume_envelope 6, 7
	note F#, 3
	volume_envelope 10, 7
	note D#, 1
	note F#, 1
	rest 1
	note F#, 2
	volume_envelope 6, 7
	note F#, 3
	rest 1
	volume_envelope 10, 7
	note D#, 1
	rest 1
	note F#, 1
	note A#, 2
	volume_envelope 6, 7
	note A#, 1
	volume_envelope 10, 7
	note F#, 2
	note F#, 1
	note D#, 1
	note F#, 1
	note D_, 2
	volume_envelope 6, 7
	note D_, 2
	volume_envelope 10, 7
	note C#, 1
	note D_, 1
	rest 1
	note D_, 2
	volume_envelope 6, 7
	note D_, 3
	volume_envelope 10, 7
	note C#, 1
	note D_, 1
	rest 1
	note D_, 2
	volume_envelope 6, 7
	note D_, 3
	rest 1
	volume_envelope 10, 7
	note C#, 1
	rest 1
	note D_, 1
	note E_, 2
	volume_envelope 6, 7
	note E_, 1
	volume_envelope 10, 7
	note D_, 1
	rest 4
	octave 1
	note B_, 2
	volume_envelope 6, 7
	note B_, 1
	volume_envelope 10, 7
	note B_, 1
	rest 2
	note A#, 1
	note A#, 1
	note B_, 1
	note A#, 1
	rest 1
	note B_, 1
	rest 1
	octave 2
	note F_, 1
	note F#, 1
	note G#, 1
	note A#, 2
	volume_envelope 6, 7
	note A#, 1
	volume_envelope 10, 7
	note B_, 2
	note B_, 1
	note A#, 1
	note B_, 1
	octave 3
	note C#, 1
	octave 4
	note C#, 1
	octave 2
	note B_, 1
	octave 3
	note B_, 1
	octave 2
	note G#, 1
	octave 3
	note G#, 1
	octave 2
	note B_, 1
	octave 3
	note B_, 1
	octave 2
	note F#, 1
	note F#, 1
	rest 1
	note F#, 1
	rest 1
	note C#, 1
	note D#, 1
	note E_, 1
	note F#, 2
	note F#, 2
	note D#, 1
	note F#, 2
	volume_envelope 6, 7
	note F#, 1
	volume_envelope 10, 7
	note F#, 1
	octave 3
	note F#, 1
	rest 1
	octave 2
	note F#, 1
	rest 1
	note E_, 1
	note D#, 1
	note C#, 1
	rest 1
	octave 1
	note A#, 1
	note B_, 1
	octave 2
	note C#, 1
	note A#, 1
	note F#, 1
	note G#, 1
	note D#, 1
	note F#, 1
	octave 3
	note F#, 1
	rest 1
	octave 2
	note E_, 1
	rest 1
	note E_, 1
	octave 3
	note E_, 1
	octave 2
	note E_, 1
	note E_, 1
	note E_, 1
	note D#, 1
	octave 3
	note D#, 1
	octave 2
	note C#, 1
	octave 3
	note C#, 1
	octave 1
	note B_, 1
	octave 2
	note B_, 1
	note A#, 1
	note B_, 1
	octave 3
	note C#, 1
	octave 2
	note F#, 1
	note A#, 2
	volume_envelope 6, 7
	note A#, 2
	volume_envelope 10, 7
	note F#, 1
	octave 3
	note F#, 1
	rest 2
	octave 2
	note F#, 1
	octave 3
	note F#, 1
	rest 2
	octave 2
	note F#, 1
	octave 3
	note F#, 1
	rest 1
	octave 2
	note E_, 1
	rest 1
	note E_, 1
	octave 3
	note E_, 1
	octave 2
	note E_, 1
	note E_, 1
	note E_, 1
	note D#, 1
	octave 3
	note D#, 1
	octave 2
	note C#, 1
	octave 3
	note C#, 1
	octave 1
	note B_, 1
	octave 2
	note B_, 1
	note A#, 1
	note B_, 1
	octave 3
	note C#, 1
	octave 2
	note F#, 1
	rest 12
	note F#, 1
	octave 3
	note F#, 1
	rest 1
	octave 2
	note E_, 1
	rest 1
	note E_, 1
	octave 3
	note E_, 1
	octave 2
	note E_, 1
	note E_, 1
	note E_, 1
	note D#, 1
	octave 3
	note D#, 1
	octave 2
	note C#, 1
	octave 3
	note C#, 1
	octave 1
	note B_, 1
	octave 2
	note B_, 1
	note A#, 1
	note B_, 1
	octave 3
	note C#, 1
	octave 2
	note F#, 1
	note A#, 2
	volume_envelope 6, 7
	note A#, 2
	volume_envelope 10, 7
	note F#, 1
	octave 3
	note F#, 1
	rest 2
	octave 2
	note F#, 1
	octave 3
	note F#, 1
	rest 2
	octave 2
	note F#, 1
	octave 3
	note F#, 1
	rest 1
	octave 2
	note F#, 1
	rest 1
	note C#, 1
	note D#, 1
	note E_, 2
	octave 3
	note E_, 1
	octave 2
	note D#, 1
	octave 3
	note D#, 1
	octave 2
	note C#, 1
	octave 3
	note C#, 1
	octave 1
	note B_, 1
	octave 2
	note B_, 1
	note D#, 1
	note F_, 1
	rest 1
	note F_, 1
	rest 1
	note D#, 1
	note F_, 2
	volume_envelope 6, 7
	note F_, 1
	rest 1
	volume_envelope 10, 7
	note G#, 1
	rest 1
	note F_, 1
	note D#, 2
	volume_envelope 6, 7
	note D#, 1
	volume_envelope 10, 7
	note D#, 1
	note F_, 1
	rest 1
	note G#, 1
	rest 1
	note G#, 1
	octave 1
	note A#, 1
	octave 2
	note C#, 1
	note F#, 1
	octave 3
	note F#, 1
	octave 2
	note F_, 1
	octave 3
	note F_, 1
	octave 2
	note D#, 1
	note C#, 2
	volume_envelope 6, 7
	note C#, 1
	volume_envelope 10, 7
	note C#, 1
	note E_, 1
	note G#, 1
	note B_, 1
	rest 1
	note A#, 1
	rest 1
	note F#, 1
	rest 1
	note G#, 1
	rest 1
	note E_, 2
	volume_envelope 6, 7
	note E_, 1
	volume_envelope 10, 7
	note F#, 1
	rest 1
	note D#, 2
	volume_envelope 6, 7
	note D#, 1
	volume_envelope 10, 7
	note E_, 1
	rest 4
	octave 4
	volume_envelope 9, 7
	note C#, 2
	volume_envelope 6, 7
	note C#, 2
	volume_envelope 9, 7
	note C#, 2
	volume_envelope 6, 7
	note C#, 2
	octave 2
	volume_envelope 10, 7
	note C#, 1
	note E_, 1
	note G#, 1
	note B_, 1
	rest 1
	note A#, 1
	rest 1
	note F#, 1
	rest 1
	note G#, 1
	rest 1
	note E_, 2
	volume_envelope 6, 7
	note E_, 1
	volume_envelope 10, 7
	note F#, 1
	rest 1
	note D#, 2
	note D#, 1
	note E_, 1
	rest 2
	note D#, 2
	note D#, 1
	note E_, 1
	rest 2
	note D#, 2
	note D#, 1
	note E_, 1
	note C#, 1
	note E_, 1
	note G#, 1
	note B_, 1
	rest 1
	note A#, 1
	rest 1
	note F#, 1
	rest 1
	note G#, 1
	rest 1
	note E_, 2
	volume_envelope 6, 7
	note E_, 1
	volume_envelope 10, 7
	note F#, 1
	rest 1
	note D#, 2
	volume_envelope 6, 7
	note D#, 1
	volume_envelope 10, 7
	note E_, 1
	rest 4
	octave 4
	volume_envelope 9, 7
	note E_, 1
	note D#, 1
	note C#, 1
	octave 3
	note B_, 1
	octave 4
	note C#, 1
	octave 3
	note A#, 1
	note F#, 2
	octave 2
	volume_envelope 10, 7
	note C#, 1
	note E_, 1
	note G#, 1
	note B_, 1
	rest 1
	note A#, 1
	rest 1
	note F#, 1
	rest 1
	note G#, 1
	rest 1
	note E_, 2
	volume_envelope 6, 7
	note E_, 1
	volume_envelope 10, 7
	note F#, 1
	rest 1
	note D#, 2
	volume_envelope 6, 7
	note D#, 1
	volume_envelope 10, 7
	note E_, 1
	rest 12
	sound_jump Music_Quartet_Round3_Ch1_loop

Music_Quartet_Round3_Ch2:
	volume 7, 7
	duty_cycle 2
	note_type 12, 10, 7
	stereo_panning TRUE, TRUE
	rest 5
	octave 4
	volume_envelope 9, 7
	note G#, 2
	note B_, 2
	note A#, 1
	note F#, 2
	note B_, 2
	note A#, 1
	note F#, 2
	note B_, 2
	note A#, 2
	note F#, 2
	note B_, 2
	note A#, 1
	note F#, 2
	note B_, 2
	note A#, 1
	note F#, 2
	rest 4
	note G#, 2
	note B_, 2
	note A#, 1
	note F#, 2
	note B_, 2
	note A#, 1
	note F#, 2
	note B_, 2
	note A#, 2
	note F#, 2
	note B_, 2
	note A#, 1
	note F#, 2
	note B_, 2
	note A#, 1
	note F#, 2
	rest 4
	note G#, 2
	note B_, 2
	note A#, 1
	note F#, 2
	note B_, 2
	note A#, 1
	note F#, 2
	note B_, 2
	note A#, 2
	note F#, 2
	note B_, 2
	note A#, 1
	note F#, 2
	note B_, 2
	note A#, 1
	note F#, 2
	rest 4
	note F#, 2
	note A_, 2
	note G#, 1
	note E_, 2
	note A_, 2
	note G#, 1
	note E_, 2
	note A_, 2
	note G#, 2
	note E_, 2
	note A_, 2
	note G#, 1
	note E_, 2
	note A_, 2
	note G#, 1
	note E_, 2
Music_Quartet_Round3_Ch2_loop:
	volume_envelope 12, 7
	note E_, 1
	octave 3
	note G#, 1
	note A#, 1
	note B_, 1
	octave 4
	note C#, 1
	note D#, 1
	rest 1
	note F#, 2
	volume_envelope 7, 7
	note F#, 3
	volume_envelope 12, 7
	note F#, 2
	volume_envelope 7, 7
	note F#, 3
	rest 3
	octave 5
	volume_envelope 12, 7
	note C#, 2
	volume_envelope 7, 7
	note C#, 2
	volume_envelope 12, 7
	note C#, 2
	octave 4
	note B_, 2
	note A#, 2
	note F#, 1
	note G#, 2
	note E_, 2
	volume_envelope 7, 7
	note E_, 3
	rest 6
	volume_envelope 12, 7
	note D#, 2
	note D#, 1
	note E_, 2
	volume_envelope 7, 7
	note E_, 3
	rest 12
	volume_envelope 12, 7
	note E_, 1
	octave 3
	note G#, 1
	note A#, 1
	note B_, 1
	octave 4
	note C#, 1
	note D#, 1
	rest 1
	note F#, 2
	volume_envelope 7, 7
	note F#, 3
	volume_envelope 12, 7
	note F#, 2
	volume_envelope 7, 7
	note F#, 3
	rest 3
	octave 5
	volume_envelope 12, 7
	note C#, 2
	volume_envelope 7, 7
	note C#, 2
	volume_envelope 12, 7
	note C#, 2
	octave 4
	note B_, 2
	note A#, 2
	note F#, 1
	note G#, 2
	note E_, 2
	volume_envelope 7, 7
	note E_, 3
	rest 6
	volume_envelope 12, 7
	note D#, 2
	note D#, 1
	note E_, 2
	volume_envelope 7, 7
	note E_, 3
	rest 12
	octave 5
	volume_envelope 12, 7
	note C#, 1
	octave 4
	note D#, 1
	note F#, 1
	note A#, 1
	rest 1
	note B_, 1
	rest 1
	octave 5
	note C#, 2
	volume_envelope 7, 7
	note C#, 3
	rest 12
	octave 4
	volume_envelope 12, 7
	note A#, 1
	note B_, 2
	volume_envelope 7, 7
	note B_, 1
	volume_envelope 12, 7
	note A#, 2
	volume_envelope 7, 7
	note A#, 2
	volume_envelope 12, 7
	note A_, 1
	note D_, 1
	note F#, 1
	note A_, 1
	rest 1
	note B_, 1
	rest 1
	octave 5
	note C#, 2
	volume_envelope 7, 7
	note C#, 3
	rest 2
	octave 4
	volume_envelope 12, 7
	note A_, 1
	note D_, 2
	volume_envelope 7, 7
	note D_, 3
	rest 4
	volume_envelope 12, 7
	note E_, 2
	volume_envelope 7, 7
	note E_, 2
	volume_envelope 12, 7
	note D_, 2
	volume_envelope 7, 7
	note D_, 2
	volume_envelope 12, 7
	note F_, 1
	note G#, 1
	rest 1
	note B_, 2
	volume_envelope 7, 7
	note B_, 3
	rest 4
	volume_envelope 12, 7
	note B_, 1
	octave 5
	note C#, 2
	note D_, 2
	volume_envelope 7, 7
	note D_, 3
	rest 4
	volume_envelope 12, 7
	note C#, 2
	volume_envelope 7, 7
	note C#, 1
	octave 4
	volume_envelope 12, 7
	note G#, 2
	volume_envelope 7, 7
	note G#, 1
	volume_envelope 12, 7
	note B_, 2
	note A#, 2
	volume_envelope 7, 7
	note A#, 3
	rest 1
	octave 5
	volume_envelope 12, 7
	note C#, 2
	volume_envelope 7, 7
	note C#, 3
	rest 16
	rest 5
	volume_envelope 12, 7
	note E_, 1
	note E_, 1
	rest 1
	note E_, 1
	rest 1
	note E_, 1
	rest 1
	note E_, 1
	note E_, 2
	volume_envelope 7, 7
	note E_, 2
	volume_envelope 12, 7
	note D#, 2
	volume_envelope 7, 7
	note D#, 2
	volume_envelope 12, 7
	note C#, 2
	volume_envelope 7, 7
	note C#, 1
	volume_envelope 12, 7
	note C#, 1
	rest 4
	octave 6
	note C#, 2
	volume_envelope 7, 7
	note C#, 1
	volume_envelope 12, 7
	note C#, 1
	rest 4
	octave 5
	note E_, 1
	note E_, 1
	rest 1
	note E_, 1
	rest 1
	note E_, 1
	rest 1
	note E_, 1
	note E_, 2
	volume_envelope 7, 7
	note E_, 2
	volume_envelope 12, 7
	note D#, 2
	volume_envelope 7, 7
	note D#, 2
	volume_envelope 12, 7
	note C#, 2
	volume_envelope 7, 7
	note C#, 1
	volume_envelope 12, 7
	note C#, 2
	note D#, 2
	volume_envelope 7, 7
	note D#, 1
	octave 4
	volume_envelope 12, 7
	note B_, 1
	note A#, 1
	note F#, 1
	note D#, 1
	octave 6
	note G#, 2
	octave 4
	note F#, 2
	octave 5
	note E_, 1
	note E_, 1
	rest 1
	note E_, 1
	rest 1
	note E_, 1
	rest 1
	note E_, 1
	note E_, 2
	volume_envelope 7, 7
	note E_, 2
	volume_envelope 12, 7
	note D#, 2
	volume_envelope 7, 7
	note D#, 2
	volume_envelope 12, 7
	note C#, 2
	volume_envelope 7, 7
	note C#, 1
	volume_envelope 12, 7
	note C#, 1
	rest 4
	note B_, 2
	volume_envelope 7, 7
	note B_, 1
	octave 6
	volume_envelope 12, 7
	note C#, 1
	rest 4
	octave 5
	note E_, 1
	note E_, 1
	rest 1
	note E_, 1
	rest 1
	note E_, 1
	rest 1
	note E_, 1
	note E_, 2
	volume_envelope 7, 7
	note E_, 2
	volume_envelope 12, 7
	note D#, 2
	volume_envelope 7, 7
	note D#, 1
	volume_envelope 12, 7
	note C#, 2
	volume_envelope 7, 7
	note C#, 3
	rest 16
	rest 12
	octave 4
	volume_envelope 12, 7
	note C#, 1
	note E_, 1
	note G#, 1
	note B_, 1
	rest 1
	note A#, 1
	rest 1
	note F#, 1
	rest 1
	note G#, 1
	rest 1
	note E_, 2
	volume_envelope 7, 7
	note E_, 1
	volume_envelope 12, 7
	note F#, 1
	rest 1
	note D#, 2
	volume_envelope 7, 7
	note D#, 1
	volume_envelope 12, 7
	note E_, 1
	rest 4
	octave 5
	volume_envelope 10, 7
	note C#, 2
	volume_envelope 7, 7
	note C#, 2
	volume_envelope 10, 7
	note C#, 2
	volume_envelope 7, 7
	note C#, 2
	octave 4
	volume_envelope 12, 7
	note C#, 1
	note E_, 1
	note G#, 1
	note B_, 1
	rest 1
	note A#, 1
	rest 1
	note F#, 1
	rest 1
	note G#, 1
	rest 1
	note E_, 2
	volume_envelope 7, 7
	note E_, 1
	volume_envelope 12, 7
	note F#, 1
	rest 1
	note D#, 2
	note D#, 1
	note E_, 1
	rest 2
	note D#, 2
	note D#, 1
	note E_, 1
	rest 2
	note D#, 2
	note D#, 1
	note E_, 1
	note C#, 1
	note E_, 1
	note G#, 1
	note B_, 1
	rest 1
	note A#, 1
	rest 1
	note F#, 1
	rest 1
	note G#, 1
	rest 1
	note E_, 2
	volume_envelope 7, 7
	note E_, 1
	volume_envelope 12, 7
	note F#, 1
	rest 1
	note D#, 2
	volume_envelope 7, 7
	note D#, 1
	volume_envelope 12, 7
	note E_, 1
	rest 4
	octave 5
	volume_envelope 10, 7
	note E_, 1
	note D#, 1
	note C#, 1
	octave 4
	note B_, 1
	octave 5
	note C#, 1
	octave 4
	note A#, 1
	note F#, 2
	volume_envelope 12, 7
	note C#, 1
	note E_, 1
	note G#, 1
	note B_, 1
	rest 1
	note A#, 1
	rest 1
	note F#, 1
	rest 1
	note G#, 1
	rest 1
	note E_, 2
	volume_envelope 7, 7
	note E_, 1
	volume_envelope 12, 7
	note F#, 1
	rest 1
	note D#, 2
	volume_envelope 7, 7
	note D#, 1
	volume_envelope 12, 7
	note E_, 1
	rest 12
	sound_jump Music_Quartet_Round3_Ch2_loop

Music_Quartet_Round3_Ch3:
	note_type 12, 2, 0
	rest 1
	octave 5
	volume_envelope 2, 3
	note C#, 1
	note C#, 1
	rest 1
	note C#, 2
	note C#, 3
	volume_envelope 3, 3
	note C#, 3
	rest 16
	rest 5
	octave 4
	volume_envelope 2, 3
	note B_, 1
	note B_, 1
	rest 1
	note B_, 2
	note B_, 3
	volume_envelope 3, 3
	note B_, 3
	rest 16
	rest 5
	volume_envelope 2, 3
	note A#, 1
	note A#, 1
	rest 1
	note A#, 2
	note A#, 3
	volume_envelope 3, 3
	note A#, 3
	rest 16
	rest 5
	volume_envelope 2, 3
	note A_, 1
	note A_, 1
	rest 1
	note A_, 2
	note A_, 3
	volume_envelope 3, 3
	note A_, 3
	rest 13
	volume_envelope 2, 3
	note A_, 1
	note A_, 1
	note A_, 1
	note A_, 1
	note A_, 1
	note A_, 2
	note A_, 1
Music_Quartet_Round3_Ch3_loop:
	octave 5
	volume_envelope 2, 3
	note E_, 1
	octave 4
	note G#, 1
	note A#, 1
	note B_, 1
	octave 5
	note C#, 1
	note D#, 1
	rest 1
	note F#, 2
	note F#, 3
	note F#, 2
	note F#, 3
	rest 3
	octave 6
	note C#, 2
	note C#, 2
	note C#, 2
	octave 5
	note B_, 2
	note A#, 2
	note F#, 1
	note G#, 2
	note E_, 2
	note E_, 3
	rest 6
	note D#, 2
	note D#, 1
	note E_, 2
	note E_, 3
	rest 12
	note E_, 1
	octave 4
	note G#, 1
	note A#, 1
	note B_, 1
	octave 5
	note C#, 1
	note D#, 1
	rest 1
	note F#, 2
	note F#, 3
	note F#, 2
	note F#, 3
	rest 3
	octave 6
	note C#, 2
	note C#, 2
	note C#, 2
	octave 5
	note B_, 2
	note A#, 2
	note F#, 1
	note G#, 2
	note E_, 2
	note E_, 3
	rest 6
	note D#, 2
	note D#, 1
	note E_, 2
	note E_, 3
	rest 12
	octave 6
	note C#, 1
	octave 5
	note D#, 1
	note F#, 1
	note A#, 1
	rest 1
	note B_, 1
	rest 1
	octave 6
	note C#, 2
	note C#, 3
	rest 12
	octave 5
	note A#, 1
	note B_, 2
	note B_, 1
	note A#, 2
	note A#, 2
	note A_, 1
	note D_, 1
	note F#, 1
	note A_, 1
	rest 1
	note B_, 1
	rest 1
	octave 6
	note C#, 2
	note C#, 3
	rest 2
	octave 5
	note A_, 1
	note D_, 2
	note D_, 3
	rest 4
	note E_, 2
	note E_, 2
	note D_, 2
	note D_, 2
	note F_, 1
	note G#, 1
	rest 1
	note B_, 2
	note B_, 3
	rest 4
	note B_, 1
	octave 6
	note C#, 2
	note D_, 2
	note D_, 3
	rest 4
	note C#, 2
	note C#, 1
	octave 5
	note G#, 2
	note G#, 1
	note B_, 2
	note A#, 2
	note A#, 3
	rest 1
	octave 6
	note C#, 2
	note C#, 3
	rest 16
	rest 5
	octave 5
	note B_, 1
	note B_, 1
	rest 1
	note B_, 1
	rest 1
	note B_, 1
	rest 1
	note B_, 1
	note B_, 2
	note B_, 2
	note G#, 2
	note G#, 2
	note A#, 2
	note A#, 1
	note A#, 1
	rest 4
	note G#, 2
	note G#, 1
	note G#, 1
	rest 4
	note B_, 1
	note B_, 1
	rest 1
	note B_, 1
	rest 1
	note B_, 1
	rest 1
	note B_, 1
	note B_, 2
	note B_, 2
	note G#, 2
	note G#, 2
	note A#, 2
	note A#, 1
	note A#, 2
	octave 6
	note D#, 2
	note D#, 1
	octave 5
	note B_, 1
	note A#, 1
	note F#, 1
	note D#, 1
	note G#, 2
	note F#, 2
	note B_, 1
	note B_, 1
	rest 1
	note B_, 1
	rest 1
	note B_, 1
	rest 1
	note B_, 1
	note B_, 2
	note B_, 2
	note G#, 2
	note G#, 2
	note A#, 2
	note A#, 1
	note A#, 1
	rest 4
	octave 6
	note F#, 2
	note F#, 1
	note G#, 1
	rest 4
	octave 5
	note B_, 1
	note B_, 1
	rest 1
	note B_, 1
	rest 1
	note B_, 1
	rest 1
	note B_, 1
	note B_, 2
	note B_, 2
	note G#, 2
	note G#, 1
	note G#, 2
	note G#, 3
	rest 16
	rest 12
	note C#, 1
	note E_, 1
	note G#, 1
	note B_, 1
	rest 1
	note A#, 1
	rest 1
	note F#, 1
	rest 1
	note G#, 1
	rest 1
	note E_, 2
	note E_, 1
	note F#, 1
	rest 1
	note D#, 2
	note D#, 1
	note E_, 1
	rest 4
	octave 6
	note D#, 2
	note D#, 2
	note D#, 2
	note D#, 2
	octave 5
	note C#, 1
	note E_, 1
	note G#, 1
	note B_, 1
	rest 1
	note A#, 1
	rest 1
	note F#, 1
	rest 1
	note G#, 1
	rest 1
	note E_, 2
	note E_, 1
	note F#, 1
	rest 1
	note D#, 2
	note D#, 1
	note E_, 1
	rest 2
	note D#, 2
	note D#, 1
	note E_, 1
	rest 2
	note D#, 2
	note D#, 1
	note E_, 1
	note C#, 1
	note E_, 1
	note G#, 1
	note B_, 1
	rest 1
	note A#, 1
	rest 1
	note F#, 1
	rest 1
	note G#, 1
	rest 1
	note E_, 2
	note E_, 1
	note F#, 1
	rest 1
	note D#, 2
	note D#, 1
	note E_, 1
	rest 4
	octave 6
	note E_, 1
	note D#, 1
	note C#, 1
	octave 5
	note B_, 1
	octave 6
	note C#, 1
	octave 5
	note A#, 1
	note F#, 2
	note C#, 1
	note E_, 1
	note G#, 1
	note B_, 1
	rest 1
	note A#, 1
	rest 1
	note F#, 1
	rest 1
	note G#, 1
	rest 1
	note E_, 2
	note E_, 1
	note F#, 1
	rest 1
	note D#, 2
	note D#, 1
	note E_, 1
	rest 12
	sound_jump Music_Quartet_Round3_Ch3_loop

Music_Quartet_Round3_Ch4:
	toggle_noise 1
	drum_speed 12
	drum_note 12, 2
	drum_note 11, 1
	drum_note 12, 2
	drum_note 3, 3
	drum_note 12, 2
	drum_note 11, 1
	drum_note 12, 2
	drum_note 3, 2
	drum_note 11, 1
	drum_note 11, 1
	drum_note 11, 1
	drum_note 11, 1
	drum_note 12, 2
	drum_note 3, 3
	drum_note 12, 2
	drum_note 11, 1
	drum_note 12, 2
	drum_note 11, 2
	drum_note 12, 1
	drum_note 11, 2
	drum_note 12, 1
	drum_note 11, 2
	drum_note 3, 3
	drum_note 11, 2
	drum_note 12, 1
	drum_note 12, 2
	drum_note 3, 2
	drum_note 12, 1
	drum_note 11, 1
	drum_note 11, 1
	drum_note 12, 1
	drum_note 11, 2
	drum_note 3, 3
	drum_note 11, 2
	drum_note 11, 1
	drum_note 11, 2
	drum_note 11, 2
	drum_note 12, 1
	drum_note 11, 2
	drum_note 11, 1
	drum_note 11, 2
	drum_note 3, 3
	drum_note 11, 2
	drum_note 12, 1
	drum_note 11, 2
	drum_note 3, 2
	drum_note 12, 1
	drum_note 11, 1
	drum_note 12, 1
	drum_note 12, 1
	drum_note 11, 2
	drum_note 3, 3
	drum_note 12, 2
	drum_note 12, 1
	drum_note 11, 2
	drum_note 12, 2
	drum_note 12, 1
	drum_note 12, 2
	drum_note 12, 1
	drum_note 11, 2
	drum_note 3, 3
	drum_note 12, 2
	drum_note 11, 1
	drum_note 12, 2
	drum_note 3, 2
	drum_note 12, 1
	drum_note 11, 2
	drum_note 12, 1
	drum_note 12, 2
	drum_note 3, 3
	drum_note 11, 1
	drum_note 11, 1
	drum_note 3, 1
	drum_note 3, 1
	drum_note 3, 1
	drum_note 12, 1
	drum_note 3, 3
Music_Quartet_Round3_Ch4_loop:
	drum_note 11, 3
	drum_note 12, 1
	drum_note 3, 6
	drum_note 12, 2
	drum_note 3, 2
	drum_note 12, 2
	drum_note 12, 1
	drum_note 11, 2
	drum_note 12, 1
	drum_note 3, 4
	drum_note 11, 1
	drum_note 12, 1
	drum_note 11, 1
	drum_note 11, 1
	drum_note 3, 4
	drum_note 12, 3
	drum_note 12, 1
	drum_note 3, 6
	drum_note 11, 2
	drum_note 3, 2
	drum_note 12, 2
	drum_note 11, 1
	drum_note 12, 2
	drum_note 11, 1
	drum_note 3, 4
	drum_note 12, 1
	drum_note 11, 1
	drum_note 12, 1
	drum_note 11, 1
	drum_note 3, 4
	drum_note 12, 3
	drum_note 12, 1
	drum_note 3, 6
	drum_note 11, 2
	drum_note 3, 2
	drum_note 11, 2
	drum_note 12, 1
	drum_note 12, 2
	drum_note 11, 1
	drum_note 3, 4
	drum_note 11, 1
	drum_note 12, 1
	drum_note 11, 1
	drum_note 11, 1
	drum_note 3, 4
	drum_note 12, 3
	drum_note 12, 1
	drum_note 3, 6
	drum_note 11, 2
	drum_note 3, 2
	drum_note 11, 2
	drum_note 12, 1
	drum_note 12, 2
	drum_note 11, 1
	drum_note 3, 5
	drum_note 3, 1
	drum_note 11, 1
	drum_note 12, 1
	drum_note 11, 1
	drum_note 12, 2
	drum_note 11, 1
	drum_note 12, 7
	drum_note 11, 2
	drum_note 12, 1
	drum_note 11, 2
	drum_note 3, 4
	drum_note 12, 1
	drum_note 12, 3
	drum_note 3, 5
	drum_note 11, 1
	drum_note 12, 1
	drum_note 11, 1
	drum_note 3, 4
	drum_note 11, 7
	drum_note 12, 2
	drum_note 11, 1
	drum_note 12, 2
	drum_note 3, 4
	drum_note 11, 1
	drum_note 12, 3
	drum_note 3, 5
	drum_note 12, 1
	drum_note 11, 1
	drum_note 12, 1
	drum_note 3, 4
	drum_note 11, 7
	drum_note 12, 2
	drum_note 12, 1
	drum_note 12, 2
	drum_note 3, 4
	drum_note 12, 1
	drum_note 12, 3
	drum_note 3, 5
	drum_note 11, 1
	drum_note 11, 1
	drum_note 11, 1
	drum_note 3, 4
	drum_note 11, 1
	drum_note 12, 3
	drum_note 3, 3
	drum_note 11, 2
	drum_note 11, 1
	drum_note 12, 1
	drum_note 11, 1
	drum_note 3, 3
	drum_note 12, 1
	drum_note 11, 1
	drum_note 12, 3
	drum_note 12, 4
	drum_speed 6
	drum_note 11, 1
	drum_note 11, 1
	drum_speed 12
	drum_note 12, 1
	drum_note 11, 1
	drum_note 11, 1
	drum_note 12, 1
	drum_note 11, 1
	drum_note 12, 1
	drum_note 11, 1
	drum_note 11, 3
	drum_note 12, 1
	drum_note 3, 2
	drum_note 12, 3
	drum_note 11, 2
	drum_note 11, 1
	drum_note 3, 6
	drum_note 12, 1
	drum_note 11, 1
	drum_note 3, 2
	drum_note 12, 2
	drum_note 11, 3
	drum_note 12, 1
	drum_note 3, 3
	drum_note 12, 1
	drum_note 11, 3
	drum_note 12, 1
	drum_note 3, 2
	drum_note 11, 3
	drum_note 12, 2
	drum_note 11, 1
	drum_note 3, 6
	drum_note 11, 1
	drum_note 12, 1
	drum_note 3, 4
	drum_note 11, 1
	drum_note 11, 1
	drum_note 11, 1
	drum_note 11, 1
	drum_note 3, 3
	drum_note 11, 1
	drum_note 12, 3
	drum_note 11, 1
	drum_note 3, 2
	drum_note 12, 3
	drum_note 11, 2
	drum_note 12, 1
	drum_note 3, 6
	drum_note 11, 1
	drum_note 12, 1
	drum_note 3, 2
	drum_note 12, 2
	drum_note 11, 3
	drum_note 12, 1
	drum_note 3, 3
	drum_note 11, 1
	drum_note 12, 3
	drum_note 11, 1
	drum_note 3, 2
	drum_note 12, 3
	drum_note 11, 2
	drum_note 12, 1
	drum_note 3, 4
	drum_note 11, 1
	drum_note 12, 2
	drum_note 11, 1
	drum_note 3, 2
	drum_note 11, 1
	drum_note 3, 2
	drum_note 3, 2
	drum_note 3, 1
	drum_note 12, 2
	drum_note 12, 1
	drum_note 12, 1
	drum_speed 6
	drum_note 12, 1
	drum_note 11, 1
	drum_speed 12
	drum_note 12, 1
	drum_note 11, 1
	drum_note 12, 1
	drum_note 11, 1
	drum_note 12, 1
	drum_note 12, 1
	drum_note 11, 1
	drum_note 12, 1
	drum_note 11, 1
	drum_note 12, 1
	drum_note 12, 1
	drum_note 11, 1
	drum_note 12, 1
	drum_note 11, 1
	drum_note 12, 1
	drum_note 12, 1
	drum_note 11, 1
	drum_note 12, 1
	drum_note 11, 1
	drum_note 3, 3
	drum_note 11, 2
	drum_note 11, 1
	drum_note 12, 2
	drum_note 3, 2
	drum_note 12, 1
	drum_note 11, 1
	drum_note 12, 1
	drum_note 11, 3
	drum_note 3, 5
	drum_note 12, 1
	drum_note 11, 1
	drum_note 11, 1
	drum_note 3, 4
	drum_note 12, 1
	drum_note 11, 1
	drum_note 12, 1
	drum_note 11, 1
	drum_note 3, 3
	drum_note 12, 2
	drum_note 12, 1
	drum_note 11, 2
	drum_note 3, 2
	drum_note 12, 1
	drum_note 11, 1
	drum_note 12, 1
	drum_note 11, 3
	drum_note 3, 2
	drum_note 11, 1
	drum_note 12, 1
	drum_speed 6
	drum_note 11, 1
	drum_note 12, 1
	drum_speed 12
	drum_note 11, 1
	drum_note 11, 1
	drum_note 12, 1
	drum_note 3, 4
	drum_note 12, 1
	drum_note 11, 1
	drum_note 12, 1
	drum_note 11, 1
	drum_note 3, 3
	drum_note 12, 2
	drum_note 11, 1
	drum_note 11, 2
	drum_note 3, 2
	drum_note 12, 1
	drum_note 12, 1
	drum_note 11, 1
	drum_note 12, 3
	drum_note 3, 5
	drum_note 11, 1
	drum_note 12, 1
	drum_note 11, 1
	drum_note 3, 4
	drum_note 11, 1
	drum_note 12, 1
	drum_note 11, 1
	drum_note 12, 1
	drum_note 3, 3
	drum_note 12, 2
	drum_note 12, 1
	drum_note 12, 1
	drum_note 11, 1
	drum_note 3, 1
	drum_note 12, 1
	drum_note 11, 1
	drum_note 12, 1
	drum_note 11, 1
	drum_note 11, 2
	drum_note 12, 1
	drum_note 3, 1
	drum_note 12, 1
	drum_note 11, 1
	drum_note 12, 1
	drum_note 3, 1
	drum_note 11, 1
	drum_note 12, 1
	drum_note 11, 1
	drum_note 11, 1
	drum_note 3, 1
	drum_note 12, 1
	drum_note 11, 1
	sound_jump Music_Quartet_Round3_Ch4_loop
